<?xml version="1.0" standalone="no"?>
<!DOCTYPE svg PUBLIC "-//W3C//DTD SVG 1.1//EN" "http://www.w3.org/Graphics/SVG/1.1/DTD/svg11.dtd" >
<svg xmlns="http://www.w3.org/2000/svg">
<metadata>Generated by IcoMoon</metadata>
<defs>
<font id="icomoon" horiz-adv-x="1024">
<font-face units-per-em="1024" ascent="960" descent="-64" />
<missing-glyph horiz-adv-x="1024" />
<glyph unicode="&#x20;" horiz-adv-x="512" d="" />
<glyph unicode="&#xe900;" d="M1024 448c0-282.77-229.23-512-512-512s-512 229.23-512 512c0 282.77 229.23 512 512 512s512-229.23 512-512z" />
<glyph unicode="&#xe901;" d="M505.263 683.789h26.947v-478.316h-26.947v478.316z" />
<glyph unicode="&#xe902;" d="M761.263 461.474v-26.947c-186.794 0-291.522 0-478.316 0v26.947h478.316z" />
<glyph unicode="&#xe903;" horiz-adv-x="1000" d="M0 840.93c0 65.76 53.309 119.070 119.070 119.070h762.047c65.76 0 119.070-53.309 119.070-119.070v-762.047c0-65.76-53.31-119.070-119.070-119.070h-762.047c-65.76 0-119.070 53.31-119.070 119.070v762.047z" />
<glyph unicode="&#xe904;" horiz-adv-x="1000" d="M750.14 318.621c0-20.985-16.398-37.319-35.683-37.319h-280.873l-178.605 178.605 178.605 178.605h280.873c19.315 0 35.683-16.404 35.683-37.32v-282.571z" />
<glyph unicode="&#xe905;" horiz-adv-x="1000" d="M559.63 476.744l-75.776 75.776-16.839-16.839 75.776-75.776-75.776-75.776 16.839-16.839 75.776 75.776 75.776-75.776 16.839 16.839-75.776 75.776 75.776 75.776-16.839 16.839-75.776-75.776z" />
<glyph unicode="&#xe906;" glyph-name="Delete" horiz-adv-x="1365" d="M255.283 192.967l-11.639 11.372-117.354 117.515c-1.674 1.661-3.034 3.032-5.895 5.939-2.771 2.805-3.903 3.948-5.41 5.45-1.521 1.513-2.528 2.537-4.951 4.995l-4.257 4.341c-9.889 9.808-19.292 20.116-28.153 30.868-8.097 8.772-14.701 18.831-19.528 29.763l-1.451 3.82c-8.59 26.638-8.59 55.302 0 81.939l1.347 3.576c4.757 10.984 11.396 21.049 19.604 29.747 8.5 10.619 17.646 20.708 27.375 30.212 2.757 3.048 5.215 5.561 10.007 10.353 1.333 1.326 2.507 2.511 5.305 5.352l122.618 122.532c3.646 3.819 6.917 7.079 12.062 12.079l4.826 4.784c1.938 1.911 3.598 3.535 5.243 5.116l130.813 130.584c5.743 5.905 10.944 11.061 19.333 19.228 5.437 5.569 11.083 11.083 17.382 17.025 4.958 5.302 6.014 6.406 6.639 6.972 17.646 17.608 37.931 32.35 60.208 43.732 22.16 11.259 45.91 19.070 70.208 23.126 22.632 3.911 45.549 5.947 67.667 6.074l11.56 0.303c6.753 0.157 12.459 0.237 18.017 0.237h369.004c8.414 0 15.030-0.137 28.678-0.526 23.006-0.14 45.955-2.175 68.42-6.051 24.485-4.089 48.208-11.911 70.258-23.158 22.295-11.317 42.655-26.094 60.308-43.77 17.607-17.613 32.358-37.867 43.89-60.36 11.054-22.081 18.807-45.667 23.080-70.381 3.652-22.421 5.632-45.083 5.911-67.127 0.188-6.377 0.262-11.279 0.398-22.232l0.085-7.558v-421.68c0-9.273-0.165-18.876-0.472-29.116-0.29-22.716-2.27-45.375-5.985-68.176-4.21-24.337-11.964-47.923-23.256-70.463-11.395-22.027-26.078-42.189-43.639-59.887-17.664-17.687-38.025-32.466-60.251-43.748-22.118-11.281-45.841-19.103-70.36-23.199-22.528-3.743-45.306-5.763-67.533-6.030-14.501-0.404-21.117-0.54-29.531-0.54h-368.902c-5.552 0-11.264 0.080-18.011 0.239l-10.968 0.29c-22.79 0.284-45.533 2.304-68.040 6.047-24.514 4.096-48.264 11.907-70.507 23.205-22.201 11.344-42.486 26.084-59.34 42.923-1.396 1.32-2.167 2.122-5.209 5.342l-2.347 2.463c-7.319 7.009-12.201 11.782-16.576 16.282-8.292 8.090-14.076 13.83-19.611 19.502l-127.326 127.272-4.361 4.124-9.382 9.279zM1002.123-24.616l0.006 39.384h33.735c7.441 0 13.562 0.131 27.955 0.523 18.83 0.233 37.626 1.9 56.172 4.978 16.543 2.765 32.569 8.050 47.576 15.701 14.876 7.549 28.456 17.408 40.152 29.121 11.833 11.924 21.777 25.583 29.264 40.044 7.606 15.189 12.948 31.414 15.77 47.77 3.032 18.563 4.671 37.33 4.921 56.804 0.302 10.189 0.455 19.029 0.455 27.449v421.134l-0.091 7.176c-0.125 10.485-0.193 15.069-0.381 21.491-0.233 18.806-1.872 37.569-4.83 55.754-2.896 16.739-8.238 32.963-15.679 47.823-7.617 14.867-17.51 28.454-29.338 40.281-11.787 11.802-25.367 21.66-40.306 29.244-14.945 7.621-30.97 12.905-47.724 15.704-18.409 3.175-37.040 4.828-56.576 4.956-13.778 0.383-19.9 0.51-27.341 0.51h-369.004c-4.87 0-9.995-0.072-16.191-0.216l-12.060-0.308c-18.625-0.114-37.215-1.766-55.798-4.977-16.611-2.773-32.708-8.066-47.639-15.655-14.889-7.606-28.5-17.493-41.125-30.073-4.194-4.488-5.861-6.245-7.298-7.614-5.695-5.374-10.584-10.149-15.882-15.559-8.597-8.388-13.41-13.158-18.917-18.82l-132.854-132.905c-2.153-1.77-3.007-2.611-3.951-3.544l-3.104-3.074c-6.646-6.496-9.347-9.183-12.791-12.779l-122.882-122.808c-2.826-2.87-4.264-4.326-5.791-5.839-4.202-4.204-5.931-5.982-7.806-8.088-10.076-9.903-17.639-18.261-24.625-27.092l-2.875-3.251c-1.708-1.732-3.146-3.709-4.271-5.863-2.695-9.63-2.702-19.816-0.021-29.449 1.278-2.463 2.903-4.737 4.82-6.753 9.32-11.212 17.167-19.845 25.799-28.407l4.604-4.691 4.382-4.427c1.674-1.661 3.034-3.038 5.903-5.939 2.764-2.81 3.896-3.948 5.431-5.467l117.118-117.288 11.465-11.201 7.66-7.572c1.368-1.132 2.674-2.35 3.903-3.641l130.319-130.276c5.333-5.467 10.722-10.803 19.271-19.166 4.292-4.392 8.625-8.63 14.618-14.382 1.653-1.508 2.007-1.877 5.868-5.962 1.299-1.371 2.292-2.412 2.813-2.918 11.833-11.81 25.437-21.697 40.243-29.264 15.021-7.629 31.111-12.919 47.701-15.69 18.534-3.083 37.283-4.75 56.665-4.995l11.224-0.296c6.19-0.142 11.315-0.216 16.179-0.216h335.058l0.102-39.384z" />
<glyph unicode="&#xe907;" glyph-name="dollar" d="M628.066 271.36c0.504 14.204-1.936 28.361-7.168 41.578s-13.142 25.209-23.232 35.222c-31.501 25.915-67.988 45.082-107.2 56.32-49.802 12.186-95.777 36.601-133.76 71.040-26.317 29.087-40.113 67.372-38.4 106.56-0.837 20.451 2.473 40.861 9.733 59.999s18.317 36.609 32.507 51.361c31.022 29.813 71.89 47.231 114.88 48.96v85.12h43.2v-85.12c21.945-0.899 43.47-6.307 63.234-15.886s37.345-23.125 51.646-39.794c28.901-37.906 43.314-84.888 40.64-132.48h-50.24c1.98 38.171-10.342 75.709-34.56 105.28-11.798 12.979-26.324 23.183-42.536 29.878s-33.706 9.715-51.224 8.842c-34.135 1.98-67.685-9.509-93.44-32-11.261-10.766-20.086-23.819-25.882-38.28s-8.428-29.996-7.718-45.56c-0.663-14.748 1.852-29.467 7.373-43.159s13.919-26.038 24.627-36.201c31.146-24.52 66.809-42.679 104.96-53.438 37.711-11.571 73.831-27.802 107.52-48.322 20.958-13.736 38.212-32.417 50.24-54.4 11.699-23.3 17.419-49.141 16.64-75.202 0.684-20.674-2.915-41.267-10.569-60.485s-19.2-36.648-33.911-51.193c-32.579-29.692-74.664-46.822-118.72-48.322v-79.678h-41.28v80c-49.057 0.355-96.117 19.478-131.52 53.438-15.993 17.671-28.327 38.338-36.291 60.8-7.964 22.466-11.4 46.285-10.109 70.082h49.92c-1.289-19.083 1.434-38.224 7.992-56.192s16.808-34.363 30.088-48.128c14.49-13.041 31.431-23.069 49.836-29.499s37.905-9.128 57.364-7.943c35.336-1.514 70.020 9.86 97.6 32 12.356 10.309 22.185 23.314 28.731 38.016 6.546 14.698 9.635 30.705 9.029 46.786z" />
<glyph unicode="&#xe908;" glyph-name="euro" d="M591.269 357.121h-176.64v-7.040c-3.35-51.942 12.988-103.241 45.76-143.678 16.402-17.214 36.335-30.672 58.429-39.457 22.094-8.781 45.828-12.679 69.571-11.425 31.403-0.234 62.634 4.63 92.48 14.402l4.158-45.44c-31.316-8.375-63.581-12.676-95.998-12.8-30.299-1.697-60.619 2.915-89.042 13.546s-54.329 27.048-76.078 48.212c-42.48 46.98-64.577 108.899-61.44 172.16v11.52h-79.040v38.080h80.96v69.12h-80.96v37.76h80.96c-3.946 64.693 17.656 128.35 60.16 177.28 21.535 21.688 47.397 38.597 75.903 49.624s59.013 15.926 89.537 14.376c33.026-0.724 65.869-5.124 97.92-13.12l-4.162-45.44c-30.245 9.509-61.734 14.469-93.438 14.72-23.704 1.422-47.433-2.335-69.538-11.011s-42.055-22.063-58.462-39.229c-33.042-41.399-49.267-93.73-45.44-146.56h176.64v-37.76h-178.88v-69.12h176.64v-38.72z" />
<glyph unicode="&#xe90a;" glyph-name="ic_cal_ipo" d="M368 416c0-8.837-7.163-16-16-16s-16 7.163-16 16c0 8.837 7.163 16 16 16s16-7.163 16-16zM528 416c0-8.837-7.163-16-16-16s-16 7.163-16 16c0 8.837 7.163 16 16 16s16-7.163 16-16zM688 416c0-8.837-7.163-16-16-16s-16 7.163-16 16c0 8.837 7.163 16 16 16s16-7.163 16-16zM368 256c0-8.837-7.163-16-16-16s-16 7.163-16 16c0 8.837 7.163 16 16 16s16-7.163 16-16zM528 256c0-8.837-7.163-16-16-16s-16 7.163-16 16c0 8.837 7.163 16 16 16s16-7.163 16-16zM688 256c0-8.837-7.163-16-16-16s-16 7.163-16 16c0 8.837 7.163 16 16 16s16-7.163 16-16z" />
<glyph unicode="&#xe90d;" glyph-name="ic_edit" d="M456.529 265.289l-43.357 43.325 470.066 469.673 43.354-43.325-470.064-469.673zM371.416 350.388l-43.357 43.325 470.017 469.672 43.354-43.325-470.015-469.672zM292.571 217.6l35.616 176.24 128.502-128.458-164.118-47.782zM999.965 898.451l-43.457 43.423c-24.103 24.135-62.557 24.086-86.27 0.343l-42.964-42.933 130.068-130.024 43.013 42.933c23.859 23.939 23.518 62.368-0.39 86.258zM883.054-15.389h-833.965v825.967h630.018l48.601 48.563h-727.708v-923.141h932.142v727.175l-49.089-49.053v-629.512z" />
<glyph unicode="&#xe90e;" glyph-name="ic_home" d="M480 320c0-17.673 14.327-32 32-32s32 14.327 32 32c0 17.673-14.327 32-32 32s-32-14.327-32-32z" />
<glyph unicode="&#xe90f;" glyph-name="ic_menu" d="M224 672h576v-32h-576v32zM224 448h576v-32h-576v32zM224 224h576v-32h-576v32z" />
<glyph unicode="&#xe912;" glyph-name="ic_new" d="M957.217 448c0 245.886-199.328 445.217-445.217 445.217-245.891 0-445.217-199.331-445.217-445.217s199.326-445.217 445.217-445.217c245.889 0 445.217 199.333 445.217 445.217zM1001.739 448c0-270.474-219.261-489.739-489.739-489.739s-489.739 219.265-489.739 489.739c0 270.473 219.261 489.739 489.739 489.739s489.739-219.266 489.739-489.739zM489.739 470.261h-244.87v-44.522h244.87v-222.609h44.522v222.609h244.87v44.522h-244.87v267.13h-44.522v-267.13z" />
<glyph unicode="&#xe915;" glyph-name="ic_refresh" d="M321.938 248.294l-12.235-97.624c-1.099-8.77-9.093-14.984-17.864-13.885s-14.984 9.093-13.885 17.864l18.726 149.412 162.142-7.772c8.827-0.421 15.637-7.923 15.216-16.75s-7.923-15.637-16.75-15.216l-111.127 5.331-24.223-21.361zM672.905 676.418l-13.448 97.464c-1.208 8.756 4.905 16.827 13.661 18.035s16.827-4.905 18.035-13.661l20.583-149.167-158.629-34.458c-8.636-1.878-17.155 3.605-19.032 12.241s3.605 17.155 12.241 19.032l108.72 23.612 17.869 26.902z" />
<glyph unicode="&#xe918;" d="M228.766 770.724h-136.17l255.999-321.36-348.595-468.426h125.276l348.596 468.426-245.106 321.36z" />
<glyph unicode="&#xe919;" d="M430.298 770.724h-136.17l217.872-283.236 310.467 408.512h-130.723l-179.744-239.66-81.702 114.383z" />
<glyph unicode="&#xe91a;" d="M729.872 128l-217.872 283.235-332.255-430.298h141.619l190.637 250.55 87.149-103.488h130.723z" />
<glyph unicode="&#xe91b;" d="M544.682 449.363l245.107-321.363h136.17l-256 321.363 354.042 446.637h-141.616l-337.702-446.637z" />
<glyph unicode="&#xe91c;" d="M1023.998 896h-141.616l-337.702-446.637 245.106-321.363h136.171l-256 321.363 354.042 446.637z" />
<glyph unicode="&#xe91d;" glyph-name="pic" horiz-adv-x="1382" d="M1004.117 542.447h-964.35c-21.961 0-39.767-17.803-39.767-39.767v-526.913c0-21.963 17.806-39.767 39.767-39.767h964.35c21.962 0 39.767 17.804 39.767 39.767v526.913c0 21.964-17.805 39.767-39.767 39.767zM1004.117 502.68v-526.913h-894.757v526.913h894.757zM59.65 95.068h-9.942v278.369h9.942v-278.369zM1004.116 870.524c166.59 0 301.636-135.047 301.636-301.637 0-6.934-0.233-13.808-0.693-20.626l54.648 54.649 17.772-17.772-83.639-83.639-96.814 82.982 16.36 19.085 66.352-56.876c0.583 7.321 0.878 14.729 0.878 22.197 0 152.708-123.792 276.5-276.5 276.5v25.136z" />
<glyph unicode="&#xe91e;" glyph-name="rouble" d="M549.76 263.359h-155.52v-143.36h-51.2v143.36h-87.040v43.838h86.080v64.001h-86.080v42.88h86.080v320h209.28c55.233 3.505 109.749-13.982 152.64-48.96 18.224-16.951 32.53-37.671 41.922-60.717 9.395-23.046 13.656-47.863 12.478-72.723 1.335-24.925-2.849-49.837-12.255-72.959-9.403-23.122-23.793-43.883-42.145-60.801-43.114-33.981-97.202-50.949-152-47.68h-160v-64h155.52l2.24-42.88zM394.24 414.079h158.080c40.743-2.993 81.167 9.077 113.598 33.92 13.842 12.861 24.664 28.627 31.693 46.165 7.025 17.539 10.083 36.415 8.949 55.275 0.9 18.577-2.143 37.134-8.927 54.452s-17.156 33.004-30.431 46.028c-30.087 26.166-68.95 39.997-108.802 38.72h-164.16v-274.56z" />
<glyph unicode="&#xe91f;" glyph-name="Shape" horiz-adv-x="1229" d="M48.39 419.585l514.814 514.816c28.672 27.307 73.728 27.307 102.4 0l514.816-514.816c12.483-12.375 16.236-31.078 9.498-47.314-6.743-16.23-22.636-26.772-40.218-26.67h-279.296v-318.72c0-50.191-40.689-90.88-90.88-90.88h-330.238c-50.191 0-90.88 40.689-90.88 90.88v318.72h-279.296c-17.578-0.102-33.472 10.44-40.213 26.67-6.741 16.236-2.989 34.939 9.493 47.314z" />
<glyph unicode="&#xe920;" glyph-name="Spinner" horiz-adv-x="1896" d="M1640.296 448c-10.471 0-18.963-8.491-18.963-18.963v-94.815c0-10.472 8.492-18.963 18.963-18.963s18.963 8.491 18.963 18.963v94.815c0 10.472-8.492 18.963-18.963 18.963zM1768.296 413.704c-9.070 5.236-20.666 2.13-25.903-6.94l-47.407-82.116c-5.236-9.069-2.13-20.667 6.94-25.903s20.666-2.13 25.903 6.94l47.407 82.116c5.236 9.069 2.13 20.667-6.94 25.903zM1836.096 326.94c9.070 5.236 20.668 2.13 25.903-6.94s2.13-20.667-6.94-25.903l-82.115-47.408c-9.070-5.236-20.666-2.13-25.902 6.94-5.238 9.069-2.131 20.667 6.939 25.903l82.115 47.407zM1896.296 192c0 10.471-8.492 18.963-18.963 18.963h-94.815c-10.471 0-18.963-8.492-18.963-18.963s8.492-18.963 18.963-18.963h94.815c10.471 0 18.963 8.492 18.963 18.963zM1855.059 89.903c9.070-5.238 12.176-16.833 6.94-25.903s-16.833-12.176-25.903-6.94l-82.115 47.407c-9.070 5.238-12.176 16.833-6.939 25.903s16.832 12.176 25.902 6.94l82.115-47.407zM1768.296-29.704c9.070 5.236 12.176 16.833 6.94 25.903l-47.407 82.115c-5.238 9.070-16.833 12.176-25.903 6.939-9.070-5.236-12.176-16.832-6.94-25.902l47.407-82.115c5.238-9.070 16.833-12.176 25.903-6.94zM1659.259-45.037c0-10.471-8.492-18.963-18.963-18.963s-18.963 8.492-18.963 18.963v94.815c0 10.471 8.492 18.963 18.963 18.963s18.963-8.492 18.963-18.963v-94.815zM1512.296-29.704c9.069-5.236 20.667-2.13 25.903 6.94l47.408 82.115c5.236 9.070 2.13 20.666-6.94 25.902-9.069 5.238-20.667 2.131-25.903-6.939l-47.407-82.115c-5.236-9.070-2.13-20.668 6.94-25.903zM1444.495 57.060c-9.069-5.236-20.667-2.13-25.903 6.94s-2.13 20.666 6.94 25.903l82.116 47.407c9.069 5.236 20.667 2.13 25.903-6.94s2.13-20.666-6.94-25.903l-82.116-47.407zM1384.296 192c0-10.471 8.491-18.963 18.963-18.963h94.815c10.472 0 18.963 8.492 18.963 18.963s-8.491 18.963-18.963 18.963h-94.815c-10.472 0-18.963-8.492-18.963-18.963zM1425.532 294.097c-9.069 5.236-12.176 16.833-6.94 25.903s16.833 12.176 25.903 6.94l82.116-47.407c9.069-5.236 12.176-16.833 6.94-25.903s-16.833-12.176-25.903-6.94l-82.116 47.408zM1512.296 413.704c-9.069-5.236-12.176-16.833-6.94-25.903l47.407-82.116c5.236-9.069 16.833-12.176 25.903-6.94s12.176 16.833 6.94 25.903l-47.408 82.116c-5.236 9.069-16.833 12.176-25.903 6.94zM512 960c-20.945 0-37.926-16.981-37.926-37.926v-208.593c0-20.945 16.981-37.926 37.926-37.926s37.926 16.981 37.926 37.926v208.593c0 20.944-16.981 37.926-37.926 37.926zM768 891.403c-18.138 10.477-41.334 4.259-51.805-13.88l-104.296-180.647c-10.477-18.14-4.259-41.334 13.879-51.807 18.138-10.471 41.334-4.259 51.805 13.881l104.296 180.647c10.477 18.139 4.259 41.333-13.879 51.806zM903.597 717.879c18.14 10.477 41.334 4.259 51.807-13.879 10.477-18.138 4.259-41.334-13.881-51.805l-180.647-104.296c-18.14-10.477-41.334-4.259-51.807 13.879-10.471 18.138-4.259 41.334 13.881 51.805l180.647 104.296zM1024 448c0 20.945-16.981 37.926-37.926 37.926h-208.593c-20.945 0-37.926-16.981-37.926-37.926s16.981-37.926 37.926-37.926h208.593c20.945 0 37.926 16.981 37.926 37.926zM941.522 243.805c18.14-10.471 24.358-33.667 13.881-51.805-10.473-18.138-33.667-24.356-51.807-13.879l-180.647 104.296c-18.14 10.471-24.352 33.667-13.881 51.805 10.473 18.138 33.667 24.356 51.807 13.879l180.647-104.296zM768 4.597c18.138 10.473 24.356 33.667 13.879 51.807l-104.296 180.647c-10.471 18.14-33.667 24.352-51.805 13.881-18.138-10.473-24.356-33.667-13.879-51.807l104.296-180.647c10.471-18.14 33.667-24.358 51.805-13.881zM549.926-26.074c0-20.945-16.981-37.926-37.926-37.926s-37.926 16.981-37.926 37.926v208.593c0 20.945 16.981 37.926 37.926 37.926s37.926-16.981 37.926-37.926v-208.593zM256 4.597c18.138-10.477 41.335-4.259 51.809 13.881l104.293 180.647c10.477 18.14 4.259 41.334-13.879 51.807-18.138 10.471-41.334 4.259-51.805-13.881l-104.3-180.647c-10.471-18.14-4.255-41.334 13.883-51.807zM120.403 178.121c-18.139-10.477-41.336-4.259-51.808 13.879s-4.257 41.334 13.882 51.805l180.646 104.296c18.142 10.477 41.335 4.259 51.809-13.879 10.471-18.138 4.259-41.334-13.883-51.805l-180.646-104.296zM0 448c0-20.945 16.979-37.926 37.926-37.926h208.593c20.946 0 37.926 16.981 37.926 37.926s-16.979 37.926-37.926 37.926h-208.593c-20.947 0-37.926-16.981-37.926-37.926zM82.477 652.195c-18.139 10.471-24.354 33.667-13.882 51.805s33.669 24.356 51.808 13.879l180.646-104.296c18.142-10.471 24.354-33.667 13.883-51.805-10.473-18.138-33.667-24.356-51.809-13.879l-180.646 104.296zM256 891.403c-18.138-10.472-24.354-33.667-13.883-51.806l104.3-180.647c10.471-18.14 33.667-24.352 51.805-13.881 18.138 10.473 24.356 33.667 13.879 51.807l-104.293 180.647c-10.473 18.139-33.671 24.357-51.809 13.88z" />
</font>
</defs>
</svg>
