<?xml version="1.0" encoding="utf-8"?>
<!-- Generator: Adobe Illustrator 22.1.0, SVG Export Plug-In . SVG Version: 6.00 Build 0)  -->
<svg version="1.1" id="Слой_1" xmlns="http://www.w3.org/2000/svg" xmlns:xlink="http://www.w3.org/1999/xlink" x="0px" y="0px"
	 viewBox="0 0 23 23" style="enable-background:new 0 0 23 23;" xml:space="preserve">
<style type="text/css">
	.st0{fill:#FFFFFF;}
</style>
<path class="st0" d="M21.5,11.6c0,5.4-4.4,9.9-9.9,9.9c-5.4,0-9.9-4.4-9.9-9.9c0-5.4,4.4-9.9,9.9-9.9C17.1,1.8,21.5,6.2,21.5,11.6z
	 M22.5,11.6c0,6-4.9,10.9-10.9,10.9S0.8,17.6,0.8,11.6c0-6,4.9-10.9,10.9-10.9S22.5,5.7,22.5,11.6z M11.2,11.2V5.2h1v5.9h5.4v1h-5.4
	v4.9h-1v-4.9H5.7v-1H11.2z"/>
</svg>
