<svg width="42" height="43" viewBox="0 0 42 43" fill="none" xmlns="http://www.w3.org/2000/svg">
<g filter="url(#filter0_d)">
<path fill-rule="evenodd" clip-rule="evenodd" d="M0 5C0 2.23858 2.23858 0 5 0H37C39.7614 0 42 2.23858 42 5V37C42 39.7614 39.7614 42 37 42H5C2.23858 42 0 39.7614 0 37V5Z" fill="white" fill-opacity="0.15"/>
</g>
<path d="M21.5 13.9329C21.5 14.8141 20.8114 15.5 20.0016 15.5H8.20711L0.707107 8L8.20711 0.5H20.0016C20.8127 0.5 21.5 1.18884 21.5 2.06714V13.9329Z" transform="translate(10 13)" stroke="white"/>
<path fill-rule="evenodd" clip-rule="evenodd" d="M3.88909 3.18198L0.707107 0L0 0.707107L3.18198 3.88909L0 7.07107L0.707107 7.77817L3.88909 4.59619L7.07107 7.77817L7.77817 7.07107L4.59619 3.88909L7.77817 0.707107L7.07107 0L3.88909 3.18198Z" transform="translate(19.611 17.111)" fill="white"/>
<defs>
<filter id="filter0_d" x="0" y="0" width="42" height="43" filterUnits="userSpaceOnUse" color-interpolation-filters="sRGB">
<feFlood flood-opacity="0" result="BackgroundImageFix"/>
<feColorMatrix in="SourceAlpha" type="matrix" values="0 0 0 0 0 0 0 0 0 0 0 0 0 0 0 0 0 0 255 0"/>
<feOffset dy="1"/>
<feColorMatrix type="matrix" values="0 0 0 0 0 0 0 0 0 0 0 0 0 0 0 0 0 0 0.25 0"/>
<feBlend mode="normal" in2="BackgroundImageFix" result="effect1_dropShadow"/>
<feBlend mode="normal" in="SourceGraphic" in2="effect1_dropShadow" result="shape"/>
</filter>
</defs>
</svg>
