<svg width="24" height="18" viewBox="0 0 24 18" fill="none" xmlns="http://www.w3.org/2000/svg">
<path fill-rule="evenodd" clip-rule="evenodd" d="M3.60495 13.483L3.76987 13.6461L3.84653 13.7186L6.08469 15.9558C6.18198 16.0555 6.28366 16.1564 6.42941 16.2986C6.50632 16.3777 6.59213 16.4616 6.72079 16.5848L6.76205 16.6281C6.81552 16.6847 6.82907 16.6988 6.85361 16.722C7.14987 17.018 7.50644 17.2771 7.8967 17.4765C8.28769 17.6751 8.70517 17.8124 9.13608 17.8844C9.53171 17.9502 9.93149 17.9857 10.3321 17.9907L10.5249 17.9958C10.6435 17.9986 10.7439 18 10.8415 18H16.7312H16.7331H17.3261C17.474 18 17.5903 17.9976 17.8452 17.9905C18.2359 17.9858 18.6363 17.9503 19.0323 17.8845C19.4633 17.8125 19.8803 17.675 20.2691 17.4767C20.6598 17.2784 21.0177 17.0186 21.3282 16.7077C21.6369 16.3966 21.895 16.0422 22.0953 15.655C22.2938 15.2588 22.4301 14.8442 22.5041 14.4164C22.5694 14.0156 22.6042 13.6173 22.6093 13.218C22.6147 13.038 22.6176 12.8692 22.6176 12.7062V5.29385L22.6161 5.161C22.6137 4.96847 22.6124 4.8823 22.6091 4.7702C22.6042 4.38272 22.5694 3.98436 22.5052 3.59024C22.4301 3.15582 22.2938 2.74123 22.0995 2.35308C21.8968 1.9577 21.6375 1.60167 21.328 1.29207C21.0177 0.981363 20.6598 0.721607 20.2679 0.522681C19.8803 0.324979 19.4633 0.187494 19.0329 0.115609C18.638 0.047482 18.2346 0.0116982 17.8302 0.00924349C17.5903 0.00241661 17.474 0 17.3261 0H10.8397C10.742 0 10.6417 0.00141478 10.523 0.00417471L10.3198 0.00949478C9.931 0.0117216 9.52817 0.0475173 9.13034 0.116267C8.70322 0.187558 8.28574 0.324864 7.89621 0.522781C7.50461 0.722854 7.14804 0.981985 6.83786 1.2915C6.82687 1.30145 6.80832 1.32086 6.72116 1.41406C6.61044 1.5185 6.5112 1.61542 6.41562 1.71332C6.26816 1.85688 6.17673 1.94751 6.07578 2.05131L3.77634 4.34673C3.74741 4.37452 3.71823 4.40307 3.68417 4.43666L3.59933 4.52075C3.50888 4.60864 3.45139 4.66594 3.3873 4.73307L1.33456 6.78415L1.28403 6.83435L1.2319 6.88695C1.18271 6.93689 1.16208 6.95772 1.13864 6.98103C1.05441 7.06525 1.0112 7.10944 0.962738 7.16301C0.791718 7.33007 0.630951 7.50742 0.481537 7.69408C0.33725 7.84697 0.220551 8.02389 0.136932 8.21697L0.113251 8.27983C-0.0377502 8.74807 -0.0377502 9.25193 0.113251 9.72017L0.138763 9.78732C0.223602 9.97949 0.339691 10.1563 0.482025 10.3105C0.637787 10.4995 0.80307 10.6807 0.976898 10.8531L1.05173 10.9294C1.09433 10.9726 1.11203 10.9906 1.13876 11.0172C1.16525 11.0436 1.18515 11.0637 1.23386 11.113C1.28415 11.1641 1.30807 11.1882 1.33749 11.2174L3.40036 13.2831L3.60495 13.483ZM16.733 17.3077L16.7331 16.6154H17.3261C17.4569 16.6154 17.5645 16.6131 17.8175 16.6062C18.1485 16.6021 18.4789 16.5728 18.8049 16.5187C19.0957 16.4701 19.3774 16.3772 19.6412 16.2427C19.9027 16.11 20.1414 15.9367 20.347 15.7308C20.555 15.5212 20.7298 15.2811 20.8614 15.0269C20.9951 14.7599 21.089 14.4747 21.1386 14.1872C21.1919 13.8609 21.2207 13.531 21.2251 13.1887C21.2304 13.0096 21.2331 12.8542 21.2331 12.7062V5.59038V5.30346L21.2315 5.17732C21.2293 4.99302 21.2281 4.91244 21.2248 4.79954C21.2207 4.46896 21.1919 4.13915 21.1399 3.81949C21.089 3.52525 20.9951 3.24007 20.8643 2.97886C20.7304 2.71752 20.5565 2.47869 20.3486 2.27079C20.1414 2.06334 19.9027 1.89004 19.6401 1.75673C19.3774 1.62277 19.0957 1.52988 18.8012 1.48069C18.4776 1.42488 18.1501 1.39583 17.8067 1.39358C17.5645 1.38685 17.4569 1.38462 17.3261 1.38462H10.8397C10.7541 1.38462 10.664 1.38589 10.5551 1.38842L10.3431 1.39383C10.0157 1.39584 9.68893 1.42488 9.36227 1.48132C9.07028 1.53007 8.78732 1.62311 8.52487 1.7565C8.26315 1.8902 8.0239 2.06399 7.80197 2.28512C7.72824 2.36401 7.69894 2.39489 7.67368 2.41896C7.57358 2.51342 7.48764 2.59736 7.3945 2.69246C7.24338 2.83991 7.15878 2.92375 7.06198 3.02328L4.72665 5.3595C4.68881 5.39062 4.6738 5.4054 4.6572 5.4218L4.60263 5.47584C4.48581 5.59002 4.43832 5.63726 4.37778 5.70047L2.30832 7.76854L2.26486 7.81171L2.21774 7.8592C2.16806 7.90965 2.14279 7.93524 2.11594 7.96184C2.04208 8.03573 2.01169 8.06699 1.97873 8.10401C1.80161 8.27809 1.66867 8.42501 1.54587 8.58023L1.49533 8.63737C1.4653 8.66781 1.44003 8.70256 1.42026 8.74043C1.37289 8.9097 1.37277 9.08876 1.41989 9.25809C1.44235 9.30138 1.47092 9.34135 1.50461 9.37679C1.66843 9.57388 1.80637 9.72563 1.9581 9.87613L1.99936 9.9182L2.03903 9.95859L2.11606 10.0364C2.14548 10.0656 2.1694 10.0898 2.21982 10.1408C2.2684 10.1902 2.2883 10.2102 2.31528 10.2369L4.37399 12.2986L4.57553 12.4955L4.71017 12.6286C4.73422 12.6485 4.75717 12.6699 4.77878 12.6926L7.06955 14.9826C7.1633 15.0787 7.25803 15.1725 7.40829 15.3195C7.48373 15.3967 7.55991 15.4712 7.66525 15.5723C7.69431 15.5988 7.70053 15.6053 7.7684 15.6771C7.79123 15.7012 7.80869 15.7195 7.81784 15.7284C8.02585 15.936 8.26498 16.1098 8.52524 16.2428C8.78928 16.3769 9.07211 16.4699 9.36374 16.5186C9.68954 16.5728 10.0191 16.6021 10.3598 16.6064L10.5571 16.6116C10.6659 16.6141 10.756 16.6154 10.8415 16.6154H16.7312L16.733 17.3077Z" transform="translate(0.882446)" fill="white"/>
</svg>
