<?xml version="1.0" encoding="UTF-8" standalone="no"?>
<svg
   xmlns:dc="http://purl.org/dc/elements/1.1/"
   xmlns:cc="http://creativecommons.org/ns#"
   xmlns:rdf="http://www.w3.org/1999/02/22-rdf-syntax-ns#"
   xmlns:svg="http://www.w3.org/2000/svg"
   xmlns="http://www.w3.org/2000/svg"
   id="svg872"
   version="1.1"
   fill="none"
   viewBox="0 0 24 18"
   height="18"
   width="24">
  <metadata
     id="metadata878">
    <rdf:RDF>
      <cc:Work
         rdf:about="">
        <dc:format>image/svg+xml</dc:format>
        <dc:type
           rdf:resource="http://purl.org/dc/dcmitype/StillImage" />
        <dc:title></dc:title>
      </cc:Work>
    </rdf:RDF>
  </metadata>
  <defs
     id="defs876" />
  <path
     id="path870"
     d="m 11.72229,-0.5 c -0.102527,0 -0.206851,0.001086 -0.328125,0.003906 h -0.002 l -0.203125,0.005859 c -0.414506,0.002915 -0.840015,0.0404059 -1.2617191,0.11328126 -0.4764807,0.0799149 -0.9412183,0.23272407 -1.375,0.45312499 V 0.078125 h -0.00195 C 8.1133735,0.30141446 7.7153502,0.59011689 7.3687741,0.93554688 c -6.476e-4,6.4545e-4 -0.00131,0.001307 -0.00195,0.001953 -0.03363,0.031513 -0.051539,0.0520369 -0.1289062,0.1347656 C 7.1327949,1.1718827 7.0350551,1.2669838 6.9410398,1.3632812 6.797854,1.5027545 6.7016296,1.5978477 6.5992429,1.703125 L 4.3062741,3.9921875 c -0.029225,0.028138 -0.057137,0.055635 -0.089844,0.087891 l -0.00195,0.00195 -0.083984,0.083984 C 4.040021,4.253967 3.9760237,4.3172505 3.9078366,4.3886719 l -2.0429687,2.0410156 -0.052734,0.050781 -0.052734,0.054687 h -0.00195 c -0.048922,0.049668 -0.067998,0.070072 -0.089844,0.091797 -0.075856,0.075848 -0.1227691,0.1243371 -0.171875,0.1777344 -0.00627,0.00613 -0.011331,0.013378 -0.017578,0.019531 -0.0011,0.00122 -0.0028,0.00268 -0.00391,0.00391 -0.1678409,0.1655931 -0.3260234,0.3401237 -0.4746094,0.5234375 -0.001248,0.00132 -0.002661,0.00258 -0.003906,0.00391 C 0.81337794,7.5496057 0.66622991,7.772705 0.56018038,8.0175781 l -0.003906,0.011719 -0.0332031,0.085937 -0.003906,0.011719 c -0.18315939,0.5679594 -0.18315939,1.1781344 0,1.7460938 l 0.003906,0.013672 0.0351563,0.089844 0.005859,0.011719 C 0.67122244,10.230956 0.81804617,10.455781 0.99768038,10.650391 1.1586619,10.844252 1.3286266,11.031634 1.507446,11.208984 l 0.070312,0.07031 v 0.002 c 0.042463,0.04306 0.061399,0.06154 0.089844,0.08984 0.025293,0.02521 0.045138,0.04455 0.09375,0.09375 0.048983,0.04976 0.075151,0.07733 0.1054688,0.107422 l 2.0644531,2.066406 0.2070313,0.201172 0.1660156,0.166015 0.076172,0.07031 2.2324219,2.232422 c 0.1001107,0.102515 0.2040672,0.205659 0.3496093,0.347656 0.081084,0.0831 0.1687897,0.168283 0.2949219,0.289062 l 0.025391,0.02734 c 0.047534,0.0503 0.072129,0.07717 0.099609,0.103516 3.673e-4,3.67e-4 0.00159,-3.67e-4 0.00195,0 0.3347291,0.334197 0.7317976,0.622845 1.1679688,0.845703 0.4361581,0.221543 0.9017675,0.374701 1.3828125,0.455078 h 0.00195 c 0.4181285,0.06954 0.8402885,0.107604 1.2636715,0.113281 l 0.19336,0.0059 h 0.002 c 0.121325,0.0029 0.225743,0.0039 0.328125,0.0039 h 5.888672 0.002 0.59375 c 0.151063,0 0.276928,-0.0029 0.52539,-0.0098 0.416873,-0.005 0.840644,-0.04331 1.261719,-0.113281 h 0.002 c 0.481344,-0.08041 0.946493,-0.233538 1.38086,-0.455078 0.437975,-0.222295 0.83771,-0.513043 1.185547,-0.861328 h 0.002 c 0.34428,-0.346957 0.631838,-0.743481 0.855468,-1.175781 l 0.002,-0.002 0.002,-0.0039 c 0.220014,-0.439142 0.370797,-0.901008 0.453125,-1.376953 l 0.002,-0.002 v -0.0039 c 0.0688,-0.422272 0.105561,-0.842168 0.111328,-1.263672 v -0.0078 c 0.0054,-0.18097 0.0078,-0.351159 0.0078,-0.517578 V 5.2910156 l -0.002,-0.1367187 c -0.0024,-0.189139 -0.0026,-0.2780421 -0.0059,-0.390625 v -0.00781 C 23.98624,4.3452221 23.948257,3.9257673 23.880493,3.5097656 v -0.00195 -0.00195 C 23.797191,3.0239926 23.645518,2.5607991 23.429321,2.1289062 l -0.002,-0.00195 V 2.125 C 23.201285,1.6840102 22.91037,1.285848 22.564087,0.93945312 22.216407,0.59131759 21.815579,0.29900155 21.376587,0.07617187 V 0.078125 C 20.943816,-0.14261702 20.479795,-0.29656375 19.999634,-0.37695312 19.580612,-0.44924158 19.15479,-0.48709983 18.726196,-0.49023438 18.485057,-0.49709652 18.361964,-0.5 18.208618,-0.5 Z m 0,1 h 6.486328 c 0.142453,0 0.251573,0.002974 0.490234,0.009766 h 0.0059 0.0059 c 0.376924,0.002288 0.751551,0.0342407 1.119141,0.0976563 l 0.002,0.001953 h 0.002 c 0.379985,0.0634648 0.747968,0.18499534 1.089844,0.359375 0.344807,0.1750223 0.660673,0.4025028 0.933593,0.6757812 v 0.00195 c 0.272717,0.2728051 0.500371,0.5857766 0.679688,0.9355468 0.170935,0.3428098 0.290881,0.7088428 0.357422,1.09375 0.05961,0.3677587 0.0931,0.7415798 0.09766,1.1015626 v 0.00391 0.00391 c 0.0032,0.1084275 0.0035,0.1906735 0.0059,0.3828126 l 0.002,0.1289062 v 7.410156 c 0,0.15707 -0.0025,0.320096 -0.0078,0.496094 v 0.0039 0.0039 c -0.0048,0.374502 -0.03823,0.748262 -0.09961,1.125 -0.06548,0.376119 -0.184591,0.739643 -0.359375,1.089843 -0.17655,0.341288 -0.403524,0.652967 -0.675782,0.927735 -3.74e-4,3.75e-4 -0.0016,-3.75e-4 -0.002,0 -3.74e-4,3.77e-4 3.75e-4,0.0016 0,0.002 -0.272714,0.272655 -0.587076,0.501888 -0.929687,0.675781 h -0.002 c -0.343234,0.17506 -0.711141,0.295785 -1.091797,0.359375 -0.370295,0.06143 -0.745483,0.09523 -1.109375,0.09961 h -0.0039 -0.0039 C 18.460674,17.497304 18.351109,17.5 18.208618,17.5 h -0.59375 -0.002 -5.888672 c -0.09222,0 -0.187853,-0.0012 -0.302735,-0.0039 h -0.002 l -0.195312,-0.0059 h -0.0039 c -0.37523,-0.0047 -0.748574,-0.03798 -1.119141,-0.09961 C 9.7210338,17.327104 9.3527849,17.20645 9.007446,17.03125 h -0.00195 C 8.6621827,16.855647 8.3466771,16.626115 8.0894772,16.369141 l -0.00586,-0.0059 -0.00391,-0.0039 c -0.017817,-0.01684 -0.019287,-0.01814 -0.072266,-0.07422 v -0.002 l -0.050781,-0.05078 -0.00781,-0.0078 C 7.8218825,16.103028 7.7400734,16.021745 7.6695554,15.949219 l -0.00391,-0.0039 -0.00391,-0.0039 C 7.5174158,15.800594 7.4192452,15.703176 7.3258054,15.607422 l -0.00391,-0.0039 -2.2441406,-2.244141 -0.078125,-0.07227 -0.1621094,-0.160156 V 13.125 L 4.6343991,12.927734 2.5738522,10.863281 h -0.00195 c -0.027966,-0.02776 -0.049789,-0.05094 -0.099609,-0.101562 -0.048808,-0.0494 -0.06997,-0.07202 -0.097656,-0.09961 -0.024724,-0.0246 -0.042355,-0.03981 -0.083984,-0.08203 v -0.002 L 2.2144772,10.5 l -0.00391,-0.002 C 2.0486001,10.337407 1.8947417,10.16826 1.7496335,9.9921875 l -0.00781,-0.00977 -0.00977,-0.011719 C 1.6276381,9.8575809 1.5425473,9.7285941 1.4801022,9.5878906 c -3.687e-4,-8.308e-4 -0.00159,-0.00112 -0.00195,-0.00195 l -0.00586,-0.019531 c -0.1186381,-0.3678851 -0.118229,-0.7628784 0,-1.1308593 2.043e-4,-6.356e-4 -2.049e-4,-0.00132 0,-0.00195 l 0.00586,-0.017578 0.00195,-0.00391 c 0.06034,-0.1380623 0.1445424,-0.2653242 0.2480469,-0.375 l 0.013672,-0.015625 0.011719,-0.015625 C 1.8901632,7.8351783 2.0384132,7.6743926 2.194946,7.5214844 l 0.00977,-0.011719 0.011719,-0.011719 c 0.040541,-0.044815 0.075546,-0.081394 0.15625,-0.1621094 l 0.00195,-0.00195 c 0.024442,-0.024321 0.047234,-0.046495 0.095703,-0.095703 L 2.5211179,7.1875 2.569946,7.1386719 4.6265866,5.0820312 4.6304929,5.078125 C 4.6895873,5.0162275 4.7412153,4.9648978 4.8297116,4.8789062 l 0.00195,-0.00195 0.085937,-0.083984 0.00195,-0.00195 c 0.03226,-0.031805 0.059854,-0.058928 0.085937,-0.083984 l 0.00391,-0.00391 2.3046875,-2.3007812 0.00195,-0.00195 c 0.097166,-0.09991 0.1839636,-0.1858749 0.3300781,-0.328125 l 0.00586,-0.00586 0.00391,-0.00391 C 7.7458412,1.9703587 7.8400137,1.8781667 7.9468991,1.7773438 l 0.011719,-0.00977 0.00977,-0.011719 c 0.086642,-0.092646 0.1092171,-0.1130584 0.087891,-0.09375 l 0.00781,-0.00781 0.00977,-0.00977 C 8.347183,1.3717865 8.6601508,1.1451893 9.0054929,0.96875 9.3496593,0.79388188 9.7188608,0.67221294 10.095337,0.609375 h 0.002 c 0.370718,-0.0640644 0.747331,-0.097547 1.107422,-0.0996094 h 0.0059 l 0.207031,-0.005859 C 11.533728,0.50120617 11.629417,0.5 11.72229,0.5 Z m 0,0.38476562 c -0.09055,0 -0.185457,0.001318 -0.296875,0.003906 l -0.212891,0.005859 c -0.351678,0.00269 -0.702526,0.0332414 -1.052734,0.09375 C 9.818284,1.0454906 9.4888569,1.1542182 9.1812741,1.3105469 H 9.179321 C 8.8712165,1.4679424 8.5880839,1.6761458 8.3316648,1.9316406 l -0.00586,0.00586 -0.00586,0.00586 C 8.2468933,2.0215247 8.2210086,2.0466947 8.210571,2.0566406 8.1076889,2.1537664 8.016706,2.2426019 7.9195554,2.3417969 7.7736617,2.4842089 7.6837394,2.5728911 7.585571,2.6738281 L 5.2554929,5.0058594 c -0.025875,0.023 -0.055383,0.049656 -0.066406,0.060547 h -0.00195 L 5.132446,5.1210938 C 5.021133,5.2299134 4.9674755,5.2834986 4.9058835,5.3476562 l -2.0683594,2.0664063 -0.042969,0.044922 -0.050781,0.048828 c -0.049514,0.050281 -0.073278,0.075458 -0.097656,0.099609 h -0.00195 C 2.5799395,7.6716732 2.5471435,7.7088596 2.5113522,7.7480469 2.3231299,7.9330386 2.1732336,8.0970061 2.0367429,8.2695312 l -0.015625,0.017578 C 1.9559648,8.353152 1.901598,8.4281842 1.8590085,8.5097656 l -0.023437,0.044922 -0.013672,0.050781 c -0.071973,0.2571845 -0.073538,0.5298625 -0.00195,0.7871093 l 0.013672,0.048828 0.025391,0.046875 c 0.044344,0.08547 0.1002376,0.1632271 0.1660156,0.2324219 l -0.023437,-0.023437 c 0.1713685,0.2061715 0.3228613,0.3710614 0.4863282,0.5332034 l 0.037109,0.03711 0.041016,0.04297 0.078125,0.08008 h 0.00195 c 0.027561,0.02736 0.049178,0.05055 0.099609,0.101563 0.049138,0.04997 0.071269,0.07156 0.099609,0.09961 l 2.0585938,2.0625 0.203125,0.197265 L 5.257446,13 l 0.015625,0.01367 c 0.00877,0.0073 0.017471,0.01512 0.025391,0.02344 l 0.00586,0.0039 2.2949219,2.294922 c 0.096392,0.09871 0.1927555,0.195989 0.3417969,0.341796 0.078308,0.07992 0.1559247,0.156198 0.2597656,0.25586 l 0.00586,0.0039 0.00391,0.0039 c 0.025229,0.02301 0.00843,0.0084 0.076172,0.08008 h 0.00195 c 0.023453,0.02476 0.035677,0.03836 0.0625,0.06445 0.2439509,0.242665 0.5228316,0.445549 0.828125,0.601562 h 0.00195 v 0.002 c 0.3093547,0.157114 0.6405917,0.265183 0.9824219,0.322266 0.348331,0.05795 0.701942,0.08879 1.064453,0.09375 l 0.199219,0.0059 c 0.111158,0.0026 0.206307,0.0039 0.296875,0.0039 h 5.390625 v 0.19336 h 1 v -0.002 -0.191407 h 0.09375 c 0.134551,0 0.252327,-0.0031 0.498047,-0.0098 0.356379,-0.0044 0.711438,-0.03549 1.0625,-0.09375 0.341196,-0.05702 0.6733,-0.166611 0.982422,-0.324219 0.307698,-0.156468 0.58947,-0.360601 0.832031,-0.603516 v -0.002 c 0.243821,-0.245696 0.447906,-0.525594 0.603516,-0.826172 l 0.002,-0.002 0.002,-0.0039 c 0.15556,-0.310656 0.26411,-0.641424 0.322265,-0.978516 v -0.002 l 0.002,-0.002 c 0.05691,-0.348398 0.08675,-0.701045 0.0918,-1.064453 v -0.0078 c 0.0052,-0.179074 0.0078,-0.336626 0.0078,-0.488281 V 5.5898438 5.3007812 5.171875 c -0.0022,-0.1810002 -0.0046,-0.2661199 -0.0078,-0.3789062 v -0.00781 c -0.0048,-0.3528548 -0.03615,-0.7048297 -0.0918,-1.046875 v -0.00195 -0.00195 C 22.456002,3.3918308 22.346133,3.0616832 22.192993,2.7558594 v -0.00391 L 22.19104,2.75 C 22.0334,2.4423253 21.830278,2.1626753 21.585571,1.9179688 21.341077,1.6731793 21.059141,1.4676696 20.749634,1.3105469 20.442502,1.1539297 20.112121,1.045949 19.769165,0.98828125 c -0.347485,-0.0599292 -0.70046,-0.090832 -1.066407,-0.09375 -0.243244,-0.006759 -0.357657,-0.009766 -0.49414,-0.009766 z m 0,0.99999998 h 6.486328 c 0.125117,0 0.225641,0.00111 0.466797,0.00781 h 0.0059 l 0.0039,0.00195 c 0.317287,0.00208 0.617505,0.026979 0.914063,0.078125 v 0.00195 h 0.002 c 0.244716,0.040874 0.476196,0.1177761 0.693359,0.2285156 h 0.002 c 0.215693,0.1094973 0.410173,0.2517644 0.580079,0.421875 0.171093,0.1710935 0.315621,0.367026 0.425781,0.5820312 0.107481,0.2155933 0.184268,0.4527703 0.226562,0.6972657 0.04756,0.2935724 0.07435,0.5979812 0.07813,0.9023437 v 0.00391 0.00391 c 0.0032,0.1094934 0.0056,0.1852712 0.0078,0.3691407 v 0.1230468 0.2832032 7.1171872 c 0,0.141919 -0.0026,0.291226 -0.0078,0.466797 v 0.0039 0.0039 c -0.0041,0.31839 -0.0308,0.624117 -0.08008,0.925781 -0.04132,0.235945 -0.119564,0.473836 -0.230469,0.695312 -0.106862,0.204862 -0.250273,0.402865 -0.419921,0.574219 -3.72e-4,3.72e-4 -0.0016,-3.71e-4 -0.002,0 -3.77e-4,3.8e-4 3.76e-4,0.0016 0,0.002 -0.167567,0.167403 -0.3646,0.309614 -0.578126,0.417969 -0.218478,0.111392 -0.451002,0.188338 -0.691406,0.228516 -0.300938,0.04994 -0.606488,0.07629 -0.912109,0.08008 h -0.0039 -0.002 c -0.252165,0.0069 -0.353577,0.0098 -0.478516,0.0098 h -0.0957 -0.998047 -5.390625 c -0.07986,0 -0.166091,-0.0015 -0.271485,-0.0039 h -0.002 l -0.199218,-0.0039 -0.0039,-0.002 c -0.316108,-0.004 -0.619189,-0.03005 -0.919921,-0.08008 -0.24143,-0.04032 -0.4746346,-0.11743 -0.6933599,-0.228516 C 9.4208002,15.68772 9.2254756,15.545817 9.054321,15.375 l -0.00391,-0.002 -0.00195,-0.0039 c 0.00852,0.0083 -0.01295,-0.01172 -0.035156,-0.03516 -0.067998,-0.07193 -0.096015,-0.100865 -0.1289063,-0.130859 -0.097744,-0.09391 -0.1686445,-0.163159 -0.2363281,-0.232422 l -0.00391,-0.0039 -0.00391,-0.0039 C 8.4909102,14.816783 8.3999296,14.724811 8.3101804,14.632812 l -0.00195,-0.002 -2.2851562,-2.283203 -0.00781,-0.0078 c -0.022649,-0.02338 -0.046024,-0.04485 -0.070312,-0.06641 L 5.8082272,12.138672 5.6090085,11.943359 3.5504148,9.8828125 l -0.00195,-0.00195 c -0.02562,-0.025354 -0.041822,-0.041011 -0.089844,-0.089844 v -0.00195 C 3.4095838,9.7394643 3.3832863,9.7154847 3.3531491,9.6855469 l -0.00195,-0.00391 -0.074219,-0.074219 -0.039062,-0.039063 -0.042969,-0.044922 -0.00195,-0.00195 C 3.0576291,9.3872179 2.9339316,9.2508564 2.7847898,9.0722656 c -0.00735,-0.046671 -0.00702,-0.093925 0,-0.140625 l 0.027344,-0.03125 0.00781,-0.00977 C 2.9290553,8.7527102 3.0465064,8.6241058 3.2125241,8.4609375 l 0.011719,-0.011719 0.00977,-0.013672 c 0.024212,-0.027195 0.046154,-0.048066 0.1171875,-0.1191407 v -0.00195 c 0.028739,-0.028482 0.055006,-0.054255 0.1035156,-0.1035156 l 0.046875,-0.044922 0.042969,-0.042969 2.0722656,-2.0722657 0.00391,-0.00391 c 0.056268,-0.05875 0.09693,-0.09955 0.2128907,-0.2128906 l 0.00195,-0.00195 0.054687,-0.054687 c 0.016245,-0.016049 0.00915,-0.00826 0.037109,-0.03125 L 5.944946,5.7304688 8.3004148,3.375 l 0.00195,-0.00391 C 8.3954964,3.2753387 8.4765136,3.1972097 8.6265866,3.0507812 l 0.00391,-0.00391 0.00391,-0.00391 C 8.7228699,2.9526362 8.8035652,2.8742272 8.9000241,2.7832031 V 2.78125 h 0.00195 C 8.9405086,2.7445338 8.9759541,2.7062108 9.0445554,2.6328125 9.2297155,2.4497036 9.4219025,2.309726 9.6343991,2.2011719 v 0.00195 C 9.8511624,2.0929552 10.085938,2.0149831 10.327759,1.9746094 h 0.002 c 0.299888,-0.051815 0.598559,-0.078237 0.898437,-0.080078 h 0.0059 l 0.214844,-0.00586 c 0.106382,-0.00247 0.192783,-0.00391 0.273438,-0.00391 z"
     style="color:#000000;font-style:normal;font-variant:normal;font-weight:normal;font-stretch:normal;font-size:medium;line-height:normal;font-family:sans-serif;font-variant-ligatures:normal;font-variant-position:normal;font-variant-caps:normal;font-variant-numeric:normal;font-variant-alternates:normal;font-feature-settings:normal;text-indent:0;text-align:start;text-decoration:none;text-decoration-line:none;text-decoration-style:solid;text-decoration-color:#000000;letter-spacing:normal;word-spacing:normal;text-transform:none;writing-mode:lr-tb;direction:ltr;text-orientation:mixed;dominant-baseline:auto;baseline-shift:baseline;text-anchor:start;white-space:normal;shape-padding:0;clip-rule:evenodd;display:inline;overflow:visible;visibility:visible;opacity:1;isolation:auto;mix-blend-mode:normal;color-interpolation:sRGB;color-interpolation-filters:linearRGB;solid-color:#000000;solid-opacity:1;vector-effect:none;fill-opacity:1;fill-rule:evenodd;stroke:none;stroke-width:1;stroke-linecap:butt;stroke-linejoin:miter;stroke-miterlimit:4;stroke-dasharray:none;stroke-dashoffset:0;stroke-opacity:1;color-rendering:auto;image-rendering:auto;shape-rendering:auto;text-rendering:auto;enable-background:accumulate;fill:#000000" />
</svg>
