<?xml version="1.0" encoding="UTF-8" standalone="no"?>
<svg
   xmlns:dc="http://purl.org/dc/elements/1.1/"
   xmlns:cc="http://creativecommons.org/ns#"
   xmlns:rdf="http://www.w3.org/1999/02/22-rdf-syntax-ns#"
   xmlns:svg="http://www.w3.org/2000/svg"
   xmlns="http://www.w3.org/2000/svg"
   id="svg1427"
   version="1.1"
   fill="none"
   viewBox="0 0 28 28"
   height="28"
   width="28">
  <metadata
     id="metadata1433">
    <rdf:RDF>
      <cc:Work
         rdf:about="">
        <dc:format>image/svg+xml</dc:format>
        <dc:type
           rdf:resource="http://purl.org/dc/dcmitype/StillImage" />
        <dc:title></dc:title>
      </cc:Work>
    </rdf:RDF>
  </metadata>
  <defs
     id="defs1431" />
  <path
     id="path1425"
     d="M 12.500737,3.1225 V 5.5580469 C 11.38686,5.7078686 10.328898,6.1444993 9.5124556,6.9291406 l -0.00781,0.00586 -0.00586,0.00781 C 9.0640031,7.3947935 8.7251177,7.92869 8.50269,8.5150781 8.282869,9.0946031 8.1853522,9.7141812 8.2077681,10.333438 c -0.046435,1.195012 0.3730398,2.362756 1.1757813,3.25 l 0.015625,0.01758 0.019531,0.01758 c 1.1002144,0.997575 2.4305164,1.70368 3.8730464,2.05664 l -0.01758,-0.0039 c 0.999366,0.286423 1.925892,0.777537 2.730469,1.435547 0.218299,0.221492 0.393296,0.480239 0.507813,0.769531 0.117666,0.297272 0.173451,0.616081 0.162109,0.935547 l -0.002,0.01953 0.002,0.01758 c 0.01368,0.363338 -0.0572,0.724588 -0.205078,1.056641 -0.147158,0.330508 -0.367331,0.623091 -0.644531,0.855469 -0.659184,0.527791 -1.488262,0.799825 -2.332032,0.763672 l -0.02539,-0.002 -0.02539,0.002 c -0.465874,0.02837 -0.932461,-0.03555 -1.373047,-0.189453 -0.434778,-0.151878 -0.833904,-0.391083 -1.177734,-0.697266 -0.308386,-0.323357 -0.549852,-0.705111 -0.703125,-1.125 C 10.032838,19.087411 9.9682481,18.633237 9.9987838,18.181094 L 10.03394,17.647891 H 7.6608931 l -0.025391,0.472656 c -0.038871,0.716631 0.064869,1.43286 0.3046875,2.109375 0.2398205,0.676413 0.6101789,1.299863 1.0917969,1.832031 l 0.013672,0.01367 0.011719,0.01172 c 0.9363051,0.898149 2.1616585,1.37801 3.4433595,1.501953 v 2.285156 h 2.128906 v -2.28125 c 1.139402,-0.141928 2.227458,-0.570762 3.082031,-1.349609 l 0.0078,-0.0059 0.0078,-0.0078 c 0.451267,-0.446163 0.804241,-0.980818 1.039063,-1.570313 0.232557,-0.583892 0.338606,-1.209804 0.320312,-1.83789 0.02126,-0.790642 -0.148962,-1.574359 -0.503906,-2.28125 l -0.0039,-0.0078 -0.0039,-0.0078 c -0.368287,-0.673103 -0.897397,-1.245457 -1.539063,-1.666016 l -0.0059,-0.0039 -0.0078,-0.0039 c -0.956754,-0.582762 -1.981808,-1.044449 -3.052734,-1.373047 l -0.0059,-0.002 -0.0059,-0.002 c -0.971595,-0.274009 -1.876658,-0.7377 -2.671875,-1.359375 -0.233489,-0.225748 -0.421457,-0.49552 -0.542969,-0.796875 -0.12418,-0.307955 -0.18092,-0.638991 -0.166015,-0.970704 l 0.002,-0.02148 -0.002,-0.02344 c -0.01614,-0.3542577 0.04386,-0.7079396 0.175781,-1.0371099 0.130151,-0.3247656 0.330602,-0.61622 0.582031,-0.859375 0.604637,-0.5242413 1.388296,-0.7963658 2.1875,-0.75 l 0.02734,0.00195 h 0.02734 c 0.405238,-0.020194 0.808572,0.048249 1.183593,0.203125 0.369779,0.1527028 0.699868,0.3873583 0.970704,0.6816407 0.578924,0.7111254 0.877601,1.6113301 0.830078,2.5273441 l -0.02734,0.52539 h 2.373047 L 18.932378,11.1225 C 19.012155,9.7022939 18.581942,8.3005404 17.719487,7.169375 l -0.0078,-0.011719 -0.0098,-0.00977 C 17.26616,6.640015 16.729872,6.2268706 16.12769,5.935 15.675194,5.7156849 15.176178,5.6431447 14.680424,5.5717188 V 3.1225 Z m 1,1 h 0.179687 v 2.3066406 l 0.480469,0.019531 c 0.531495,0.02178 1.052589,0.152769 1.53125,0.3847656 0.474887,0.2301722 0.89536,0.5577137 1.240234,0.9570313 0.613694,0.8108766 0.904173,1.7959794 0.945313,2.8046872 H 17.489018 C 17.427886,9.6162623 17.129749,8.6655031 16.50269,7.8998438 l -0.0098,-0.00977 -0.0078,-0.00977 C 16.112845,7.4707603 15.654879,7.1482074 15.143315,6.9369531 c -0.504153,-0.208205 -1.049001,-0.299034 -1.59375,-0.2753906 -1.052875,-0.052768 -2.08814,0.30018 -2.882813,0.9941406 l -0.0078,0.00781 -0.0078,0.00781 C 10.291616,8.015043 10.009979,8.4322968 9.8249556,8.8939844 9.6429032,9.3482308 9.5638765,9.8348559 9.5827681,10.323672 c -0.017888,0.467442 0.057414,0.935139 0.2324219,1.369141 0.1777466,0.440822 0.448226,0.83684 0.792969,1.164062 l 0.01758,0.01758 0.01758,0.01367 c 0.903138,0.711015 1.936676,1.236832 3.042969,1.548828 l -0.0098,-0.002 c 0.988621,0.303345 1.934869,0.72834 2.818359,1.265625 0.498968,0.328664 0.909305,0.775378 1.197266,1.298828 0.279647,0.560651 0.417158,1.180339 0.398438,1.806641 v 0.01563 0.01563 c 0.01642,0.496407 -0.06815,0.991647 -0.251954,1.453125 -0.182622,0.458453 -0.458696,0.872866 -0.808593,1.220703 -0.80214,0.727897 -1.835168,1.148694 -2.917969,1.185547 l -0.482422,0.01563 v 2.162109 h -0.128906 v -2.183594 l -0.498047,-0.0039 C 11.794233,22.678215 10.639053,22.205869 9.7644088,21.3725 9.378021,20.941608 9.0769935,20.441546 8.8835494,19.895938 8.7415944,19.495489 8.7249125,19.070413 8.7019087,18.647891 h 0.375 c 0.024786,0.408519 0.030882,0.820781 0.1718751,1.207031 0.2032785,0.556879 0.5200394,1.065533 0.9316402,1.492187 l 0.01367,0.01367 0.01172,0.01172 c 0.445516,0.400977 0.967313,0.708572 1.533203,0.90625 0.55777,0.194841 1.148596,0.272745 1.738281,0.240234 1.078178,0.03992 2.134822,-0.304745 2.976563,-0.980468 l 0.0039,-0.002 0.0039,-0.0039 c 0.396543,-0.330853 0.711805,-0.748899 0.921875,-1.220703 0.207886,-0.46678 0.301919,-0.973798 0.285157,-1.484375 0.01326,-0.450576 -0.0606,-0.899071 -0.226563,-1.318359 -0.168441,-0.425519 -0.423181,-0.812396 -0.748047,-1.134766 l -0.01563,-0.01563 -0.01758,-0.01563 c -0.914225,-0.752098 -1.973347,-1.308615 -3.111328,-1.634765 l -0.0098,-0.002 -0.0098,-0.002 C 12.257069,14.39306 11.083504,13.765167 10.110112,12.888125 9.4906502,12.19275 9.1631531,11.286049 9.2038619,10.354922 v -0.01953 -0.02149 C 9.1837241,9.8220967 9.2636672,9.3307734 9.4382369,8.8705469 9.6116478,8.413382 9.8756603,7.9972239 10.213627,7.6439844 10.972962,6.9175703 11.970052,6.490921 13.020268,6.4486719 l 0.480469,-0.017578 z"
     style="color:#000000;font-style:normal;font-variant:normal;font-weight:normal;font-stretch:normal;font-size:medium;line-height:normal;font-family:sans-serif;font-variant-ligatures:normal;font-variant-position:normal;font-variant-caps:normal;font-variant-numeric:normal;font-variant-alternates:normal;font-feature-settings:normal;text-indent:0;text-align:start;text-decoration:none;text-decoration-line:none;text-decoration-style:solid;text-decoration-color:#000000;letter-spacing:normal;word-spacing:normal;text-transform:none;writing-mode:lr-tb;direction:ltr;text-orientation:mixed;dominant-baseline:auto;baseline-shift:baseline;text-anchor:start;white-space:normal;shape-padding:0;clip-rule:nonzero;display:inline;overflow:visible;visibility:visible;opacity:1;isolation:auto;mix-blend-mode:normal;color-interpolation:sRGB;color-interpolation-filters:linearRGB;solid-color:#000000;solid-opacity:1;vector-effect:none;fill-opacity:1;fill-rule:nonzero;stroke:none;stroke-width:1;stroke-linecap:butt;stroke-linejoin:miter;stroke-miterlimit:4;stroke-dasharray:none;stroke-dashoffset:0;stroke-opacity:1;color-rendering:auto;image-rendering:auto;shape-rendering:auto;text-rendering:auto;enable-background:accumulate" />
</svg>
