<svg width="28" height="28" viewBox="0 0 28 28" fill="none" xmlns="http://www.w3.org/2000/svg">
<path d="M9.04599 15.2075C9.05978 14.8191 8.99305 14.432 8.85 14.0706C8.70694 13.7092 8.49066 13.3813 8.21474 13.1075C7.35339 12.3989 6.3557 11.8748 5.28349 11.5675C3.92172 11.2343 2.66458 10.5667 1.62599 9.625C0.90639 8.82965 0.529146 7.7828 0.575994 6.71125C0.553096 6.15203 0.643621 5.59395 0.842119 5.07064C1.04062 4.54733 1.34298 4.06961 1.73099 3.66625C2.57924 2.85104 3.69672 2.37479 4.87224 2.3275V0H6.05349V2.3275C6.65355 2.35209 7.24212 2.49995 7.78254 2.76188C8.32297 3.02382 8.80368 3.39421 9.19474 3.85C9.98501 4.88649 10.3791 6.17116 10.306 7.4725H8.93224C8.98639 6.42876 8.64945 5.40233 7.98724 4.59375C7.66465 4.23885 7.26743 3.95983 6.82414 3.77677C6.38085 3.5937 5.9025 3.51113 5.42349 3.535C4.49011 3.48085 3.57272 3.79502 2.86849 4.41C2.56057 4.70439 2.31926 5.0613 2.16079 5.45673C2.00231 5.85216 1.93035 6.27694 1.94974 6.7025C1.93162 7.10577 2.00037 7.50823 2.15134 7.88262C2.3023 8.25701 2.53195 8.59459 2.82474 8.8725C3.67639 9.54298 4.65155 10.0395 5.69474 10.3337C6.72591 10.6501 7.71355 11.0939 8.63474 11.655C9.20781 12.0306 9.67961 12.5414 10.0085 13.1425C10.3284 13.7796 10.4848 14.4862 10.4635 15.1988C10.4822 15.7641 10.3838 16.3272 10.1745 16.8527C9.96517 17.3782 9.64949 17.8548 9.24724 18.2525C8.3564 19.0644 7.20565 19.5328 6.00099 19.5738V21.7525H4.87224V19.565C3.53083 19.5553 2.24404 19.0324 1.27599 18.1038C0.838689 17.6206 0.50142 17.0555 0.283657 16.4413C0.0658937 15.827 -0.028052 15.1757 0.00724306 14.525H1.37224C1.337 15.0468 1.41144 15.5702 1.59078 16.0615C1.77012 16.5528 2.05037 17.0011 2.41349 17.3775C2.8097 17.7341 3.27293 18.0083 3.77619 18.1841C4.27945 18.3599 4.81266 18.4337 5.34474 18.4013C6.31097 18.4427 7.25935 18.1317 8.01349 17.5263C8.35136 17.2444 8.62011 16.8888 8.7991 16.4868C8.97809 16.0849 9.06255 15.6472 9.04599 15.2075Z" transform="translate(8.12769 3.6225)" fill="#FFD596"/>
</svg>
