<?xml version="1.0" encoding="UTF-8" standalone="no"?>
<svg
   xmlns:dc="http://purl.org/dc/elements/1.1/"
   xmlns:cc="http://creativecommons.org/ns#"
   xmlns:rdf="http://www.w3.org/1999/02/22-rdf-syntax-ns#"
   xmlns:svg="http://www.w3.org/2000/svg"
   xmlns="http://www.w3.org/2000/svg"
   id="svg2020"
   version="1.1"
   fill="none"
   viewBox="0 0 28 28"
   height="28"
   width="28">
  <metadata
     id="metadata2026">
    <rdf:RDF>
      <cc:Work
         rdf:about="">
        <dc:format>image/svg+xml</dc:format>
        <dc:type
           rdf:resource="http://purl.org/dc/dcmitype/StillImage" />
        <dc:title></dc:title>
      </cc:Work>
    </rdf:RDF>
  </metadata>
  <defs
     id="defs2024" />
  <path
     id="path2018"
     d="m 16.150391,5.4258456 c -0.902077,-0.044645 -1.804085,0.097946 -2.646485,0.4238281 -0.84493,0.3268568 -1.611673,0.8297871 -2.25,1.4726563 l -0.01172,0.011719 -0.01172,0.011719 C 10.101434,8.6454748 9.5586415,10.311599 9.5351562,12.021549 H 7.25 v 2.03125 h 2.2128906 v 0.890625 H 7.25 v 2.041015 h 2.1933594 c -0.03394,1.786731 0.5752346,3.527966 1.7773436,4.857422 l 0.0098,0.01367 0.01172,0.0098 c 0.644293,0.62697 1.411881,1.114741 2.253906,1.429687 0.837679,0.313326 1.732066,0.446523 2.625,0.398438 0.924687,-0.0047 1.846865,-0.124368 2.740234,-0.363282 l 0.40625,-0.109374 -0.208984,-2.28711 -0.595703,0.195313 c -0.764703,0.250372 -1.566521,0.375137 -2.371094,0.36914 h -0.01367 -0.01563 c -0.577186,0.03049 -1.154268,-0.06387 -1.691406,-0.277343 -0.531391,-0.211273 -1.008034,-0.537196 -1.404297,-0.949219 -0.74883,-0.932131 -1.109433,-2.09683 -1.097656,-3.28711 h 4.798828 v -0.5 -1.558593 h -4.830078 v -0.888672 h 4.890625 v -2.033203 h -4.779297 c 0.0201,-1.147317 0.353643,-2.2671279 1.070312,-3.1738285 0.395656,-0.4095035 0.872136,-0.733295 1.402344,-0.9414063 0.536855,-0.2107078 1.113776,-0.3021196 1.689453,-0.2675781 l 0.01367,0.00195 h 0.01172 c 0.817361,0.00646 1.630415,0.1337639 2.410156,0.3789063 L 19.136719,8.1875644 19.347656,5.900455 18.931641,5.7969394 C 18.021804,5.569961 17.087861,5.4469818 16.150391,5.4258456 Z m -0.04297,0.9980469 h 0.0078 0.0059 c 0.724329,0.015872 1.440163,0.1375794 2.148437,0.2871094 l -0.02344,0.2441406 C 17.559063,6.7879583 16.866572,6.6317251 16.158203,6.6250644 15.442218,6.584122 14.724313,6.6969971 14.056641,6.9590488 13.384641,7.2228145 12.778112,7.628592 12.279297,8.150455 L 12.263672,8.16608 12.25,8.1836581 c -0.981847,1.2301891 -1.463326,2.7855949 -1.349609,4.3554689 l 0.0332,0.464844 h 4.794922 v 0.0332 h -4.890625 v 2.888672 h 4.830078 v 0.05859 h -4.830078 v 0.660157 c -0.09968,1.545595 0.388113,3.074095 1.363281,4.277343 l 0.01172,0.01367 0.01367,0.01563 c 0.498272,0.522936 1.104254,0.932386 1.77539,1.199219 0.668626,0.265728 1.38692,0.380544 2.105469,0.34375 0.699036,0.0034 1.381596,-0.152385 2.058594,-0.320313 l 0.02344,0.244141 c -0.686693,0.152685 -1.38163,0.274642 -2.085937,0.277344 h -0.01172 l -0.01367,0.002 c -0.759388,0.04253 -1.520078,-0.0734 -2.232422,-0.339844 -0.70656,-0.264278 -1.348304,-0.675047 -1.890625,-1.199218 -1.065798,-1.185011 -1.623885,-2.741655 -1.544922,-4.333985 l 0.002,-0.01172 V 15.984439 H 8.25 v -0.04101 h 2.212891 V 13.052799 H 8.25 v -0.03125 h 2.246094 l -0.0332,-0.53125 c -0.09962,-1.633024 0.446145,-3.2370801 1.515625,-4.4746096 0.536739,-0.5368785 1.178558,-0.958474 1.886718,-1.2324219 0.713939,-0.2761866 1.477668,-0.3981756 2.242188,-0.359375 z"
     style="color:#000000;font-style:normal;font-variant:normal;font-weight:normal;font-stretch:normal;font-size:medium;line-height:normal;font-family:sans-serif;font-variant-ligatures:normal;font-variant-position:normal;font-variant-caps:normal;font-variant-numeric:normal;font-variant-alternates:normal;font-feature-settings:normal;text-indent:0;text-align:start;text-decoration:none;text-decoration-line:none;text-decoration-style:solid;text-decoration-color:#000000;letter-spacing:normal;word-spacing:normal;text-transform:none;writing-mode:lr-tb;direction:ltr;text-orientation:mixed;dominant-baseline:auto;baseline-shift:baseline;text-anchor:start;white-space:normal;shape-padding:0;clip-rule:nonzero;display:inline;overflow:visible;visibility:visible;opacity:1;isolation:auto;mix-blend-mode:normal;color-interpolation:sRGB;color-interpolation-filters:linearRGB;solid-color:#000000;solid-opacity:1;vector-effect:none;fill-opacity:1;fill-rule:nonzero;stroke:none;stroke-width:1;stroke-linecap:butt;stroke-linejoin:miter;stroke-miterlimit:4;stroke-dasharray:none;stroke-dashoffset:0;stroke-opacity:1;color-rendering:auto;image-rendering:auto;shape-rendering:auto;text-rendering:auto;enable-background:accumulate" />
</svg>
