<svg width="28" height="28" viewBox="0 0 28 28" fill="none" xmlns="http://www.w3.org/2000/svg">
<path d="M8.4175 10.5689H3.5875V10.7614C3.4959 12.1817 3.94264 13.5844 4.83875 14.6901C5.28725 15.1608 5.83228 15.5288 6.43643 15.769C7.04057 16.0091 7.68953 16.1157 8.33875 16.0814C9.19742 16.0878 10.0514 15.9548 10.8675 15.6876L10.9812 16.9301C10.1249 17.1591 9.24265 17.2767 8.35625 17.2801C7.52777 17.3265 6.69869 17.2004 5.9215 16.9097C5.1443 16.619 4.43594 16.1701 3.84125 15.5914C2.6797 14.3068 2.07547 12.6137 2.16125 10.8839V10.5689H0V9.52765H2.21375V7.63765H0V6.60515H2.21375C2.10584 4.8362 2.69652 3.09557 3.85875 1.75765C4.4476 1.16461 5.15477 0.702276 5.93421 0.400754C6.71364 0.0992321 7.54785 -0.0347114 8.3825 0.00764843C9.28555 0.0274361 10.1836 0.147761 11.06 0.366398L10.9462 1.6089C10.1192 1.3489 9.25815 1.21325 8.39125 1.2064C7.7431 1.16751 7.09426 1.27026 6.48983 1.50749C5.88541 1.74473 5.3399 2.11077 4.89125 2.58015C3.98777 3.71215 3.54411 5.14308 3.64875 6.58765H8.47875V7.62015H3.5875V9.51015H8.4175V10.5689Z" transform="translate(7.75 5.91608)" fill="white"/>
</svg>
