<svg width="21" height="21" viewBox="0 0 21 21" fill="none" xmlns="http://www.w3.org/2000/svg">
<path fill-rule="evenodd" clip-rule="evenodd" d="M9.36242 14.247L8.47327 13.3585L18.1133 3.72653L19.0024 4.61503L9.36242 14.247ZM7.61693 12.5018L6.72778 11.6133L16.3668 1.98135L17.2559 2.86986L7.61693 12.5018ZM6 15.225L6.73041 11.6107L9.36571 14.2451L6 15.225ZM20.5071 1.26223L19.6159 0.371718C19.1216 -0.123232 18.333 -0.122228 17.8467 0.364691L16.9656 1.24516L19.633 3.91167L20.5151 3.0312C21.0044 2.54027 20.9974 1.75216 20.5071 1.26223ZM18.1095 20.0031H1.0067V3.06432H13.927L14.9237 2.06839H0V21H19.1162V6.08723L18.1095 7.09319V20.0031Z" fill="white"/>
</svg>
