<?xml version="1.0" encoding="UTF-8" standalone="no"?>
<svg
   xmlns:dc="http://purl.org/dc/elements/1.1/"
   xmlns:cc="http://creativecommons.org/ns#"
   xmlns:rdf="http://www.w3.org/1999/02/22-rdf-syntax-ns#"
   xmlns:svg="http://www.w3.org/2000/svg"
   xmlns="http://www.w3.org/2000/svg"
   id="svg2176"
   version="1.1"
   fill="none"
   viewBox="0 0 21 21"
   height="21"
   width="21">
  <metadata
     id="metadata2182">
    <rdf:RDF>
      <cc:Work
         rdf:about="">
        <dc:format>image/svg+xml</dc:format>
        <dc:type
           rdf:resource="http://purl.org/dc/dcmitype/StillImage" />
        <dc:title></dc:title>
      </cc:Work>
    </rdf:RDF>
  </metadata>
  <defs
     id="defs2180" />
  <path
     id="path2174"
     d="m 18.728516,-0.49609375 c -0.449256,-0.001081 -0.897805,0.16885827 -1.236328,0.5078125 l -1.234376,1.23242185 0.07031,0.070312 -0.253906,0.2539063 H -0.5 V 21.5 H 19.615234 V 4.8808594 L 17.609375,6.8867188 V 19.503906 H 1.5058594 V 3.5644531 H 14.076172 L 6.7304688,10.902344 6.4257812,10.597656 6.2714844,11.361328 6.0195312,11.613281 6.1875,11.779297 5.3457031,15.935547 6.140625,15.705078 9.21875,14.808594 9.3632812,14.953125 9.6289062,14.6875 10.316406,14.488281 10.074219,14.246094 19.708984,4.6152344 19.673828,4.5800781 20.869141,3.3847656 C 21.548999,2.7026423 21.539594,1.585957 20.861328,0.90820312 L 19.96875,0.01757813 C 19.627533,-0.32408726 19.177772,-0.49501293 18.728516,-0.49609375 Z M 18.201172,0.71875 c 0.295553,-0.29592955 0.75438,-0.30070986 1.060547,0.005859 l 0.892578,0.89062502 c 0.302334,0.3021061 0.304601,0.7627633 0.0059,1.0625 L 19.632812,3.2050781 17.673828,1.2460938 Z M 0.5,2.5683594 h 0.005859 V 20.5 H 0.5 Z M 16.367188,2.6875 16.548828,2.8691406 7.6210938,11.792969 7.4394531,11.611328 Z M 17.921875,2.9082031 18.072266,3.0585938 8.4765625,12.648438 8.328125,12.5 Z m 0.191406,1.5253907 0.181641,0.1816406 -8.9296876,8.9218746 -0.1816406,-0.18164 z m 0.501953,2.8613281 V 20.5 h -0.0059 V 20.003906 7.3007812 Z m -11.5800778,5.3320311 0.5820313,0.582031 0.00195,-0.002 0.1503906,0.150391 -0.00391,0.002 0.6445312,0.642578 -1.7558593,0.511719 z"
     style="color:#000000;font-style:normal;font-variant:normal;font-weight:normal;font-stretch:normal;font-size:medium;line-height:normal;font-family:sans-serif;font-variant-ligatures:normal;font-variant-position:normal;font-variant-caps:normal;font-variant-numeric:normal;font-variant-alternates:normal;font-feature-settings:normal;text-indent:0;text-align:start;text-decoration:none;text-decoration-line:none;text-decoration-style:solid;text-decoration-color:#000000;letter-spacing:normal;word-spacing:normal;text-transform:none;writing-mode:lr-tb;direction:ltr;text-orientation:mixed;dominant-baseline:auto;baseline-shift:baseline;text-anchor:start;white-space:normal;shape-padding:0;clip-rule:evenodd;display:inline;overflow:visible;visibility:visible;opacity:1;isolation:auto;mix-blend-mode:normal;color-interpolation:sRGB;color-interpolation-filters:linearRGB;solid-color:#000000;solid-opacity:1;vector-effect:none;fill-opacity:1;fill-rule:evenodd;stroke:none;stroke-width:1;stroke-linecap:butt;stroke-linejoin:miter;stroke-miterlimit:4;stroke-dasharray:none;stroke-dashoffset:0;stroke-opacity:1;color-rendering:auto;image-rendering:auto;shape-rendering:auto;text-rendering:auto;enable-background:accumulate" />
</svg>
