<?xml version="1.0" encoding="UTF-8" standalone="no"?>
<svg
   xmlns:dc="http://purl.org/dc/elements/1.1/"
   xmlns:cc="http://creativecommons.org/ns#"
   xmlns:rdf="http://www.w3.org/1999/02/22-rdf-syntax-ns#"
   xmlns:svg="http://www.w3.org/2000/svg"
   xmlns="http://www.w3.org/2000/svg"
   id="svg2194"
   version="1.1"
   fill="none"
   viewBox="0 0 100 100"
   height="100"
   width="100">
  <metadata
     id="metadata2200">
    <rdf:RDF>
      <cc:Work
         rdf:about="">
        <dc:format>image/svg+xml</dc:format>
        <dc:type
           rdf:resource="http://purl.org/dc/dcmitype/StillImage" />
        <dc:title></dc:title>
      </cc:Work>
    </rdf:RDF>
  </metadata>
  <defs
     id="defs2198" />
  <path
     id="path2186"
     d="m 25,34.375 c -3.433275,0 -6.25,2.816725 -6.25,6.25 v 31.25 c 0,3.433212 2.816687,6.25 6.25,6.25 h 50 c 3.43325,0 6.25,-2.81675 6.25,-6.25 v -31.25 c 0,-3.433313 -2.816788,-6.25 -6.25,-6.25 z m 0,3.125 h 50 c 1.744287,0 3.125,1.380625 3.125,3.125 v 31.25 C 78.125,73.61925 76.74425,75 75,75 H 25 c -1.744375,0 -3.125,-1.380712 -3.125,-3.125 V 40.625 C 21.875,38.880587 23.255587,37.5 25,37.5 Z"
     style="color:#000000;font-style:normal;font-variant:normal;font-weight:normal;font-stretch:normal;font-size:medium;line-height:normal;font-family:sans-serif;font-variant-ligatures:normal;font-variant-position:normal;font-variant-caps:normal;font-variant-numeric:normal;font-variant-alternates:normal;font-feature-settings:normal;text-indent:0;text-align:start;text-decoration:none;text-decoration-line:none;text-decoration-style:solid;text-decoration-color:#000000;letter-spacing:normal;word-spacing:normal;text-transform:none;writing-mode:lr-tb;direction:ltr;text-orientation:mixed;dominant-baseline:auto;baseline-shift:baseline;text-anchor:start;white-space:normal;shape-padding:0;clip-rule:nonzero;display:inline;overflow:visible;visibility:visible;opacity:1;isolation:auto;mix-blend-mode:normal;color-interpolation:sRGB;color-interpolation-filters:linearRGB;solid-color:#000000;solid-opacity:1;vector-effect:none;fill:#ffd596;fill-opacity:1;fill-rule:nonzero;stroke:none;stroke-width:3.125;stroke-linecap:butt;stroke-linejoin:miter;stroke-miterlimit:4;stroke-dasharray:none;stroke-dashoffset:0;stroke-opacity:1;color-rendering:auto;image-rendering:auto;shape-rendering:auto;text-rendering:auto;enable-background:accumulate" />
  <path
     id="path2188"
     d="m 40.625,21.875 c -3.433275,0 -6.25,2.816725 -6.25,6.25 V 37.5 h 31.25 v -9.375 c 0,-3.433275 -2.816725,-6.25 -6.25,-6.25 z m 0,3.125 h 18.75 c 1.744412,0 3.125,1.380587 3.125,3.125 v 6.25 h -25 v -6.25 C 37.5,26.380587 38.880587,25 40.625,25 Z"
     style="color:#000000;font-style:normal;font-variant:normal;font-weight:normal;font-stretch:normal;font-size:medium;line-height:normal;font-family:sans-serif;font-variant-ligatures:normal;font-variant-position:normal;font-variant-caps:normal;font-variant-numeric:normal;font-variant-alternates:normal;font-feature-settings:normal;text-indent:0;text-align:start;text-decoration:none;text-decoration-line:none;text-decoration-style:solid;text-decoration-color:#000000;letter-spacing:normal;word-spacing:normal;text-transform:none;writing-mode:lr-tb;direction:ltr;text-orientation:mixed;dominant-baseline:auto;baseline-shift:baseline;text-anchor:start;white-space:normal;shape-padding:0;clip-rule:nonzero;display:inline;overflow:visible;visibility:visible;opacity:1;isolation:auto;mix-blend-mode:normal;color-interpolation:sRGB;color-interpolation-filters:linearRGB;solid-color:#000000;solid-opacity:1;vector-effect:none;fill:#ffd596;fill-opacity:1;fill-rule:nonzero;stroke:none;stroke-width:3.125;stroke-linecap:butt;stroke-linejoin:miter;stroke-miterlimit:4;stroke-dasharray:none;stroke-dashoffset:0;stroke-opacity:1;color-rendering:auto;image-rendering:auto;shape-rendering:auto;text-rendering:auto;enable-background:accumulate" />
  <path
     id="path2190"
     d="m 21.856689,35.919189 a 1.5626562,1.5626562 0 0 0 -1.47705,2.032471 l 2.410888,8.044434 c 0.989434,3.298073 4.039576,5.566406 7.48291,5.566406 h 39.453125 c 3.443522,0 6.49346,-2.268388 7.48291,-5.566406 l 2.41089,-8.044434 a 1.5626562,1.5626562 0 1 0 -2.990725,-0.90332 l -2.41699,8.050537 C 73.61585,47.088109 71.803666,48.4375 69.726562,48.4375 H 30.273437 c -2.07679,0 -3.889324,-1.349447 -4.486084,-3.338623 L 23.370361,37.04834 a 1.5626562,1.5626562 0 0 0 -1.513672,-1.129151 z"
     style="color:#000000;font-style:normal;font-variant:normal;font-weight:normal;font-stretch:normal;font-size:medium;line-height:normal;font-family:sans-serif;font-variant-ligatures:normal;font-variant-position:normal;font-variant-caps:normal;font-variant-numeric:normal;font-variant-alternates:normal;font-feature-settings:normal;text-indent:0;text-align:start;text-decoration:none;text-decoration-line:none;text-decoration-style:solid;text-decoration-color:#000000;letter-spacing:normal;word-spacing:normal;text-transform:none;writing-mode:lr-tb;direction:ltr;text-orientation:mixed;dominant-baseline:auto;baseline-shift:baseline;text-anchor:start;white-space:normal;shape-padding:0;clip-rule:nonzero;display:inline;overflow:visible;visibility:visible;opacity:1;isolation:auto;mix-blend-mode:normal;color-interpolation:sRGB;color-interpolation-filters:linearRGB;solid-color:#000000;solid-opacity:1;vector-effect:none;fill:#ffd596;fill-opacity:1;fill-rule:nonzero;stroke:none;stroke-width:3.125;stroke-linecap:round;stroke-linejoin:round;stroke-miterlimit:4;stroke-dasharray:none;stroke-dashoffset:0;stroke-opacity:1;color-rendering:auto;image-rendering:auto;shape-rendering:auto;text-rendering:auto;enable-background:accumulate" />
  <path
     id="circle2192"
     d="m 50,57.8125 c 2.570328,0 4.6875,2.117172 4.6875,4.6875 0,2.570328 -2.117172,4.6875 -4.6875,4.6875 -2.570327,0 -4.6875,-2.117172 -4.6875,-4.6875 0,-2.570328 2.117173,-4.6875 4.6875,-4.6875 z m 0,3.125 c -0.881452,0 -1.5625,0.681048 -1.5625,1.5625 0,0.881452 0.681048,1.5625 1.5625,1.5625 0.881452,0 1.5625,-0.681048 1.5625,-1.5625 0,-0.881452 -0.681048,-1.5625 -1.5625,-1.5625 z"
     style="color:#000000;font-style:normal;font-variant:normal;font-weight:normal;font-stretch:normal;font-size:medium;line-height:normal;font-family:sans-serif;font-variant-ligatures:normal;font-variant-position:normal;font-variant-caps:normal;font-variant-numeric:normal;font-variant-alternates:normal;font-feature-settings:normal;text-indent:0;text-align:start;text-decoration:none;text-decoration-line:none;text-decoration-style:solid;text-decoration-color:#000000;letter-spacing:normal;word-spacing:normal;text-transform:none;writing-mode:lr-tb;direction:ltr;text-orientation:mixed;dominant-baseline:auto;baseline-shift:baseline;text-anchor:start;white-space:normal;shape-padding:0;clip-rule:nonzero;display:inline;overflow:visible;visibility:visible;opacity:1;isolation:auto;mix-blend-mode:normal;color-interpolation:sRGB;color-interpolation-filters:linearRGB;solid-color:#000000;solid-opacity:1;vector-effect:none;fill-opacity:1;fill-rule:nonzero;stroke:none;stroke-width:3.125;stroke-linecap:butt;stroke-linejoin:miter;stroke-miterlimit:4;stroke-dasharray:none;stroke-dashoffset:0;stroke-opacity:1;color-rendering:auto;image-rendering:auto;shape-rendering:auto;text-rendering:auto;enable-background:accumulate" />
</svg>
