<?xml version="1.0" encoding="UTF-8" standalone="no"?>
<svg
   xmlns:dc="http://purl.org/dc/elements/1.1/"
   xmlns:cc="http://creativecommons.org/ns#"
   xmlns:rdf="http://www.w3.org/1999/02/22-rdf-syntax-ns#"
   xmlns:svg="http://www.w3.org/2000/svg"
   xmlns="http://www.w3.org/2000/svg"
   id="svg2260"
   version="1.1"
   fill="none"
   viewBox="0 0 23 23"
   height="23"
   width="23">
  <metadata
     id="metadata2266">
    <rdf:RDF>
      <cc:Work
         rdf:about="">
        <dc:format>image/svg+xml</dc:format>
        <dc:type
           rdf:resource="http://purl.org/dc/dcmitype/StillImage" />
        <dc:title></dc:title>
      </cc:Work>
    </rdf:RDF>
  </metadata>
  <defs
     id="defs2264" />
  <path
     id="path2258"
     d="M 11.5,0 C 5.1545795,0 0,5.1547109 0,11.5 0,17.845318 5.1545812,23 11.5,23 17.845419,23 23,17.845318 23,11.5 23,5.1547109 17.84542,0 11.5,0 Z m 0,1 C 17.30498,1 22,5.6951491 22,11.5 22,17.304882 17.304981,22 11.5,22 5.6950188,22 1,17.304882 1,11.5 1,5.6951491 5.6950205,1 11.5,1 Z m 0,0 C 5.7068339,1 1,5.7069553 1,11.5 1,17.293016 5.7068321,22 11.5,22 17.29312,22 22,17.293019 22,11.5 22,5.7069523 17.293119,1 11.5,1 Z m 0,1 C 16.752681,2 21,6.2473877 21,11.5 21,16.752581 16.75268,21 11.5,21 6.2472679,21 2,16.752584 2,11.5 2,6.2473847 6.2472661,2 11.5,2 Z m -1,2.5 v 6 H 5 v 2 h 5.5 v 5 h 2 v -5 H 18 v -2 h -5.5 v -6 z"
     style="color:#000000;font-style:normal;font-variant:normal;font-weight:normal;font-stretch:normal;font-size:medium;line-height:normal;font-family:sans-serif;font-variant-ligatures:normal;font-variant-position:normal;font-variant-caps:normal;font-variant-numeric:normal;font-variant-alternates:normal;font-feature-settings:normal;text-indent:0;text-align:start;text-decoration:none;text-decoration-line:none;text-decoration-style:solid;text-decoration-color:#000000;letter-spacing:normal;word-spacing:normal;text-transform:none;writing-mode:lr-tb;direction:ltr;text-orientation:mixed;dominant-baseline:auto;baseline-shift:baseline;text-anchor:start;white-space:normal;shape-padding:0;clip-rule:evenodd;display:inline;overflow:visible;visibility:visible;opacity:1;isolation:auto;mix-blend-mode:normal;color-interpolation:sRGB;color-interpolation-filters:linearRGB;solid-color:#000000;solid-opacity:1;vector-effect:none;fill-opacity:1;fill-rule:evenodd;stroke:none;stroke-width:1;stroke-linecap:butt;stroke-linejoin:miter;stroke-miterlimit:4;stroke-dasharray:none;stroke-dashoffset:0;stroke-opacity:1;color-rendering:auto;image-rendering:auto;shape-rendering:auto;text-rendering:auto;enable-background:accumulate" />
</svg>
