<svg width="93" height="93" viewBox="0 0 93 93" fill="none" xmlns="http://www.w3.org/2000/svg">
<path fill-rule="evenodd" clip-rule="evenodd" d="M21 11C21 16.5229 16.5229 21 11 21C5.47715 21 1 16.5229 1 11C1 5.47714 5.47715 1 11 1C16.5229 1 21 5.47714 21 11ZM22 11C22 17.0751 17.0751 22 11 22C4.92487 22 0 17.0751 0 11C0 4.92487 4.92487 0 11 0C17.0751 0 22 4.92487 22 11ZM10.5 10.5V4.5H11.5V10.5H17V11.5H11.5V16.5H10.5V11.5H5V10.5H10.5Z" transform="translate(15.84 15.84) scale(2.88)" fill="white"/>
</svg>
