<svg width="100" height="100" viewBox="0 0 100 100" fill="none" xmlns="http://www.w3.org/2000/svg">
<path d="M0 8C0 3.58172 3.58172 0 8 0C9.25516 0 10.4428 0.289057 11.5 0.804233" transform="translate(60.5553 86.4174) scale(3.125) rotate(-150)" stroke="white"/>
<path d="M3.02759 2.3206L0.853516 0.146526C0.658203 -0.0487861 0.341797 -0.0487861 0.146484 0.146526C-0.0488281 0.341839 -0.0488281 0.658245 0.146484 0.853558L3.14648 3.85356L3.47388 4.18095L3.82544 3.87968L7.32544 0.879681C7.53516 0.699993 7.55933 0.384319 7.37964 0.174603C7.19995 -0.0351143 6.88428 -0.0592842 6.67456 0.120403L4.03491 2.3831L3.02759 2.3206Z" transform="translate(28.4195 81.0345) scale(3.125 -3.125) rotate(37.8563)" fill="white"/>
<path d="M0 8C0 3.58172 3.58172 0 8 0C9.25516 0 10.4428 0.289057 11.5 0.804233" transform="translate(33.2115 18.8908) scale(3.125) rotate(15)" stroke="white"/>
<path d="M3.02759 2.3206L0.853516 0.146526C0.658203 -0.0487861 0.341797 -0.0487861 0.146484 0.146526C-0.0488281 0.341839 -0.0488281 0.658245 0.146484 0.853558L3.14648 3.85356L3.47388 4.18095L3.82544 3.87968L7.32544 0.879681C7.53516 0.699993 7.55933 0.384319 7.37964 0.174603C7.19995 -0.0351143 6.88428 -0.0592842 6.67456 0.120403L4.03491 2.3831L3.02759 2.3206Z" transform="translate(65.6456 15.773) scale(-3.125 3.125) rotate(52.8563)" fill="white"/>
</svg>
