<svg width="100" height="100" viewBox="0 0 100 100" fill="none" xmlns="http://www.w3.org/2000/svg">
<path d="M115.279 189.645L115.266 189.738L113.903 199.604L108.95 198.92L113.903 199.604C113.496 202.545 111.001 204.746 108.033 204.783L99.6637 204.885L99.6627 204.885L91.4581 204.988C88.3602 205.027 85.7422 202.701 85.4162 199.62L84.4879 190.848C84.4877 190.846 84.4875 190.844 84.4873 190.842C84.2041 188.235 83.9213 185.745 83.6957 183.841C83.659 183.531 83.624 183.238 83.5908 182.964C83.196 182.87 82.742 182.765 82.2153 182.645C71.7077 180.356 62.5179 176.443 52.472 170.052L47.1263 174.361L39.6208 180.41C37.2334 182.334 33.7794 182.149 31.6118 179.98L35.1483 176.445L31.6118 179.98L25.7513 174.116L25.7512 174.116L19.8867 168.248C17.7292 166.089 17.5361 162.655 19.4377 160.268L25.1346 153.117C25.1367 153.115 25.1388 153.112 25.1409 153.109C25.4941 152.662 25.844 152.218 26.1878 151.782C27.5642 150.037 28.8422 148.417 29.8373 147.162C29.6095 146.773 29.3561 146.359 29.0834 145.94L29.0727 145.923L29.0622 145.907C23.5186 137.225 19.4082 127.331 17.3381 117.491C17.2174 116.963 17.1126 116.51 17.0195 116.12C16.7728 116.09 16.5109 116.058 16.2348 116.026C14.3348 115.801 11.8192 115.518 9.15738 115.234L0.367613 114.303C-2.68419 113.979 -5 111.405 -5 108.336V100V91.6638C-5 88.5947 -2.684 86.0204 0.367949 85.6972L9.14601 84.7673C9.14887 84.767 9.15172 84.7667 9.15458 84.7664C11.7587 84.4831 14.2462 84.2003 16.149 83.9746C16.4441 83.9396 16.7242 83.9061 16.9879 83.8742C17.0236 83.7108 17.0614 83.5356 17.1017 83.3476C19.1635 73.4084 23.4947 62.6991 29.0622 53.9799L29.0727 53.9633L29.0834 53.9469C29.3646 53.5141 29.6273 53.0932 29.8635 52.7002C29.7863 52.6041 29.7071 52.5053 29.6259 52.404C28.4632 50.9545 26.8877 48.9903 25.142 46.778C25.1395 46.7749 25.137 46.7717 25.1346 46.7685L19.4377 39.6177C17.536 37.2306 17.7293 33.7964 19.8867 31.6377L25.6372 25.8838L25.6372 25.8837C27.381 24.139 29.0487 22.5284 30.3256 21.3398C30.9583 20.7509 31.5277 20.2353 31.9765 19.8504C32.1916 19.6659 32.4389 19.4597 32.6797 19.2788C32.79 19.1959 32.9893 19.0496 33.2338 18.9017C33.3515 18.8305 33.5761 18.6998 33.8695 18.5718L33.8801 18.5672C34.0582 18.4893 34.8412 18.1469 35.8974 18.1469C36.8611 18.1469 37.5902 18.4353 37.7378 18.4937C37.7429 18.4956 37.7472 18.4974 37.7509 18.4988C38.0102 18.6003 38.2122 18.7036 38.3186 18.76C38.5407 18.8776 38.7285 18.9957 38.839 19.0669C39.0785 19.221 39.3366 19.4027 39.5753 19.5751C40.0693 19.932 40.7134 20.4193 41.4477 20.9867C42.9199 22.1244 44.8774 23.68 46.9927 25.3958C47.5872 25.862 48.1744 26.3223 48.7449 26.7695C50.2244 27.9291 51.5917 29.0009 52.6846 29.8615C53.0756 29.6329 53.4907 29.3782 53.9121 29.1041L53.9286 29.0934L53.9451 29.0828C62.6645 23.5089 73.3757 19.1726 83.3149 17.1109L83.3169 17.1104C83.4987 17.0728 83.6684 17.0373 83.827 17.0038C83.8579 16.7502 83.8903 16.481 83.9241 16.1976C84.1494 14.3098 84.4319 11.8226 84.7146 9.16351L85.6453 0.368589C85.9683 -2.68364 88.5427 -5 91.612 -5H99.943H108.274C111.343 -5 113.918 -2.68362 114.241 0.36859L115.17 9.15215C115.17 9.15427 115.171 9.1564 115.171 9.15853C115.454 11.765 115.737 14.2548 115.962 16.1592C115.998 16.4552 116.031 16.7363 116.063 17.0008C116.226 17.0364 116.4 17.0741 116.588 17.1143C126.522 19.1775 137.226 23.512 145.941 29.0828L145.957 29.0934L145.974 29.1041C146.414 29.39 146.841 29.6571 147.24 29.8968C147.448 29.7288 147.668 29.5505 147.9 29.3625L148.127 29.1784C149.518 28.0507 151.26 26.6379 153.131 25.1602C153.134 25.1578 153.137 25.1553 153.14 25.1529L160.286 19.4535C162.674 17.5488 166.112 17.7423 168.271 19.9029L164.735 23.4374L168.271 19.9029L174.135 25.7701L174.135 25.7702L179.996 31.6343C182.162 33.8013 182.347 37.252 180.426 39.6385L174.379 47.1493L174.379 47.1495L170.073 52.497C176.567 62.6695 180.268 71.6785 182.655 82.3672C182.712 82.6146 182.766 82.8555 182.819 83.089C182.864 83.2878 182.908 83.4813 182.951 83.6688C183.534 83.744 184.157 83.8231 184.782 83.9018C187.237 84.2107 189.695 84.5087 189.976 84.5427C189.987 84.5441 189.995 84.545 189.999 84.5455M115.279 189.645L168.385 179.755L174.135 174.002C175.88 172.256 177.482 170.595 178.656 169.347C179.241 168.726 179.734 168.19 180.093 167.789C180.267 167.595 180.439 167.399 180.582 167.227C180.646 167.15 180.755 167.017 180.868 166.863C180.917 166.796 181.034 166.635 181.159 166.423C181.22 166.321 181.339 166.112 181.458 165.835L181.463 165.823C181.535 165.658 181.866 164.89 181.866 163.854C181.866 162.904 181.585 162.182 181.53 162.041L181.525 162.028C181.428 161.775 181.329 161.578 181.275 161.474C181.162 161.256 181.048 161.07 180.979 160.959C180.828 160.718 180.649 160.457 180.478 160.213C180.123 159.708 179.64 159.052 179.077 158.306C177.949 156.81 176.414 154.841 174.742 152.763C173.082 150.645 171.509 148.671 170.319 147.192C170.27 147.131 170.221 147.071 170.173 147.011C170.399 146.637 170.649 146.238 170.917 145.825L170.927 145.809L170.938 145.792C176.505 137.073 180.837 126.363 182.898 116.424C182.939 116.236 182.976 116.061 183.012 115.898C183.276 115.866 183.556 115.833 183.851 115.798C185.754 115.572 188.242 115.289 190.846 115.006C190.849 115.006 190.851 115.005 190.854 115.005L199.621 114.076C202.701 113.75 205.027 111.133 204.988 108.036L204.886 99.7103L204.886 99.7095L204.783 91.4723C204.745 88.4412 202.452 85.9146 199.439 85.5832L189.98 84.5433L189.999 84.5455M115.279 189.645L115.289 189.551M115.279 189.645L115.289 189.551M189.999 84.5455C189.999 84.5456 190 84.5456 190 84.5457M189.999 84.5455L190 84.5457M190 84.5457C190.001 84.5457 190.001 84.5458 190.001 84.5458L189.473 88.91M190 84.5457L189.475 88.8987M189.473 88.91L189.401 89.5096L189.473 88.9109M189.473 88.91L189.475 88.8987M189.473 88.91L189.473 88.9109M189.475 88.8987L189.955 84.5404L189.954 84.5403L189.473 88.9109M189.475 88.8987L189.473 88.9109M115.289 189.551C115.556 186.871 115.85 184.427 116.093 182.61C116.296 182.564 116.507 182.516 116.724 182.466C116.955 182.414 117.192 182.36 117.437 182.304C127.491 180.12 137.238 176.014 145.987 170.618L146.038 170.587M115.289 189.551L146.038 170.587M146.038 170.587L146.088 170.554M146.038 170.587L146.088 170.554M146.088 170.554C146.506 170.282 146.917 170.03 147.305 169.802C148.564 170.802 150.19 172.085 151.94 173.468C152.369 173.807 152.806 174.151 153.247 174.5C153.249 174.501 153.252 174.503 153.254 174.505L160.4 180.205L163.518 176.296M146.088 170.554L163.518 176.296M163.518 176.296L160.4 180.205C162.788 182.109 166.226 181.916 168.385 179.755L163.518 176.296ZM168.402 49.9724C168.403 49.9742 168.404 49.9759 168.406 49.9776L168.402 49.9724ZM55.0554 31.7509C55.0387 31.7369 55.0207 31.7219 55.0015 31.706C55.0216 31.7224 55.0371 31.7355 55.0479 31.7445L55.0554 31.7509ZM31.5356 54.8061C31.5448 54.8183 31.5534 54.8298 31.5615 54.8406L31.5356 54.8061ZM16.5486 114.364C16.5498 114.367 16.551 114.37 16.5524 114.374C16.5418 114.349 16.541 114.344 16.5486 114.364ZM31.7368 144.794C31.7246 144.808 31.7116 144.824 31.6979 144.84C31.7119 144.823 31.7232 144.81 31.7314 144.8L31.7368 144.794ZM85.4307 183.451C85.4637 183.463 85.4557 183.462 85.4162 183.445C85.4215 183.447 85.4264 183.449 85.4307 183.451ZM144.934 167.898C144.949 167.911 144.966 167.925 144.983 167.939C144.965 167.924 144.951 167.913 144.941 167.904L144.934 167.898ZM168.097 144.488C168.014 144.395 167.936 144.311 167.867 144.242C167.948 144.324 168.025 144.406 168.097 144.488Z" transform="translate(18.75 81.25) scale(0.3125 -0.3125)" stroke="white" stroke-width="10"/>
<circle cx="5" cy="5" r="4.5" transform="translate(34.375 34.375) scale(3.125)" stroke="white"/>
</svg>
