<?xml version="1.0" encoding="UTF-8" standalone="no"?>
<svg
   xmlns:osb="http://www.openswatchbook.org/uri/2009/osb"
   xmlns:dc="http://purl.org/dc/elements/1.1/"
   xmlns:cc="http://creativecommons.org/ns#"
   xmlns:rdf="http://www.w3.org/1999/02/22-rdf-syntax-ns#"
   xmlns:svg="http://www.w3.org/2000/svg"
   xmlns="http://www.w3.org/2000/svg"
   id="svg5660"
   version="1.1"
   fill="none"
   viewBox="0 0 93 93"
   height="93"
   width="93">
  <metadata
     id="metadata5666">
    <rdf:RDF>
      <cc:Work
         rdf:about="">
        <dc:format>image/svg+xml</dc:format>
        <dc:type
           rdf:resource="http://purl.org/dc/dcmitype/StillImage" />
        <dc:title></dc:title>
      </cc:Work>
    </rdf:RDF>
  </metadata>
  <defs
     id="defs5664">
    <linearGradient
       osb:paint="solid"
       id="linearGradient6310">
      <stop
         id="stop6308"
         offset="0"
         style="stop-color:#000000;stop-opacity:1;" />
    </linearGradient>
  </defs>
  <path
     id="path5656"
     d="m 43.882812,14.306641 c -1.881399,-0.02369 -3.495375,1.410124 -3.693359,3.28125 l -0.267578,2.523437 c -0.001,0.0099 -0.0016,0.02039 0,0.0059 v 0.002 l -0.002,0.0078 c -0.03782,0.347843 -0.07285,0.637512 -0.107422,0.9375 -2.422738,0.623789 -4.694266,1.576001 -6.988281,2.908203 l -0.515625,-0.416015 -2.16211,-1.742188 C 29.16259,21.021533 27.87969,20.867896 26.755859,21.216797 l -0.05078,0.01563 -1.40625,0.794922 -0.04883,0.04883 -1.017578,1.019531 -0.248047,0.248047 -2.111328,2.111328 c -1.310614,1.311524 -1.42869,3.428762 -0.273438,4.878906 l 1.611329,2.025391 0.08398,0.103516 0.002,0.002 c -0.0071,-0.0087 -0.0063,-0.007 0.0039,0.0059 0.07862,0.0996 0.157675,0.199076 0.236328,0.298828 v 0.002 c 0.09102,0.115396 0.165336,0.207528 0.242188,0.304688 -1.286017,2.184953 -2.27046,4.557413 -2.886719,6.984375 -0.300265,0.03437 -0.588174,0.06777 -0.941406,0.105469 -7.24e-4,7.7e-5 -0.0012,-7.8e-5 -0.002,0 l -2.529297,0.267578 c -1.853535,0.196783 -3.28125,1.784239 -3.28125,3.648437 v 2.400391 2.40039 c 0,1.864299 1.427273,3.452102 3.28125,3.648438 l 2.52539,0.267578 c 0.350474,0.03813 0.639929,0.07282 0.941407,0.107422 0.629287,2.416888 1.621954,4.838903 2.896484,7.015625 -0.163837,0.204735 -0.319901,0.40099 -0.521484,0.65625 -0.002,0.0025 -0.0039,0.0033 -0.0059,0.0059 l -0.002,0.002 c -0.0017,0.0021 -0.0022,0.0037 -0.0039,0.0059 l -0.002,0.002 c -0.0014,0.0017 -0.0045,0.0046 -0.0039,0.0039 l -0.0098,0.01172 -1.634766,2.054687 c -1.155265,1.450143 -1.037197,3.565529 0.273438,4.876954 l 1.087891,1.089843 0.568359,0.56836 c 0.517176,0.517443 1.009324,0.993461 1.400391,1.357422 l 0.144531,0.134765 h 0.0059 c 0.132686,0.121859 0.267095,0.24674 0.384766,0.347656 v -0.002 c 0.07621,0.06537 0.175154,0.151233 0.298828,0.244141 0.05065,0.03807 0.167421,0.123134 0.322266,0.216797 0.06854,0.04146 0.216302,0.129424 0.412109,0.214844 l 0.08008,0.04102 h 0.117187 c 0.15717,0.06528 0.534461,0.242188 1.16211,0.242188 0.660812,0 1.182543,-0.211384 1.230469,-0.230469 0.0043,-0.0016 0.0097,-0.0039 0.0098,-0.0039 0.009,-0.0035 0.01077,-0.0043 0.01953,-0.0078 l 0.01367,-0.0078 0.0078,-0.0039 c 0.08754,-0.03608 0.140005,-0.06151 0.197266,-0.08984 h 0.01758 l 0.109375,-0.05859 c 0.136925,-0.07254 0.24022,-0.139143 0.291015,-0.171875 l 0.04492,-0.0293 0.0059,-0.0059 c 0.04029,-0.02673 0.07203,-0.04952 0.107421,-0.07422 h 0.0098 l 0.128906,-0.0957 h 0.002 c 0.172248,-0.124444 0.369376,-0.273001 0.589844,-0.443359 l 0.19336,-0.150391 v -0.0039 c 0.409914,-0.319395 0.880802,-0.691094 1.416015,-1.125 l 0.0039,-0.0039 c 0.0016,-0.0013 -0.0019,0.0025 0.0039,-0.002 l 0.0059,-0.0059 0.002,-0.002 0.0039,-0.0039 0.0078,-0.0059 c 0.160261,-0.125659 0.320078,-0.249961 0.474609,-0.371094 0.04243,-0.03325 0.07615,-0.05873 0.113282,-0.08789 2.176411,1.275781 4.596899,2.270678 7.013671,2.90039 0.03419,0.297529 0.06798,0.582928 0.105469,0.935547 l 0.269531,2.533203 c 0.196196,1.853976 1.782106,3.28125 3.646485,3.28125 h 2.40039 2.398438 c 1.864333,0 3.452153,-1.427055 3.648437,-3.28125 l 0.267579,-2.533203 v -0.002 c 0.03763,-0.346415 0.07122,-0.635108 0.105468,-0.933594 2.416855,-0.62987 4.837182,-1.624466 7.013672,-2.90039 0.203906,0.164958 0.402638,0.325751 0.642578,0.515625 8e-4,6.33e-4 0.0012,0.0013 0.002,0.002 0.0029,0.0026 0.0063,0.0046 0.0078,0.0059 8.03e-4,6.35e-4 0.0011,0.0013 0.002,0.002 0.0024,0.002 0.0041,0.0045 0.0059,0.0059 l 0.119141,0.121093 h 0.0332 l 1.921875,1.533204 c 0.88348,0.704674 1.996026,0.832041 3.025391,0.611328 l 0.484375,0.484375 1.373047,-1.371094 1.017578,-1.017578 1.091797,-1.09375 1.267578,-1.267578 c 1.315841,-1.316449 1.428572,-3.442974 0.261719,-4.892578 L 69.568359,60.882812 68.833984,59.96875 c 1.344206,-2.316219 2.275869,-4.582589 2.90625,-7.019531 0.296847,-0.03667 0.630686,-0.07728 0.685547,-0.08398 l 0.0098,-0.002 c 0.0017,-2.03e-4 0.02225,-0.0018 0.02344,-0.002 h 0.0039 l 0.002,-0.002 1.908203,-0.189453 -0.002,-0.01953 0.798828,-0.08789 c 1.830743,-0.201363 3.242536,-1.75785 3.265625,-3.599609 l 0.0293,-2.384766 0.0293,-2.386719 c 8e-6,-6.63e-4 -8e-6,-0.0013 0,-0.002 v -0.0039 C 78.51438,42.306942 77.081362,40.697768 75.212891,40.5 l -2.523438,-0.267578 c -0.01121,-0.0012 -0.01896,-0.0028 -0.0293,-0.0039 h -0.0039 l -0.04102,-0.0059 h -0.0078 l -0.01367,-0.002 c -0.309374,-0.03382 -0.572128,-0.06457 -0.841797,-0.0957 -0.627763,-2.412155 -1.619908,-4.826449 -2.890625,-7 0.155253,-0.194534 0.305229,-0.382519 0.486328,-0.613281 l 0.0078,-0.0098 c 0.0019,-0.0024 0.0039,-0.0034 0.0059,-0.0059 0.0036,-0.0045 0.0062,-0.0072 0.0098,-0.01172 h -0.002 c 0.486968,-0.605582 0.933553,-1.176822 1.271484,-1.625 0.159561,-0.211428 0.297274,-0.398647 0.416016,-0.566406 l 0.02734,-0.02734 0.02148,-0.04492 c 0.05224,-0.07475 0.113339,-0.157774 0.179687,-0.263672 v -0.002 l 0.002,-0.0039 c 5.22e-4,-8.39e-4 0.0033,-0.005 0.0039,-0.0059 9.09e-4,-0.0015 0.0048,-0.0081 0.0059,-0.0098 0.02695,-0.04333 0.08402,-0.135685 0.150391,-0.263672 v -0.002 l 0.05664,-0.107422 v -0.01758 c 0.02607,-0.05416 0.05104,-0.10259 0.08398,-0.183594 0.001,-0.0021 0.0013,-0.0058 0.0059,-0.01563 0.0013,-0.0028 0.0045,-0.0095 0.0078,-0.01758 0.0012,-0.0027 0.0039,-0.0078 0.0039,-0.0078 v -0.002 c 1.89e-4,-4.59e-4 0.0019,-0.0018 0.002,-0.002 1.6e-5,-4.1e-5 -1.7e-5,-0.0019 0,-0.002 l 0.0332,-0.08398 v -0.0918 -0.002 c 0.05304,-0.143446 0.195313,-0.481274 0.195313,-1.044922 0,-0.701469 -0.235318,-1.225905 -0.271485,-1.308594 l 0.0059,-0.002 -0.0059,-0.01953 -0.0059,-0.0098 -0.002,-0.002 c -2.85e-4,-6.34e-4 2.93e-4,-0.0013 0,-0.002 -3.16e-4,-6.88e-4 3.24e-4,-0.0013 0,-0.002 -0.0035,-0.0075 -0.0057,-0.0081 -0.0098,-0.01563 -0.06773,-0.152886 -0.130135,-0.269506 -0.173828,-0.34375 l -0.0078,-0.01563 -0.0078,-0.01367 c -0.07141,-0.119723 -0.125094,-0.193112 -0.15625,-0.236328 l -0.06055,-0.119141 -0.04687,-0.02344 c -0.02598,-0.03289 -0.06151,-0.08001 -0.07617,-0.09766 -0.0674,-0.08107 -0.129961,-0.152643 -0.1875,-0.216797 -0.118884,-0.132791 -0.269141,-0.295383 -0.445312,-0.482421 -5.06e-4,-5.38e-4 -0.0014,-0.0014 -0.002,-0.002 -0.352835,-0.375038 -0.824841,-0.863606 -1.341796,-1.38086 l -1.517578,-1.517578 -0.285157,-0.285156 -0.279297,-0.279297 -0.224609,-0.04297 c -0.239089,-0.172284 -0.401829,-0.368673 -0.652344,-0.589844 -0.270985,-0.239243 -0.740378,-0.437782 -1.263672,-0.33789 l -1.060547,0.132812 -3.849609,2.650391 C 57.85604,22.251097 55.980181,21.37489 52.664062,20.523438 L 52.441406,18.957031 52.326172,18.128906 52.234375,17.462891 51.59375,15.980469 51.5625,15.9375 c -0.654107,-0.914093 -1.699007,-1.557212 -2.90625,-1.572266 h -0.0039 l -2.416016,-0.0293 z m -0.01172,1 2.353515,0.0293 2.419922,0.0293 c 6.58e-4,9e-6 0.0013,-8e-6 0.002,0 0.850288,0.01128 1.592361,0.462241 2.083985,1.136719 l 0.533203,1.232422 0.07227,0.53125 0.115234,0.830078 0.3125,2.210938 0.328125,0.08008 c 3.675066,0.909985 5.363425,1.740519 7.582031,3.148437 l 0.279297,0.177735 4.171875,-2.873047 0.865234,-0.109375 0.01563,-0.002 c 0.28061,-0.05357 0.26154,-0.03091 0.416016,0.105468 0.154476,0.136382 0.393229,0.446314 0.816406,0.72461 l 0.08398,0.05664 0.148437,0.02734 0.353516,0.353516 1.509765,1.509765 c 0.509621,0.509916 0.977034,0.992403 1.322266,1.359375 2.55e-4,2.71e-4 -2.55e-4,0.0017 0,0.002 0.171958,0.182553 0.317465,0.339763 0.427734,0.46289 v 0.002 c 0.05658,0.06309 0.112875,0.123582 0.166016,0.1875 0.01859,0.02237 0.0557,0.07305 0.09766,0.128907 l -0.0039,-0.0098 0.02148,0.03125 0.002,0.002 0.0039,0.0078 0.06445,0.08594 -0.0098,-0.0059 c 0.02219,0.03238 0.03573,0.05045 0.06445,0.09766 l 0.0059,0.0078 c 0.0011,0.0018 8.86e-4,0.0021 0.002,0.0039 l 0.002,0.002 c 0.03035,0.05079 0.0826,0.145858 0.136719,0.269531 7.82e-4,0.0018 0.0012,0.0021 0.002,0.0039 v -0.0039 l 0.240234,-0.09961 -0.240234,0.103515 c 6.59e-4,0.0016 0.0012,0.0023 0.002,0.0039 v 0.002 c 1.38e-4,3.16e-4 0.0018,0.0036 0.002,0.0039 0.03245,0.07444 0.19336,0.448851 0.19336,0.9375 0,0.449714 -0.13357,0.793307 -0.160157,0.861328 -6.5e-5,1.56e-4 2e-6,0.0019 0,0.002 0,0 -0.0014,4.4e-4 -0.002,0.002 -2.94e-4,7.62e-4 2.94e-4,0.0012 0,0.002 -0.0455,0.117669 -0.09231,0.211548 -0.113281,0.251954 -0.05062,0.09762 -0.09659,0.168376 -0.123047,0.210937 l 0.0059,-0.0059 -0.0059,0.0098 -0.0098,0.01367 -0.002,0.002 c -0.04858,0.07663 -0.09528,0.144052 -0.140625,0.208985 -0.0063,0.0091 -0.01327,0.02036 -0.01953,0.0293 v 0.002 l -0.01367,0.01953 c -0.0011,0.0016 -0.0028,0.0042 -0.0039,0.0059 l -0.002,0.002 c -0.110336,0.15611 -0.243991,0.337048 -0.402344,0.546875 -0.32846,0.435618 -0.770399,1.001138 -1.25,1.597657 -0.003,0.0037 -0.0049,0.0061 -0.0078,0.0098 l -0.0039,0.0039 c -0.0023,0.0029 -0.0035,0.0049 -0.0059,0.0078 -0.258663,0.329893 -0.459717,0.581353 -0.69336,0.875 l -0.216796,0.273438 0.179687,0.296874 c 1.363033,2.25923 2.423053,4.848412 3.046875,7.384766 l 0.08203,0.337891 0.345703,0.03906 c 0.38325,0.04393 0.743688,0.08658 1.185547,0.134766 l 0.02734,0.0039 0.01172,0.002 h 0.002 c 0.01436,0.0016 0.02451,0.0024 0.03906,0.0039 l 2.521484,0.267579 c 1.356665,0.143596 2.40365,1.321227 2.386719,2.685547 v 0.002 0.002 l -0.0293,2.388672 -0.0293,2.376953 c -0.01675,1.336214 -1.046833,2.473056 -2.375,2.61914 l -1.802735,0.199219 0.002,0.0078 -0.892578,0.08984 -0.0293,0.002 c -0.06436,0.0078 -0.584766,0.07321 -1.035157,0.128906 l -0.341796,0.04297 -0.08203,0.333985 c -0.636868,2.59404 -1.598317,4.939375 -3.066406,7.404297 l -0.177734,0.296875 1.154296,1.435547 1.423829,1.767578 c 0.846572,1.051713 0.763102,2.603644 -0.191407,3.558594 l -1.265625,1.267578 -1.091797,1.09375 -1.017578,1.017578 -0.666015,0.666015 -0.142578,-0.142578 -0.28711,0.08789 c -0.837906,0.260231 -1.755398,0.147522 -2.457031,-0.41211 l -2.037109,-1.625 -0.01563,-0.0098 c 0.0044,0.0039 0.04301,0.04106 0.04297,0.04102 0,0 -0.22691,0.201515 -0.3125,0.277344 l 0.261719,-0.326172 -0.002,-0.002 v -0.002 c -0.0041,-0.0032 -0.0076,-0.0046 -0.01172,-0.0078 -0.002,-0.0015 -0.0057,-0.0048 -0.0098,-0.0078 -0.0014,-0.001 -0.0018,-3.93e-4 -0.0039,-0.002 l -0.107421,-0.08594 h 0.0039 C 60.622158,68.441189 60.369372,68.238093 60.113281,68.03125 l -0.271484,-0.21875 -0.300781,0.181641 c -2.262123,1.368826 -4.85698,2.432643 -7.398438,3.058593 l -0.33789,0.08203 -0.03906,0.345703 c -0.04654,0.406994 -0.09156,0.790003 -0.142578,1.259765 l -0.269531,2.535157 c -0.142394,1.345117 -1.299782,2.386718 -2.652344,2.386718 h -2.398438 -2.40039 c -1.352535,0 -2.510004,-1.041656 -2.652344,-2.386718 l -0.269531,-2.533203 c -0.05087,-0.478494 -0.09427,-0.856042 -0.140625,-1.261719 l -0.03906,-0.345703 -0.33789,-0.08203 c -2.540924,-0.625696 -5.136806,-1.690352 -7.398438,-3.058593 l -0.294922,-0.177735 -0.271484,0.212891 c -0.127951,0.100325 -0.226472,0.177505 -0.361328,0.283203 -0.158037,0.12388 -0.321463,0.251578 -0.486328,0.380859 l -0.0059,0.0059 c 0.0019,-0.0015 -6e-6,-0.0011 -0.01367,0.0098 l -0.002,0.002 -0.0039,0.002 c -0.60567,0.491074 -1.165652,0.938702 -1.59375,1.269531 -0.215962,0.166877 -0.406705,0.30986 -0.564453,0.423828 -0.07691,0.05554 -0.159825,0.115222 -0.253906,0.175781 -0.0429,0.02765 -0.117602,0.07532 -0.21875,0.128907 -0.04719,0.02501 -0.138025,0.07149 -0.259766,0.11914 l -0.0098,0.0039 h -0.0039 l -0.002,0.002 c -0.06417,0.02545 -0.412264,0.160156 -0.861328,0.160156 -0.489427,0 -0.862546,-0.159199 -0.945313,-0.195313 l -0.0039,-0.002 c -1.59e-4,-6.9e-5 -0.0018,6.8e-5 -0.002,0 -6.58e-4,-2.87e-4 -0.0072,-0.0017 -0.0078,-0.002 l -0.002,-0.002 -0.09375,-0.04102 h 0.01563 c -0.08681,-0.04274 -0.176703,-0.08826 -0.214843,-0.111328 -0.112613,-0.06812 -0.194357,-0.127143 -0.238282,-0.160156 -0.09823,-0.07379 -0.179203,-0.1424 -0.25,-0.203125 -0.146042,-0.125249 -0.315459,-0.279677 -0.503906,-0.455078 -0.378811,-0.352555 -0.865202,-0.821971 -1.375,-1.332031 l -0.27539,-0.275391 -1.38086,-1.380859 c -0.950813,-0.951386 -1.037393,-2.496713 -0.199219,-3.548829 l 1.621094,-2.035156 0.0039,-0.0059 0.01172,-0.01367 c 0.0057,-0.0069 0.008,-0.01005 0.0078,-0.0098 l 0.0039,-0.0039 0.002,-0.002 c 0.285002,-0.361102 0.490933,-0.617782 0.732422,-0.919922 l 0.216797,-0.271484 -0.179688,-0.298829 c -1.36775,-2.263063 -2.431274,-4.859979 -3.05664,-7.402343 l -0.08203,-0.337891 -0.345703,-0.03906 c -0.408549,-0.0468 -0.79215,-0.09128 -1.263672,-0.142578 L 17.525391,51.537109 C 16.18054,51.39469 15.138672,50.235184 15.138672,48.882812 v -2.40039 -2.400391 c 0,-1.35234 1.042119,-2.511546 2.386719,-2.654297 l 2.53125,-0.267578 c 0.288856,-0.03082 0.518903,-0.058 0.763671,-0.08594 l -0.732421,0.908203 h 0.228515 l -0.0332,0.07227 0.04297,0.01562 -0.01563,0.04492 0.873047,0.44336 0.05469,-0.134766 0.740235,0.28711 -0.0059,0.02539 -0.01367,-0.0059 c 0,0 0.0095,0.0079 0.01172,0.0098 l -0.01367,0.06055 0.07617,0.0293 c -0.509683,0.05936 -1.094219,0.127003 -1.751953,0.197266 -0.0095,0.001 -0.01588,9.38e-4 -0.02539,0.002 l -2.533203,0.269531 c -0.36415,0.03868 -0.705078,0.417104 -0.705078,0.783203 v 2.400391 2.40039 c 0,0.366658 0.34067,0.744612 0.705078,0.783204 l 2.503906,0.265625 0.0078,0.002 h 0.01172 l 0.0098,0.002 c 0.752929,0.08191 1.471546,0.163053 2.023438,0.228515 0.08565,0.01015 0.167398,0.02002 0.244141,0.0293 l 0.664062,0.08008 0.142578,0.652343 c 0.01043,0.04777 0.02122,0.09843 0.0332,0.154297 v 0.002 l 0.002,0.01172 c 1.21e-4,5.82e-4 -1.21e-4,0.0014 0,0.002 l 0.002,0.0078 c 0.569469,2.734813 1.780209,5.724844 3.3125,8.125 l 0.002,0.0039 c 0,0 0.419922,-0.271484 0.419921,-0.271484 l -0.390624,0.318359 c 0.07546,0.117212 0.147682,0.2333 0.21289,0.341797 l 0.337891,0.560547 -0.328125,0.410156 -0.08203,0.101562 c -0.02052,0.02555 -0.04382,0.05338 -0.06836,0.08398 l -0.109375,0.136718 c -0.319188,0.397991 -0.709613,0.884886 -1.158203,1.453126 v 0.002 h -0.002 v 0.002 l -0.002,0.002 -0.0039,0.002 -0.0098,0.01563 -0.0039,0.0059 c 1.9e-5,-2.4e-5 -0.0018,0.0018 -0.002,0.002 -0.0054,0.0076 -0.02917,0.04277 -0.0293,0.04297 -1.02e-4,1.62e-4 0.0122,-0.02013 0.02148,-0.0332 l -1.632813,2.050781 c -0.227874,0.286035 -0.199083,0.789046 0.05859,1.046875 l 1.65625,1.658203 c 0.494961,0.495216 0.969593,0.953237 1.326172,1.285157 0.159276,0.14825 0.292975,0.266283 0.402344,0.361328 v 0.01758 l 0.199219,0.150391 c 0.01401,0.01053 0.02649,0.01794 0.03711,0.02539 -3.83e-4,4.79e-4 -0.0078,0.0098 -0.0078,0.0098 0,0 0.0293,0.02344 0.0293,0.02344 0,0 0.0074,-0.01108 0.0078,-0.01172 0.0056,0.0035 0.0086,0.0055 0.01563,0.0098 h 0.002 c 0.02017,0.0121 0.04493,0.02528 0.07227,0.03711 l 0.002,0.002 0.02539,0.01367 0.02344,0.0059 c 0.0065,0.0024 0.0053,0.0024 0.01563,0.0059 0.0107,0.0036 0.06213,0.01555 0.0625,0.01563 2.4e-5,5e-6 0.01356,0.0017 0.01758,0.002 -10e-6,1.34e-4 -1e-6,0.0059 0,0.0059 6.1e-5,5e-6 0.06242,4e-6 0.0625,0 3.4e-5,-2e-6 0.0082,-0.0018 0.0098,-0.002 0.01998,0.0013 0.04489,0.0039 0.04492,0.0039 0,0 2.7e-5,-0.0094 0,-0.0098 0.01913,-0.0026 0.03393,-0.0041 0.04102,-0.0059 0.0045,-0.0011 0.0019,-9.55e-4 0.0059,-0.002 h 0.417968 v -0.234375 c 0.12685,-0.09193 0.299731,-0.222649 0.501953,-0.378906 0.414971,-0.320686 0.975278,-0.765282 1.580079,-1.25586 l 0.002,-0.002 0.0059,-0.0059 0.0039,-0.002 c 0.171714,-0.134657 0.340024,-0.268022 0.503906,-0.396485 0.425884,-0.333799 0.81916,-0.641688 1.132813,-0.888672 l 0.261719,-0.205078 -0.277344,-0.330078 0.0078,-0.0078 0.275391,0.333984 0.236328,-0.1875 0.552735,0.324219 c 0.111942,0.06545 0.231083,0.139292 0.351562,0.216797 0.01329,0.0085 0.02571,0.01475 0.03906,0.02344 l 0.0078,0.0059 c 7.13e-4,4.55e-4 0.0012,0.0015 0.002,0.002 2.40395,1.53577 5.399386,2.746643 8.136719,3.314453 l 0.0039,0.002 0.01172,0.002 h 0.0039 l 0.01563,0.0039 c 0.0442,0.0092 0.08323,0.01667 0.115235,0.02344 l 0.658203,0.140625 0.08203,0.666015 c 0.0076,0.06207 0.01509,0.130869 0.02344,0.201172 v 0.0039 c 0.0012,0.01028 0.0027,0.01887 0.0039,0.0293 0.06546,0.548496 0.148643,1.269402 0.230468,2.039063 l 0.267579,2.533203 c 0.0391,0.364038 0.416671,0.705078 0.783203,0.705078 h 2.40039 2.398438 c 0.366981,0 0.744472,-0.339061 0.783203,-0.705078 L 49.744141,72.619141 49.75,72.5625 h 0.002 l 0.002,-0.01758 v -0.002 c 3.12e-4,-0.0029 -3.11e-4,-0.0049 0,-0.0078 0.08042,-0.74051 0.160119,-1.443554 0.22461,-1.990234 l 0.0078,-0.02734 v -0.03516 c 0.0085,-0.07009 0.01706,-0.140117 0.02539,-0.208984 l 0.08008,-0.66211 0.652344,-0.142578 c 0.04966,-0.01085 0.100053,-0.02356 0.154297,-0.03516 h 0.0039 0.002 c 0.0013,-2.79e-4 0.0026,-0.0017 0.0039,-0.002 h 0.0059 c 2.730992,-0.568532 5.71821,-1.779282 8.117188,-3.310547 l 0.0078,-0.0039 c 8.46e-4,-5.5e-4 0.0017,-0.0018 0.002,-0.002 l 0.0059,-0.002 v -0.002 l 0.01563,-0.0098 h 0.002 c 0.129498,-0.08389 0.255261,-0.164395 0.375,-0.236328 l 0.5625,-0.33789 0.511719,0.414062 c 0.0018,0.0014 0.0041,0.0025 0.0059,0.0039 0.06037,0.04875 0.121774,0.09871 0.185547,0.150391 l 0.06641,0.05273 c 0.396872,0.321747 0.891039,0.722306 1.417969,1.138671 l 0.0039,0.0039 c 7.96e-4,6.28e-4 0.0012,0.0013 0.002,0.002 l 0.002,0.002 c 0.002,0.0016 0.0038,0.0023 0.0059,0.0039 l 0.002,0.002 0.002,0.002 c 0.0012,9.92e-4 0.0077,0.0054 0.01367,0.0098 l 2.046875,1.632812 c 0.285461,0.22768 0.790435,0.20001 1.048828,-0.05859 l 1.017578,-1.019531 0.248047,-0.25 2.109375,-2.109376 c 0.25863,-0.258742 0.286446,-0.767257 0.05664,-1.052734 l -1.595703,-1.982422 0.01367,-0.01172 0.05469,0.05273 0.326172,-0.466797 0.002,-0.002 0.0039,-0.0059 c -8.1e-5,1.16e-4 0.002,-0.002 0.002,-0.002 -2.89e-4,6.78e-4 0.02514,-0.03279 0.04883,-0.06055 0.01226,-0.01437 0.02419,-0.02824 0.03516,-0.04102 0.0055,-0.0064 0.01075,-0.01129 0.01758,-0.01953 0.0034,-0.0041 0.0072,-0.0093 0.01367,-0.01758 0.0064,-0.0083 0.04465,-0.06591 0.04492,-0.06641 l 0.05469,-0.09766 0.07813,-0.111328 -0.01172,-0.0078 0.103515,-0.189453 -1.363281,-0.894531 -0.132813,0.167969 -0.416015,-0.273438 -0.259766,0.326172 -0.412109,-0.511719 0.257812,-0.359375 -0.03516,-0.02148 0.128906,-0.201172 c 1.819005,-2.849376 2.829606,-5.313154 3.496094,-8.292969 l 0.002,-0.0078 v -0.0039 l 0.002,-0.0039 0.002,-0.0059 c 0.01514,-0.06583 0.02972,-0.132268 0.04492,-0.199219 l 0.03906,-0.169922 0.144531,-0.636718 0.650391,-0.08398 c 0.16926,-0.02183 0.349918,-0.04577 0.529297,-0.06836 0.03793,-0.0047 0.04333,-0.0049 0.08203,-0.0098 l 0.4375,-0.05664 0.06836,-0.0078 0.375,-0.04492 0.02148,0.154297 0.002,0.0918 0.0625,-0.01563 0.05664,0.429687 0.451172,-0.548828 h 0.41211 v -0.002 h 0.0098 v -0.04297 l 0.603516,-0.05469 -0.183594,-0.185547 0.04297,-0.0039 0.002,0.0078 0.339844,-0.03711 h -0.105469 l 0.226562,-0.02734 -0.01367,0.01563 1.345704,-0.146484 v -0.002 c 0.361689,-0.03978 0.698572,-0.410233 0.703125,-0.773438 l 0.0293,-2.363281 0.0293,-2.40625 c 0.0023,-0.184709 -0.06099,-0.386422 -0.195312,-0.537109 -0.134324,-0.150688 -0.326596,-0.236471 -0.509766,-0.25586 l -2.476562,-0.261719 h -0.002 l -0.04687,-0.0059 h -0.0039 -0.0039 c -0.751473,-0.08168 -1.468623,-0.16309 -2.019531,-0.228515 v -0.002 c -0.08448,-0.01002 -0.165844,-0.01785 -0.244141,-0.02734 l -0.662109,-0.08203 -0.144531,-0.65039 c -0.01118,-0.05059 -0.01949,-0.09843 -0.03125,-0.152344 l -0.002,-0.0098 -0.0039,-0.0078 v -0.002 c -0.567989,-2.73267 -1.776204,-5.722787 -3.30664,-8.123047 l -0.002,-0.0039 c 8.01e-4,0.0011 0.0014,0.0043 -0.0078,-0.0098 l -0.01758,-0.02734 0.0059,0.0059 c -0.07753,-0.119915 -0.15013,-0.235383 -0.216797,-0.345703 l -0.339843,-0.560547 0.134765,-0.167969 0.275391,-0.345703 c 0.01341,-0.01676 0.01759,-0.02332 0.02539,-0.0332 l 0.01758,-0.01953 c 0.340338,-0.422991 0.790517,-0.98951 1.265625,-1.595703 l 0.002,-0.002 0.002,-0.002 0.002,-0.002 0.002,-0.0039 c 0.467026,-0.580433 0.891799,-1.125579 1.207031,-1.542969 0.0029,-0.0038 0.0088,-0.0099 0.01172,-0.01367 0.0044,-0.0054 0.0073,-0.01024 0.01172,-0.01563 0.180281,-0.221444 0.33549,-0.453394 0.464844,-0.654297 0.01234,-0.0098 0.03507,-0.02724 0.03516,-0.02734 3.83e-4,-4.44e-4 0.08374,-0.138068 0.08398,-0.138671 2.47e-4,-6.04e-4 0.02619,-0.08147 0.03125,-0.113282 0.0074,-0.04629 -0.0075,-0.02 -0.0059,-0.05078 4.9e-4,-0.0037 0.0016,-0.0081 0.002,-0.01172 9.7e-5,-0.0012 -8e-5,-0.0053 0,-0.0078 0.0018,-0.01936 0.0059,-0.03708 0.0059,-0.0625 l 0.0059,-0.06836 -0.03516,-0.07227 c -0.0068,-0.03337 8.41e-4,-0.04594 -0.02148,-0.0957 -0.0087,-0.01943 -0.06281,-0.02674 -0.08008,-0.04883 -0.07791,-0.117076 -0.157854,-0.217672 -0.234375,-0.291016 4.6e-5,-4e-5 0.0039,-0.0039 0.0039,-0.0039 -3e-5,-4.1e-5 -0.01991,-0.02524 -0.02344,-0.0293 -0.01411,-0.01622 -0.01324,-0.01309 -0.01563,-0.01563 -0.0017,-0.0019 -0.0117,-0.01159 -0.01367,-0.01367 7.4e-4,7.48e-4 -0.001,-0.0029 0,-0.002 -5.69e-4,-6.01e-4 -0.0033,-0.0033 -0.0039,-0.0039 -9.06e-4,-8.56e-4 -0.0035,-0.0018 -0.0059,-0.0039 -0.0064,-0.0065 -0.01467,-0.01635 -0.02734,-0.0293 -0.0011,-0.0012 -0.0047,-0.0046 -0.0059,-0.0059 -0.04305,-0.04402 -0.114743,-0.117749 -0.220703,-0.226562 -0.0095,-0.0098 -0.0075,-0.0092 -0.01758,-0.01953 C 67.939299,26.7945 67.41007,26.248651 67.007812,25.837891 L 67,25.832031 l -0.0059,-0.0078 c 0,0 -0.520153,-0.500828 -0.898438,-0.769531 -0.15176,-0.107799 -0.455677,-0.316484 -0.707031,-0.476563 -0.125677,-0.08004 -0.221445,-0.14116 -0.335938,-0.195313 -0.02862,-0.01354 -0.05479,-0.02745 -0.121093,-0.04492 -0.03315,-0.0087 -0.07387,-0.02388 -0.169922,-0.01758 -0.02401,0.0016 -0.08346,0.01355 -0.08398,0.01367 -1.9e-5,5e-6 -0.0036,0.0018 -0.0039,0.002 -0.0055,4.98e-4 -0.0042,-0.0045 -0.0098,-0.0039 -0.146283,0.01625 -0.198786,0.05133 -0.257812,0.08008 -0.05903,0.02875 -0.109593,0.05654 -0.154297,0.08398 -0.08941,0.05489 -0.160156,0.107422 -0.160156,0.107422 L 61.070312,26.6875 c -0.391618,0.258228 -0.657108,0.456104 -0.833984,0.595703 -0.116347,0.09183 -0.137183,0.108732 -0.18164,0.144531 l -0.02734,-0.0059 c -0.0076,-0.0012 -0.217346,-0.03749 -0.535156,-0.208984 -0.02555,-0.01616 -0.270168,-0.17016 -0.390626,-0.248047 l -0.0059,-0.0039 -0.0039,-0.002 c -7.41e-4,-4.57e-4 -0.0012,-0.0015 -0.002,-0.002 l -0.002,-0.002 -0.01758,-0.0098 -0.01172,-0.0078 -0.03125,-0.01563 -0.002,0.0039 c -2.417597,-1.482244 -5.122322,-2.627145 -7.876953,-3.226562 l -0.01172,-0.002 -0.0059,-0.002 -0.0059,-0.002 c -0.06209,-0.01418 -0.122135,-0.02804 -0.179688,-0.04102 l -0.01172,-0.0039 h -0.0059 l -0.01953,-0.0039 c -0.05453,-0.01257 -0.108332,-0.02492 -0.162109,-0.03711 l -0.638672,-0.144531 -0.08594,-0.648438 c -0.07037,-0.526179 -0.155235,-1.229375 -0.232422,-2 v -0.0039 l -0.0059,-0.05273 v -0.0039 l -0.195312,-1.402344 -0.197266,-1.427734 c -0.04957,-0.354347 -0.414533,-0.675236 -0.771484,-0.679687 l -2.404297,-0.0293 -2.369141,-0.0293 c -0.184441,-0.0023 -0.386105,0.06099 -0.537109,0.195312 -0.151004,0.134321 -0.236472,0.326519 -0.25586,0.509766 l -0.267578,2.53125 v 0.0078 l -0.002,0.0098 v 0.0078 c -0.08081,0.743029 -0.161912,1.454349 -0.226562,2 l -0.0039,0.0293 v 0.002 c -0.0092,0.07823 -0.01896,0.153441 -0.02734,0.222656 l -0.06055,0.498047 -0.04297,0.05469 c -0.02249,0.01318 -0.02954,0.01981 -0.05664,0.0332 -0.13883,0.06858 -0.294922,0.121094 -0.294922,0.121094 l 0.0059,0.03125 -0.265625,0.06445 c -0.117262,0.02792 -0.251041,0.05732 -0.402344,0.0918 l -0.0078,0.002 -0.0039,0.002 c -2.9183,0.635732 -5.442033,1.706173 -8.261718,3.5 L 32.566406,27.462891 30.5,25.798828 28.339844,24.056641 c -0.28529,-0.229902 -0.792806,-0.202667 -1.050782,0.05469 L 26.75,24.650391 l -0.480469,0.480468 -0.945312,0.947266 -1.414063,1.414063 c -0.257582,0.257759 -0.286207,0.761148 -0.05859,1.046874 l 1.53711,1.931641 -0.0078,0.0078 0.02344,0.02539 0.0078,0.0098 c 0.116126,0.113557 0.116623,0.133958 0.117188,0.134766 l 0.0078,0.0098 0.002,-0.002 c 0.0875,0.110849 0.174523,0.221974 0.259766,0.330078 0.396373,0.502522 0.763472,0.970191 1.048828,1.330078 l 0.19336,0.242188 -0.154297,0.138672 -0.0098,0.0078 0.01563,0.01758 -0.09766,0.08594 -0.02344,0.01953 -0.0098,0.0098 0.283203,0.328125 -0.123047,0.208984 c -0.064,0.109286 -0.137026,0.226742 -0.214844,0.347656 l 0.0039,-0.002 -0.01563,0.02148 c -8.34e-4,0.0013 -0.0011,0.0026 -0.002,0.0039 l -0.002,0.0039 -0.002,0.0039 -0.0098,0.01367 c -1.535439,2.405164 -2.677313,5.158169 -3.248047,7.871094 l -0.002,0.0039 v 0.0078 l -0.002,0.0059 c -0.02551,0.111582 -0.04672,0.202909 -0.06836,0.294922 -0.299983,-0.02911 -0.632126,-0.06091 -0.830078,-0.08008 l -0.0059,0.02734 -0.03711,-0.03125 h -0.0059 l 0.002,-0.0039 C 22.35552,41.755742 22.095518,41.534604 21.849609,41.326172 l 0.238282,-0.34375 h -0.451172 l 0.03516,-0.0039 0.08008,-0.341797 c 0.610101,-2.556452 1.658826,-5.075941 3.044922,-7.361328 l 0.179687,-0.296875 -0.214843,-0.271485 c -0.152002,-0.192557 -0.274832,-0.347933 -0.439453,-0.55664 -0.07783,-0.09871 -0.157992,-0.199071 -0.238282,-0.300782 v -0.002 c 0.0033,0.0042 -0.003,-0.0036 -0.0078,-0.0098 l -0.0039,-0.0039 -0.07813,-0.09766 -1.613282,-2.02539 c -0.838049,-1.051972 -0.751477,-2.597472 0.199219,-3.548829 l 2.111328,-2.111328 0.248047,-0.248047 0.970703,-0.970703 1.167969,-0.662109 c 0.835372,-0.251484 1.745652,-0.138833 2.441406,0.421875 l 2.160157,1.742187 1.039062,0.837891 0.298828,-0.179687 c 2.442498,-1.453973 4.80551,-2.444414 7.375,-3.06836 l 0.339844,-0.08398 0.03906,-0.345703 c 0.04664,-0.407393 0.09128,-0.791631 0.142578,-1.263672 v -0.002 l 0.002,-0.0039 v -0.0039 c -2.12e-4,0.0017 7.02e-4,-0.0084 0,-0.002 v -0.002 l 0.267578,-2.523438 c 0.1436,-1.357152 1.322835,-2.403899 2.6875,-2.386718 z m -16.582032,8.804687 0.353516,-0.144531 h -0.208984 z m 38.027344,44.775391 -0.355468,0.146484 h 0.208984 z M 25.484375,62.408203 c 0.0023,-0.0032 0.0049,-0.0064 0.0059,-0.0078 z m 1.195313,-3.179687 -0.02344,-0.04102 0.01172,0.02344 0.002,0.0039 z M 44.027344,18.1875 l 2.18164,0.02734 2.216797,0.02734 0.171875,1.246093 0.19336,1.402344 0.0332,0.453125 h 0.01758 l -0.04687,-0.423828 c 0.07814,0.779404 0.162528,1.490101 0.234375,2.027344 l 0.179687,1.33789 1.314454,0.296875 c 0.05438,0.01232 0.111998,0.02571 0.169921,0.03906 l 0.0059,0.002 0.0098,0.002 0.0059,0.002 c 0.06169,0.01389 0.125971,0.02757 0.193359,0.04297 h 0.002 l 0.0078,0.002 0.0059,0.002 h 0.0039 c 2.649075,0.575451 5.279721,1.683198 7.621094,3.125 7.42e-4,4.57e-4 0.0012,0.0015 0.002,0.002 0.0025,0.0015 0.0053,0.0024 0.0078,0.0039 l 0.0078,0.0039 c 0.141249,0.09119 0.41211,0.263672 0.41211,0.263672 l 0.01367,0.0078 0.01367,0.0078 c 0.265322,0.145015 0.333492,0.139183 0.494141,0.185547 l -0.01172,0.05078 c 0.0036,8.93e-4 0.0043,0.0011 0.0078,0.002 0.185194,0.04661 0.273826,0.08196 0.408203,0.115234 0.136927,0.0339 0.436742,0.0029 0.580078,-0.08594 0.143336,-0.08888 0.212797,-0.162585 0.373047,-0.289063 0.16025,-0.126477 0.394777,-0.302929 0.771484,-0.550781 l 0.0039,-0.002 3.03711,-2.09375 0.0039,-0.0039 c 0,0 0.03443,-0.02292 0.05859,-0.03906 0.01716,0.0029 0.05366,0.0099 0.06445,0.01172 0.02572,0.01564 0.02712,0.01564 0.05469,0.0332 0.227204,0.144699 0.53455,0.353882 0.666016,0.447266 0.227541,0.161627 0.789063,0.683593 0.789063,0.683593 0.391899,0.400269 0.899853,0.919271 1.220703,1.25 0.0053,0.0055 0.01431,0.0161 0.01953,0.02148 0.0067,0.0084 0.01284,0.01142 0.01953,0.01953 l -0.002,0.002 c 0.04598,0.04722 0.06196,0.065 0.0957,0.09961 0.05853,0.06202 0.117708,0.129319 0.167969,0.177735 -0.08294,0.120158 -0.156202,0.23572 -0.246094,0.347656 l -0.03906,0.05078 c -0.308162,0.4087 -0.741167,0.964985 -1.210938,1.548828 l -0.0059,0.0078 -0.01172,0.01563 c -0.415235,0.529767 -0.788446,0.996849 -1.107422,1.394531 l -0.15039,0.1875 c -0.01401,0.01745 -0.02496,0.03217 -0.04297,0.05469 l -0.419922,0.523437 -0.08398,0.0957 -0.01367,0.01563 c 0.0021,-0.0021 0.0086,-0.0073 0.01563,-0.01367 0.0066,-0.0059 0.01224,-0.01239 0.01367,-0.01367 0,0 0.0017,-0.0018 0.002,-0.002 -2e-6,1e-6 0.0018,-0.0019 0.002,-0.002 h 0.002 c 0.0024,-0.0017 0.01395,-0.01035 0.02734,-0.01953 0,0 0.03827,0.05592 0.05664,0.08203 l 0.04883,-0.0039 c 0.06186,0.111069 0.144068,0.257466 0.166016,0.296875 l -0.02344,-0.02148 c 0.0062,0.0088 0.02519,0.03405 0.02734,0.03711 l -0.08203,-0.08984 -0.224609,-0.21289 0.0293,-0.002 -0.04297,-0.04687 -0.01563,0.02148 -0.0059,-0.0059 -0.0078,0.0078 c -0.0025,0.0027 -0.0047,0.0044 -0.0078,0.0078 -0.0022,0.0024 0.0078,-0.007 -0.002,0.0039 l -0.0059,0.0059 c 0,0 -0.002,0.002 -0.002,0.002 -0.0025,0.0031 -0.0077,0.01022 -0.01367,0.01758 -8e-6,-5e-6 -0.002,0 -0.002,0 -7.8e-5,1.01e-4 0.0139,-0.01556 0.01563,-0.01758 l -0.330078,0.335938 0.04102,0.04297 -0.0098,0.01367 0.699219,1.158204 c 0.0671,0.111043 0.141421,0.224688 0.216796,0.341796 0.0064,0.0099 0.01117,0.01939 0.01758,0.0293 l 0.0098,0.01953 0.0039,0.0039 0.002,0.002 v 0.002 c 1.458156,2.285871 2.636605,5.200656 3.175781,7.800781 l 0.002,0.0059 0.0039,0.01758 0.002,0.01172 c 0.0087,0.04049 0.01905,0.08541 0.03125,0.140625 l 0.296875,1.341796 1.363282,0.166016 c 0.08045,0.0098 0.162051,0.01932 0.246093,0.0293 0.556496,0.06609 1.279157,0.148308 2.035157,0.230469 h 0.002 0.0039 l 0.09766,0.01172 h 0.0039 l 2.232422,0.236329 -0.02734,2.21289 -0.02734,2.175781 -0.5625,0.0625 v -0.02148 l -0.761719,0.0918 h -0.300781 l 0.0039,0.03516 -0.919922,0.111328 -0.01953,0.002 -0.01172,0.002 -1.849609,0.222656 v 0.0059 c -0.05865,0.0075 -0.121253,0.01615 -0.177735,0.02344 l -1.339843,0.173828 -0.302735,1.316406 c -0.01237,0.05393 -0.02529,0.11104 -0.03906,0.171875 -0.01606,0.07071 -0.0302,0.137261 -0.04492,0.201172 l -0.002,0.0059 v 0.002 l -0.0059,0.02734 c -0.645357,2.879683 -1.592486,5.191247 -3.359375,7.958985 l -0.08594,0.136718 -0.265625,0.41211 v 0.002 l -0.41211,0.410156 0.103516,0.07227 -0.01563,0.02344 0.0039,0.002 -0.07227,0.125 1.789062,2.222657 1.941406,2.408203 -1.976562,1.976562 -0.248047,0.25 -0.871094,0.873047 h -0.002 l -0.01172,0.01172 -1.88086,-1.498047 c 0,0 -0.002,-0.002 -0.002,-0.002 l -0.0039,-0.0039 -0.01172,-0.0098 c 0,0 -0.295912,0.34728 -0.314453,0.369141 0.01459,-0.02561 0.240234,-0.421875 0.240234,-0.421875 -1.76e-4,-1.15e-4 0.03795,0.02513 0.05273,0.03516 C 62.295735,66.097823 61.801159,65.696 61.400391,65.371094 l -0.06445,-0.05273 c -0.0679,-0.05502 -0.132943,-0.107449 -0.19336,-0.15625 l -1.054687,-0.851562 -1.164063,0.699219 c -0.130861,0.07861 -0.266363,0.162601 -0.404297,0.251953 l -0.01367,0.0098 -0.0039,0.002 c -2.284287,1.459766 -5.197501,2.63728 -7.796875,3.177734 l -0.0039,0.002 h -0.0059 l -0.02539,0.0078 c -0.05035,0.01085 -0.09697,0.02019 -0.138672,0.0293 l -1.347656,0.294922 -0.164063,1.367188 c -0.0087,0.07203 -0.01844,0.145455 -0.02734,0.21875 -9.49e-4,0.0078 -0.001,0.0156 -0.002,0.02344 l -0.0039,0.02344 v 0.0059 c -0.06531,0.553509 -0.145354,1.263759 -0.226562,2.011719 l -0.002,0.0078 v 0.0039 l -0.002,0.01563 -0.0059,0.05273 -0.240234,2.267578 H 46.302734 44.09375 l -0.248047,-2.34375 v -0.002 c -0.08225,-0.773658 -0.164499,-1.49404 -0.230469,-2.046875 -6.2e-5,-5.21e-4 6.3e-5,-0.0014 0,-0.002 v -0.002 c -0.0097,-0.0815 -0.01995,-0.159945 -0.0293,-0.236328 l -0.167969,-1.376953 -1.357422,-0.28711 c -0.03595,-0.0076 -0.07062,-0.01275 -0.103516,-0.01953 -0.0032,-6.65e-4 -0.0066,-0.0032 -0.0098,-0.0039 l -0.04102,-0.0078 -0.0059,-0.002 c -2.58787,-0.537646 -5.483638,-1.711385 -7.763672,-3.162109 l -0.0078,-0.0078 -0.05078,-0.02539 c -0.139465,-0.09014 -0.278087,-0.173923 -0.408203,-0.25 l -1.140625,-0.667968 -0.002,0.002 -0.0293,-0.03516 -0.371094,0.345703 -0.01758,0.01563 -0.06445,0.05273 -0.554688,0.4375 c -0.311705,0.24545 -0.704639,0.552656 -1.130859,0.886719 -0.164741,0.129135 -0.332912,0.262393 -0.503906,0.396484 l -0.0098,0.0078 -0.01563,0.01172 c -0.599919,0.486618 -1.155226,0.928959 -1.560547,1.242187 -0.1592,0.123014 -0.278613,0.211189 -0.386719,0.291016 -0.09018,-0.07976 -0.182566,-0.160041 -0.308593,-0.277344 -0.344583,-0.320754 -0.813858,-0.772591 -1.300781,-1.259766 l -1.521485,-1.523437 1.509766,-1.896485 0.0059,-0.0078 0.002,-0.002 0.0039,-0.0039 0.002,-0.002 c 4.7e-5,-5.9e-5 0.003,-0.0046 0.0039,-0.0059 -2.1e-5,2.6e-5 0.0018,-0.0017 0.002,-0.002 v -0.002 c 4.9e-4,-6.89e-4 0.0014,-0.0012 0.002,-0.002 3.74e-4,-5.31e-4 0.0015,-0.0013 0.002,-0.002 v -0.002 c 1.17e-4,-1.45e-4 0.0017,-0.0016 0.002,-0.002 0.0026,-0.0036 0.0031,-0.0039 0.0059,-0.0078 0.0091,-0.01122 0.0066,-0.008 0.0078,-0.0098 l 0.0059,-0.0059 c 0.427747,-0.541774 0.795192,-0.9993 1.107421,-1.388672 h 0.259766 v -0.324219 l 0.804688,-1.001953 -0.697266,-1.160156 c -0.0721,-0.119958 -0.151399,-0.246304 -0.234375,-0.375 l -0.0098,-0.01758 c -5.07e-4,-7.85e-4 -0.0014,-0.0012 -0.002,-0.002 l -0.02344,-0.04688 -0.0078,-0.0078 c -1.45053,-2.281927 -2.622801,-5.181083 -3.160156,-7.771484 l -0.002,-0.0098 -0.002,-0.0039 v -0.002 c -0.01159,-0.05405 -0.02207,-0.105267 -0.0332,-0.15625 l -0.294922,-1.347657 -1.367188,-0.164062 h -0.002 c -0.07734,-0.0094 -0.158707,-0.01917 -0.24414,-0.0293 -0.544446,-0.06458 -1.251877,-0.144144 -1.990235,-0.224609 l -0.01172,-0.002 c -0.0029,-3.2e-4 -0.0049,-0.0016 -0.0078,-0.002 l -0.01758,-0.002 h -0.0098 l -2.34375,-0.25 v -2.208984 -2.208984 l 2.316406,-0.246094 0.02734,-0.0039 c 0.772266,-0.08239 1.499837,-0.162592 2.056641,-0.228516 l 0.01172,-0.002 h -0.0098 c 0.0092,-0.0011 0.01634,-8.93e-4 0.02539,-0.002 0.0749,-0.0088 0.147356,-0.01794 0.208985,-0.02539 l 0.460937,-0.05664 0.335938,0.285157 0.287109,-0.359375 0.25586,-0.0332 0.3125,-1.310546 c 0.02913,-0.122053 0.06023,-0.258893 0.0957,-0.414063 l 0.0059,-0.02148 0.002,-0.01172 0.002,-0.0059 c 0.54376,-2.580793 1.642459,-5.230363 3.111329,-7.53125 v -0.002 l 0.0078,-0.0098 0.002,-0.0039 c 0.09158,-0.141466 0.175557,-0.279697 0.251953,-0.410157 l 0.671875,-1.146484 -0.0293,-0.03516 0.01758,-0.01563 -0.02344,-0.02734 -0.01563,0.01563 -0.228516,-0.289063 c 2.5e-5,-1.5e-5 0.002,-0.002 0.002,-0.002 0,0 -0.0036,-0.0044 -0.0059,-0.0078 l -0.002,-0.0039 -0.01367,-0.01367 c -1.4e-5,1e-5 -0.0019,-1.6e-5 -0.002,0 l -0.02539,-0.0332 -0.0059,-0.0059 -0.0059,-0.0078 -0.0078,-0.0098 -0.0059,-0.0078 0.01563,0.01563 -0.04492,-0.05078 -0.02344,-0.0293 -0.224609,-0.285156 -0.002,0.002 -0.195313,-0.248047 c -0.284019,-0.358201 -0.650524,-0.82563 -1.046875,-1.328124 -0.09413,-0.119376 -0.191043,-0.241144 -0.289062,-0.365235 -0.0015,-0.0019 -0.0024,-0.004 -0.0039,-0.0059 -0.0032,-0.0041 -0.0066,-0.0076 -0.0098,-0.01172 l -0.0059,0.0039 c -0.0011,-0.0016 -0.0066,-0.006 -0.0078,-0.0078 l 0.0059,-0.0039 -0.02148,-0.02734 -0.002,-0.002 -1.498047,-1.882813 0.986328,-0.986328 1.238281,-1.240234 0.480469,-0.480469 0.390625,-0.390625 0.01172,-0.01172 2.013672,1.621094 2.625,2.115234 1.173828,-0.748047 c 2.7442,-1.745805 5.128023,-2.755369 7.935547,-3.367187 h 0.002 0.002 l 0.01563,-0.0039 0.0098,-0.002 c 0.150869,-0.03439 0.284377,-0.0652 0.404297,-0.09375 l 0.140625,-0.0332 v 0.07813 l 0.453125,-0.185546 0.720703,-0.171876 0.05469,-0.451171 c 0.0026,-0.01084 0.01975,-0.02524 0.02148,-0.03516 0.01465,-0.08364 0.007,-0.135556 0,-0.1875 -0.0016,-0.0119 0.0018,-0.03196 0,-0.04297 -0.0029,-0.0176 -0.0083,-0.02497 -0.01172,-0.04102 -2.03e-4,-0.01332 0.01267,-0.0115 0.01172,-0.02539 l -0.0078,-0.101562 0.0293,0.08398 0.06445,-0.541015 c 0.0099,-0.08198 0.02065,-0.168355 0.03125,-0.257813 l 0.0039,-0.0293 v -0.0059 c 0.06531,-0.552099 0.145771,-1.256241 0.226563,-2 v -0.0039 l 0.0039,-0.0332 z m -1.337891,4.707031 c 0,0 0.009,0.01453 0.0098,0.01563 l -0.208985,0.257813 c 0.02033,-0.04224 0.08008,-0.166016 0.08008,-0.166016 0,0 0.119141,-0.107422 0.119141,-0.107422 z m 22.197266,1.498047 c -5.8e-5,-5e-6 0.08601,0.01564 0.08594,0.01563 -1.41e-4,-3.7e-5 0.09004,0.0333 0.08984,0.0332 -1.95e-4,-9.4e-5 0.03221,0.01683 0.04297,0.02344 0.01569,0.0096 0.02337,0.0156 0.03125,0.02148 -0.04907,-0.04252 -0.178991,-0.05925 -0.28125,-0.0918 0.01109,-6.28e-4 0.03126,-0.002 0.03125,-0.002 z m -6.039063,2.964844 -0.251953,0.466797 -0.02539,-0.01367 z m 9.607422,0.736328 c 0,0 0.08718,0.102992 0.173828,0.205078 l -0.152344,0.189453 -0.04102,0.0098 c -0.137219,-0.0058 -0.250651,-0.11088 -0.335938,-0.203125 -0.02132,-0.02306 -0.07275,-0.03067 -0.08398,-0.05078 0.05755,-0.01986 0.439453,-0.150391 0.439453,-0.150391 z m -3.65039,4.609375 c 0.0067,0.0034 0.04102,0.01953 0.04102,0.01953 0,0 0.02841,0.04232 0.03711,0.05469 z m -43.652344,8.71875 0.136718,0.337891 h -0.01172 l 0.01563,0.0078 0.0039,0.01367 c -0.01185,-0.0061 -0.02351,-0.01254 -0.03711,-0.01953 l -0.230469,0.02148 -0.09766,-0.185547 c -0.05098,-0.02565 -0.0648,-0.03171 -0.107422,-0.05273 l 0.03906,-0.01563 0.04687,0.02734 -0.01953,-0.03711 z m 1.197265,1.208984 -0.04102,0.169922 c -0.0014,1.6e-4 -0.0025,-1.6e-4 -0.0039,0 h -0.0039 -0.0078 l -0.0059,0.002 c -0.01161,0.0014 -0.0312,0.0025 -0.04297,0.0039 z m -0.224609,0.05273 -0.02539,0.107422 -0.03125,-0.01367 z m 1.501953,0.103515 0.07227,0.01367 c -0.01095,0.0026 -0.05469,0.01367 -0.05469,0.01367 0,0 0.04631,-0.0092 0.05859,-0.01172 l 0.0293,0.0039 c -0.02561,0.002 -0.08789,0.0078 -0.08789,0.0078 0,0 -0.01539,-0.02405 -0.01758,-0.02734 z m 0.02344,0.03516 c 0.01089,0.0049 0.435545,0.199769 0.443359,0.203125 l -0.002,0.0078 -0.355469,-0.136719 c -0.03038,-0.02511 -0.08038,-0.06538 -0.08398,-0.06836 -2.01e-4,-3.02e-4 -0.0018,-0.0057 -0.002,-0.0059 z m 48.351562,6.470703 h 0.002 v 0.002 l 0.002,0.01953 0.07227,0.498047 -0.0625,-0.515625 0.04492,0.01172 0.09375,0.65039 -0.02344,0.0293 -0.0293,-0.02344 0.002,0.01758 -0.0039,-0.0039 -0.002,-0.01758 -0.01563,-0.01172 -0.06445,-0.521485 0.05078,0.511719 -0.05273,-0.04297 0.002,0.0098 -0.0078,-0.0059 0.0039,0.02148 -0.183594,-0.144531 0.0098,-0.02539 -0.148438,-0.121094 0.04687,-0.06055 v -0.0078 l 0.0957,-0.125 0.04492,-0.04492 0.0293,-0.03711 0.03516,-0.03516 0.002,0.0059 0.0059,-0.0059 0.0098,0.09375 0.04102,-0.113281 z m 1.84375,0.175781 -0.306641,0.345703 -0.308593,-0.275391 z m -0.826172,0.0957 h 0.002 l 0.03516,0.294922 h -0.0039 z M 72.160156,50 c -0.0058,0.0011 -0.0076,0.0031 -0.01172,0.0039 h -0.002 v -0.002 c 0.0049,-9.18e-4 0.0072,-7.23e-4 0.01367,-0.002 z m -0.136718,0.01367 0.0039,0.04297 -0.04687,-0.03906 z m -6.847657,9.724609 0.01172,0.134766 -0.08008,-0.05273 z m -0.117187,0.140625 0.103515,0.427735 -0.425781,0.05859 h -0.08594 z m -32.232422,4.921875 -0.05469,0.597657 -0.61914,-0.03906 z m -0.05664,0.613281 v 0.0039 c 4.5e-5,-3.8e-5 -0.03876,0.02465 -0.07031,0.04492 0.02703,-0.01851 0.05113,-0.03568 0.07031,-0.04883 z m 29.738281,1.511719 c -0.0228,0.02456 -0.327949,0.351878 -0.326171,0.353516 -0.0028,-0.0026 -0.02741,-0.02742 -0.02734,-0.02734 0,0 -0.02148,-0.02539 -0.02148,-0.02539 0,0 0.348905,-0.279726 0.375,-0.300781 z m -34.628906,1.703125 c 3.07e-4,2.2e-5 0.0016,-2.2e-5 0.002,0 0.07455,0.0052 0.453125,0.03125 0.453125,0.03125 0,0 -0.0035,0.01786 -0.0059,0.03125 L 28.125,69.03125 c -0.01312,0.0095 -0.02353,0.01605 -0.0293,0.01953 -0.0087,0.0052 -0.0076,0.0024 -0.01367,0.0059 -0.0182,-0.0383 -0.197669,-0.420362 -0.201172,-0.427735 0.0028,0.0076 0.145227,0.394303 0.16211,0.439453 l -0.13086,0.03125 c -0.0033,-0.04528 -0.03268,-0.46346 -0.0332,-0.470703 z m -0.04297,0.0078 c -0.0017,0.02162 -0.03516,0.44727 -0.03711,0.472656 -0.02433,-0.0025 -0.04289,-0.0036 -0.05273,-0.0059 -0.02042,-0.0047 -0.0317,-0.0087 -0.04102,-0.01172 -0.01863,-0.0061 -0.02639,-0.0088 -0.0332,-0.01172 -0.01363,-0.0058 -0.01374,-0.0048 -0.04297,-0.02148 -0.0073,-0.0042 -0.03939,-0.02562 -0.03906,-0.02539 6.2e-5,4.4e-5 -0.01116,-0.0091 -0.02148,-0.01758 0.02584,-0.03764 0.236592,-0.346927 0.25586,-0.375 -0.02141,0.02673 -0.258034,0.319655 -0.285157,0.353516 -0.0013,-0.0011 -0.0059,-0.0059 -0.0059,-0.0059 4.3e-5,4.1e-5 -0.06448,-0.07425 -0.06445,-0.07422 0,0 -0.01758,-0.0293 -0.01758,-0.0293 0,0 -0.01367,-0.02344 -0.01367,-0.02344 0,0 -0.04297,-0.105469 -0.04297,-0.105469 0,0 0.343629,-0.09215 0.429688,-0.115234 1.29e-4,-1.62e-4 0.0018,-0.0018 0.002,-0.002 0.0019,-4.97e-4 0.0082,-0.0015 0.0098,-0.002 z m 0.07617,0.470703 h 0.03125 c -0.0031,5.76e-4 -0.0044,0.0014 -0.0078,0.002 -0.0055,9.19e-4 -0.01317,0.0011 -0.02344,0.002 -1.5e-5,-2.07e-4 1.9e-5,-0.0036 0,-0.0039 z m 32.767579,0.105469 c -0.04576,0.09056 -0.195313,0.386718 -0.195313,0.386718 0,0 -0.01758,-0.0098 -0.01758,-0.0098 7.6e-5,4.7e-5 -0.04898,-0.03045 -0.05273,-0.0332 -0.0038,-0.0028 -0.0027,-0.003 -0.0039,-0.0039 z"
     style="color:#000000;font-style:normal;font-variant:normal;font-weight:normal;font-stretch:normal;font-size:medium;line-height:normal;font-family:sans-serif;font-variant-ligatures:normal;font-variant-position:normal;font-variant-caps:normal;font-variant-numeric:normal;font-variant-alternates:normal;font-feature-settings:normal;text-indent:0;text-align:start;text-decoration:none;text-decoration-line:none;text-decoration-style:solid;text-decoration-color:#000000;letter-spacing:normal;word-spacing:normal;text-transform:none;writing-mode:lr-tb;direction:ltr;text-orientation:mixed;dominant-baseline:auto;baseline-shift:baseline;text-anchor:start;white-space:normal;shape-padding:0;clip-rule:nonzero;display:inline;overflow:visible;visibility:visible;opacity:1;isolation:auto;mix-blend-mode:normal;color-interpolation:sRGB;color-interpolation-filters:linearRGB;solid-color:#000000;solid-opacity:1;vector-effect:none;fill:#000000;fill-opacity:0;fill-rule:nonzero;stroke:none;stroke-width:1;stroke-linecap:butt;stroke-linejoin:miter;stroke-miterlimit:4;stroke-dasharray:none;stroke-dashoffset:0;stroke-opacity:1;color-rendering:auto;image-rendering:auto;shape-rendering:auto;text-rendering:auto;enable-background:accumulate" />
  <path
     id="circle5658"
     d="m 46.080078,31.179688 c -8.207361,0 -14.90039,6.693029 -14.90039,14.90039 0,8.207361 6.693029,14.900391 14.90039,14.900391 8.207361,0 14.900391,-6.69303 14.900391,-14.900391 0,-8.207361 -6.69303,-14.900391 -14.900391,-14.90039 z m 0,1 c 7.664327,0 13.900391,6.236063 13.900391,13.90039 0,7.664327 -6.236064,13.900391 -13.900391,13.900391 -7.664327,0 -13.90039,-6.236064 -13.90039,-13.900391 0,-7.664327 6.236063,-13.90039 13.90039,-13.90039 z m 0,1.880859 c -6.647983,0 -12.019531,5.371548 -12.019531,12.019531 0,6.647983 5.371548,12.019531 12.019531,12.019531 6.647983,0 12.019531,-5.371548 12.019531,-12.019531 0,-6.647983 -5.371548,-12.019531 -12.019531,-12.019531 z m 0,1 c 6.110771,0 11.019531,4.90876 11.019531,11.019531 0,6.110771 -4.90876,11.019531 -11.019531,11.019531 -6.110771,0 -11.019531,-4.90876 -11.019531,-11.019531 0,-6.110771 4.90876,-11.019531 11.019531,-11.019531 z"
     style="color:#000000;font-style:normal;font-variant:normal;font-weight:normal;font-stretch:normal;font-size:medium;line-height:normal;font-family:sans-serif;font-variant-ligatures:normal;font-variant-position:normal;font-variant-caps:normal;font-variant-numeric:normal;font-variant-alternates:normal;font-feature-settings:normal;text-indent:0;text-align:start;text-decoration:none;text-decoration-line:none;text-decoration-style:solid;text-decoration-color:#000000;letter-spacing:normal;word-spacing:normal;text-transform:none;writing-mode:lr-tb;direction:ltr;text-orientation:mixed;dominant-baseline:auto;baseline-shift:baseline;text-anchor:start;white-space:normal;shape-padding:0;clip-rule:nonzero;display:inline;overflow:visible;visibility:visible;opacity:1;isolation:auto;mix-blend-mode:normal;color-interpolation:sRGB;color-interpolation-filters:linearRGB;solid-color:#000000;solid-opacity:1;vector-effect:none;fill:#000000;fill-opacity:1;fill-rule:nonzero;stroke:none;stroke-width:1;stroke-linecap:butt;stroke-linejoin:miter;stroke-miterlimit:4;stroke-dasharray:none;stroke-dashoffset:0;stroke-opacity:1;color-rendering:auto;image-rendering:auto;shape-rendering:auto;text-rendering:auto;enable-background:accumulate" />
</svg>
