<?xml version="1.0" encoding="UTF-8" standalone="no"?>
<svg
   xmlns:osb="http://www.openswatchbook.org/uri/2009/osb"
   xmlns:dc="http://purl.org/dc/elements/1.1/"
   xmlns:cc="http://creativecommons.org/ns#"
   xmlns:rdf="http://www.w3.org/1999/02/22-rdf-syntax-ns#"
   xmlns:svg="http://www.w3.org/2000/svg"
   xmlns="http://www.w3.org/2000/svg"
   xmlns:sodipodi="http://sodipodi.sourceforge.net/DTD/sodipodi-0.dtd"
   xmlns:inkscape="http://www.inkscape.org/namespaces/inkscape"
   width="93"
   height="93"
   viewBox="0 0 93 93"
   fill="none"
   version="1.1"
   id="svg5660"
   sodipodi:docname="ic_settings.svg"
   inkscape:version="0.92.1 r15371">
  <metadata
     id="metadata5666">
    <rdf:RDF>
      <cc:Work
         rdf:about="">
        <dc:format>image/svg+xml</dc:format>
        <dc:type
           rdf:resource="http://purl.org/dc/dcmitype/StillImage" />
        <dc:title></dc:title>
      </cc:Work>
    </rdf:RDF>
  </metadata>
  <defs
     id="defs5664">
    <linearGradient
       id="linearGradient6310"
       osb:paint="solid">
      <stop
         style="stop-color:#000000;stop-opacity:1;"
         offset="0"
         id="stop6308" />
    </linearGradient>
  </defs>
  <sodipodi:namedview
     pagecolor="#ffffff"
     bordercolor="#666666"
     borderopacity="1"
     objecttolerance="10"
     gridtolerance="10"
     guidetolerance="10"
     inkscape:pageopacity="0"
     inkscape:pageshadow="2"
     inkscape:window-width="1680"
     inkscape:window-height="1027"
     id="namedview5662"
     showgrid="false"
     inkscape:zoom="11.313709"
     inkscape:cx="12.951095"
     inkscape:cy="41.596687"
     inkscape:window-x="-8"
     inkscape:window-y="-8"
     inkscape:window-maximized="1"
     inkscape:current-layer="svg5660" />
  <path
     style="color:#000000;font-style:normal;font-variant:normal;font-weight:normal;font-stretch:normal;font-size:medium;line-height:normal;font-family:sans-serif;font-variant-ligatures:normal;font-variant-position:normal;font-variant-caps:normal;font-variant-numeric:normal;font-variant-alternates:normal;font-feature-settings:normal;text-indent:0;text-align:start;text-decoration:none;text-decoration-line:none;text-decoration-style:solid;text-decoration-color:#000000;letter-spacing:normal;word-spacing:normal;text-transform:none;writing-mode:lr-tb;direction:ltr;text-orientation:mixed;dominant-baseline:auto;baseline-shift:baseline;text-anchor:start;white-space:normal;shape-padding:0;clip-rule:nonzero;display:inline;overflow:visible;visibility:visible;opacity:1;isolation:auto;mix-blend-mode:normal;color-interpolation:sRGB;color-interpolation-filters:linearRGB;solid-color:#000000;solid-opacity:1;vector-effect:none;fill:#ffffff;fill-opacity:1;fill-rule:nonzero;stroke:#000000;stroke-width:1;stroke-linecap:butt;stroke-linejoin:miter;stroke-miterlimit:4;stroke-dasharray:none;stroke-dashoffset:0;stroke-opacity:0;color-rendering:auto;image-rendering:auto;shape-rendering:auto;text-rendering:auto;enable-background:accumulate"
     d="m 43.902343,78.162344 c -1.608457,0 -2.980732,-1.234919 -3.15,-2.834438 l -0.268312,-2.532937 c -0.05056,-0.475538 -0.09471,-0.85046 -0.141188,-1.257187 -2.591706,-0.638202 -5.228204,-1.718728 -7.536375,-3.115125 -0.127459,0.09994 -0.225769,0.17741 -0.361125,0.2835 -0.158239,0.124039 -0.321376,0.25172 -0.486,0.380812 l -0.0067,0.0056 c -0.004,0.0031 -0.0079,0.0059 -0.01181,0.009 -0.607976,0.492944 -1.171961,0.941247 -1.604813,1.27575 v 5.62e-4 c -0.218215,0.168618 -0.411564,0.315045 -0.576562,0.434251 h -5.63e-4 c -0.07866,0.05681 -0.169139,0.12138 -0.275062,0.189562 l -5.62e-4,5.63e-4 c -0.04685,0.03019 -0.135776,0.08656 -0.254813,0.149624 h -5.63e-4 c -0.05423,0.02874 -0.165293,0.08594 -0.312187,0.143438 l -0.0034,0.0017 c -2.45e-4,9.8e-5 -0.0031,10e-4 -0.0034,0.0011 -0.05199,0.02065 -0.494317,0.198 -1.052438,0.198 -0.615399,0 -1.106,-0.219295 -1.157625,-0.241875 h -5.64e-4 l -0.0011,-5.63e-4 c -0.166924,-0.07282 -0.292392,-0.146338 -0.352688,-0.182813 -0.133729,-0.08089 -0.232274,-0.154021 -0.279562,-0.189562 -0.110951,-0.08335 -0.201561,-0.159705 -0.275063,-0.22275 -0.154768,-0.132732 -0.327848,-0.290431 -0.518624,-0.468 h -5.63e-4 c -0.384939,-0.358258 -0.873663,-0.831147 -1.38715,-1.344899 l -0.421875,-0.421313 v -5.62e-4 l -1.234688,-1.235251 c -1.130724,-1.131405 -1.233532,-2.961996 -0.236812,-4.213125 l 1.638563,-2.057062 0.0017,-0.0022 5.62e-4,-5.63e-4 c 0.0023,-0.0028 0.0051,-0.0063 0.0073,-0.009 0.286392,-0.362863 0.49372,-0.620528 0.734625,-0.921937 -1.395865,-2.309582 -2.476145,-4.94774 -3.114,-7.540875 -0.409096,-0.04686 -0.790484,-0.09123 -1.26,-0.142313 l -2.526187,-0.267799 c -1.599414,-0.169378 -2.834438,-1.542228 -2.834438,-3.150563 v -2.40075 -2.400751 c 0,-1.608269 1.234808,-2.980794 2.833875,-3.150561 l 2.531813,-0.268313 -0.0011,5.62e-4 c 0.475843,-0.05077 0.853616,-0.09526 1.263376,-0.141751 0.622842,-2.609838 1.689514,-5.176227 3.102187,-7.505435 -0.151591,-0.192036 -0.273693,-0.345929 -0.43875,-0.555189 -0.0784,-0.09943 -0.157763,-0.200647 -0.237375,-0.301499 -0.0027,-0.0034 -0.0052,-0.0068 -0.0079,-0.01013 l -0.08156,-0.102375 -1.612687,-2.024436 c -0.996651,-1.251058 -0.893843,-3.082248 0.236812,-4.213688 l 2.111063,-2.111624 0.248063,-0.248628 1.017562,-1.018123 5.63e-4,-5.62e-4 1.299937,-0.73575 v 0 c 0.982999,-0.305179 2.08508,-0.170548 2.928375,0.509063 l 2.161688,1.74206 0.766687,0.618189 c 2.478611,-1.47547 4.894383,-2.490287 7.513875,-3.126375 0.04676,-0.408419 0.09184,-0.790966 0.142875,-1.260562 l 5.63e-4,-0.0056 c 2.72e-4,-0.0025 2.9e-4,-0.0042 5.62e-4,-0.0067 l 0.267187,-2.523937 c 0.170792,-1.614139 1.567468,-2.854872 3.1905,-2.834439 l 2.3535,0.02981 2.419313,0.02925 h 5.62e-4 c 1.033741,0.01289 1.933583,0.562303 2.506501,1.362937 l 0.592312,1.371377 0.08269,0.597375 0.114751,0.829123 0.265796,1.876341 c 3.710368,0.918726 5.488017,1.788527 7.729741,3.211116 l 3.999774,-2.753643 0.969894,-0.12215 c 0.803903,-0.153458 0.903892,0.445018 1.601854,0.904021 l 0.202501,0.03769 0.315562,0.316126 h 5.64e-4 l 0.138937,0.138937 1.517063,1.517624 c 0.513847,0.514144 0.983408,1.000777 1.332562,1.371937 l -0.0011,-5.61e-4 c 0.175179,0.185958 0.323712,0.346815 0.438751,0.475312 l -0.0011,-5.62e-4 c 0.05706,0.06362 0.116354,0.130006 0.176624,0.202499 0.02572,0.03094 0.07567,0.09219 0.135565,0.173814 l 0.0011,5.61e-4 5.64e-4,0.0011 c 0.01764,0.02413 0.08589,0.118268 0.156937,0.237376 l 5.62e-4,0.0011 c 0.03847,0.06437 0.104063,0.180314 0.171,0.335249 0.0288,0.06601 0.236249,0.537915 0.236249,1.143 0,0.555126 -0.17555,0.994957 -0.19406,1.042313 -6.9e-5,1.72e-4 -0.0011,0.0021 -0.0011,0.0023 -0.05491,0.142439 -0.109734,0.25234 -0.136126,0.303186 v 5.62e-4 c -0.06051,0.116683 -0.116018,0.205323 -0.141186,0.245813 l -0.0011,0.0017 -0.0011,0.0022 c -0.06698,0.106906 -0.130452,0.198023 -0.185624,0.276751 l -5.65e-4,0.0011 -5.61e-4,5.62e-4 c -0.11823,0.168183 -0.263892,0.365621 -0.432,0.588375 -0.337266,0.447296 -0.786111,1.022579 -1.276313,1.631811 l 0.01181,-0.01406 c -0.264413,0.337363 -0.469371,0.59186 -0.704249,0.88706 1.391011,2.305604 2.467595,4.936985 3.103877,7.524 0.384298,0.04405 0.744054,0.08652 1.183498,0.134438 h 0.0028 l 0.03769,0.0045 c 0.01359,0.0015 0.02294,0.0025 0.03656,0.0039 l 2.522811,0.267186 c 1.613558,0.170787 2.854578,1.566634 2.834439,3.189375 v 5.62e-4 l -0.02925,2.388376 v 5.63e-4 l -0.02981,2.381062 c -0.01992,1.588987 -1.242044,2.935776 -2.821499,3.1095 l -1.299937,0.142875 0.0017,0.01406 -1.407376,0.140625 -0.0045,5.62e-4 -0.0051,5.62e-4 h -0.0011 c -0.05846,0.0071 -0.584125,0.072 -1.034439,0.127688 -0.64804,2.639545 -1.630215,5.037704 -3.12075,7.540312 l 0.936564,1.163251 1.423123,1.767937 c 1.006713,1.250659 0.908488,3.090364 -0.226687,4.226063 l -1.266748,1.267312 -1.092376,1.092937 -1.017564,1.018125 -1.018123,1.018688 -0.282474,-0.28234 c -0.977829,0.303687 -2.073804,0.172808 -2.916,-0.498938 l -2.05875,-1.641937 h -5.62e-4 l -5.64e-4,-5.63e-4 c -0.0161,-0.01288 -0.01662,-0.01375 -0.0022,-0.0022 -0.346539,-0.273758 -0.623969,-0.49993 -0.920811,-0.739688 -2.308634,1.39697 -4.945769,2.478342 -7.538063,3.116813 -0.04662,0.407688 -0.09096,0.787872 -0.14175,1.2555 l -0.268313,2.534624 c -0.169339,1.599656 -1.542163,2.834392 -3.150611,2.834392 H 46.301968 Z M 71.099218,26.94953 c 8.06e-4,0.0019 0.0014,0.0021 0.0022,0.0039 l 0.0028,0.0073 z M 43.902343,75.282344 h 2.399625 2.399064 c 0.159295,0 0.270115,-0.09925 0.286874,-0.257625 l 0.259876,-2.458125 0.0073,-0.07144 -5.65e-4,0.009 0.0017,-0.01462 c 0.082,-0.755248 0.163486,-1.476084 0.228937,-2.030063 l 5.64e-4,-0.0023 v -0.0028 c 0.0099,-0.08148 0.0196,-0.161555 0.02925,-0.241312 l 0.122624,-1.015312 0.999562,-0.218251 c 0.04861,-0.01062 0.100999,-0.02223 0.157501,-0.03431 l 0.0039,-0.0011 0.0039,-5.63e-4 c 2.668695,-0.554263 5.62458,-1.750846 7.968937,-3.249 l 0.0011,-5.62e-4 0.0017,-0.0011 c 5.9e-4,-3.83e-4 0.0011,-7.42e-4 0.0017,-0.0011 l 0.01575,-0.01013 c 0.133716,-0.08662 0.265076,-0.168852 0.390376,-0.244125 l 0.862874,-0.518063 0.783,0.632251 c 0.06122,0.04945 0.125605,0.101143 0.192375,0.155249 v 5.63e-4 l 0.06525,0.05288 c 0.400784,0.324919 0.897385,0.727478 1.427063,1.145813 l 0.0034,0.0028 0.0034,0.0028 c 0.0055,0.0044 -8.21e-4,-9.98e-4 0.0011,5.62e-4 l 0.0017,0.0017 2.056501,1.639688 c 0.123849,0.09878 0.271164,0.09061 0.383063,-0.02138 h 5.62e-4 l 1.017562,-1.018687 0.249189,-0.249188 2.109372,-2.111063 c 0.112444,-0.112493 0.1206,-0.260222 0.02081,-0.384187 l -2.059874,-2.55825 -1.570501,-1.95075 0.03994,-0.063 -0.0096,-0.0062 c 0.0022,-0.0039 0.05178,-0.05957 0.06244,-0.0765 l 0.06244,-0.09731 0.01013,0.009 c 4.61e-4,-6.55e-4 0.0012,-0.001 0.0017,-0.0017 l -0.01181,-0.0073 0.401627,-0.628875 c 1.796303,-2.813814 2.775848,-5.204306 3.431811,-8.141625 l 0.0011,-0.0045 0.0011,-0.0051 c 0.01517,-0.06586 0.03027,-0.133223 0.04613,-0.203063 l -5.62e-4,5.63e-4 c 0.01316,-0.05815 0.02658,-0.115218 0.03937,-0.171 l 0.223876,-0.977626 0.995063,-0.128249 c 0.169926,-0.02192 0.351147,-0.04527 0.532124,-0.06806 0.03836,-0.0048 0.04276,-0.0053 0.081,-0.01012 l -5.62e-4,-0.0039 v -5.63e-4 l 1.415249,-0.169875 0.0079,-0.0011 0.01575,-0.0017 1.420312,-0.171 v 5.63e-4 l 0.0017,0.01406 1.302189,-0.142874 c 0.156033,-0.01716 0.254532,-0.126012 0.256499,-0.282938 l 0.02981,-2.363062 0.02925,-2.406939 v -5.62e-4 c 0.002,-0.160885 -0.09729,-0.272154 -0.257625,-0.289126 l -2.450814,-0.259874 h -0.0028 l -0.07144,-0.0079 -0.0056,-5.64e-4 c -0.754519,-0.082 -1.474709,-0.163679 -2.028937,-0.229499 -0.08426,-0.01 -0.165876,-0.01963 -0.245249,-0.02925 l -1.012501,-0.123189 -0.220499,-0.996186 c -0.01237,-0.05599 -0.02259,-0.106655 -0.03319,-0.155252 l -0.0017,-0.0067 -0.0017,-0.0073 c -0.553318,-2.668325 -1.747677,-5.623652 -3.243376,-7.968375 -0.0015,-0.0024 -0.003,-0.005 -0.0045,-0.0073 l -5.62e-4,-5.65e-4 -0.0045,-0.0062 -0.0073,-0.01237 -0.0011,-0.0022 c -0.07994,-0.123635 -0.155845,-0.244633 -0.225561,-0.36 l -0.519751,-0.859501 0.07256,-0.09056 -0.009,-0.009 c 0.0047,-0.0048 0.0053,-0.0052 0.0062,-0.0062 -0.0023,0.0023 0.0028,-0.0033 0.0022,-0.0028 -0.0017,0.0017 -0.0015,0.0021 0.0079,-0.0084 l 0.0079,0.0073 0.54,-0.675 c 0.01992,-0.0249 0.03401,-0.04298 0.04331,-0.05456 h 5.64e-4 l 5.62e-4,-5.62e-4 c 0.338947,-0.421263 0.788648,-0.985919 1.262249,-1.590189 l 0.0056,-0.0073 0.0056,-0.0067 c 0.47287,-0.587696 0.908164,-1.14654 1.220624,-1.56094 h 5.65e-4 c 0.18969,-0.231174 0.375492,-0.503436 0.503994,-0.708182 0.04467,0.0235 -0.01127,-0.0703 -0.01657,-0.103383 0.04502,-0.0024 0.02164,0.105162 0.02393,0.07695 -0.08744,-0.175284 -0.365054,-0.374893 -0.531616,-0.591158 0.848683,0.871539 -0.470014,-0.49018 -1.272373,-1.309501 0,0 -0.541233,-0.510852 -0.844146,-0.726017 -0.283227,-0.201182 -1.219847,-0.83466 -0.977611,-0.585634 0.05398,0.0555 -0.02326,-0.05807 -0.109616,-0.04847 -0.09698,0.01077 -0.336178,0.181993 -0.336178,0.181993 l -3.028389,2.088222 c -1.552719,1.021602 -0.89082,0.952766 -1.744713,0.740264 l 0.343718,0.0805 c 0,0 -0.310573,-0.05288 -0.707859,-0.270023 0,0 -0.283424,-0.179141 -0.416206,-0.264997 l -0.0079,-0.0051 c -0.0029,-0.0019 -0.0055,-0.0032 -0.0084,-0.0051 l -0.0023,-0.0011 0.0186,0.0113 c -2.390684,-1.474707 -5.076704,-2.607523 -7.795055,-3.198023 l -0.0073,-0.0017 -0.0079,-0.0017 c -0.06994,-0.01598 -0.136792,-0.03115 -0.200814,-0.04556 l -0.0034,-0.0011 -0.0034,-5.62e-4 c -0.05997,-0.01382 -0.118981,-0.02744 -0.176624,-0.0405 l -0.976499,-0.221061 -0.132751,-0.992252 c -0.07121,-0.532477 -0.155681,-1.241363 -0.233438,-2.017685 l -0.0022,-0.01969 h -5.62e-4 l -5.64e-4,-0.0079 -0.0011,-0.0073 -0.194624,-1.409063 -0.196877,-1.426499 c -0.02123,-0.151747 -0.12947,-0.246718 -0.282375,-0.248625 l -2.401312,-0.02925 h -5.63e-4 l -2.372062,-0.02981 c -0.161358,-0.002 -0.272703,0.0971 -0.289687,0.257625 l -0.267188,2.522249 v 0.0034 l -5.63e-4,0.0062 c -0.08202,0.755061 -0.164383,1.475729 -0.230062,2.03006 v 5.64e-4 c -0.01066,0.09001 -0.02063,0.175479 -0.03037,0.255937 l -0.06581,0.54225 c 0.04905,0.0508 -0.175532,-0.153719 -0.175532,-0.153719 -6e-6,6e-6 0.236295,0.411511 0.135594,0.483343 l -0.01519,0.123751 -0.975375,0.232312 c -0.120632,0.02872 -0.255169,0.0599 -0.4095,0.09506 l -0.0068,0.0017 -0.0067,0.0011 c -2.863319,0.623754 -5.31719,1.664617 -8.099438,3.434628 l -0.871875,0.555186 -2.3445,-1.89 -2.161687,-1.742063 c -0.123943,-0.09988 -0.271134,-0.09141 -0.383625,0.02081 h -5.63e-4 l -0.537188,0.537186 -0.480937,0.481501 -1.09125,1.092376 h -5.62e-4 l -1.266751,1.267874 c -0.112064,0.112141 -0.120607,0.259205 -0.02194,0.383063 l 1.640813,2.059312 -0.133313,-0.145688 c 0.174191,0.165897 0.187833,0.218512 0.188437,0.219376 l -0.0495,-0.06694 c 0.102484,0.129698 0.203224,0.257714 0.302063,0.38306 0.396362,0.502508 0.764374,0.969019 1.049062,1.328063 l 0.487126,0.614249 -0.519188,0.460126 0.530437,-0.445498 0.0034,0.0039 -0.648563,0.57375 0.662625,-0.556315 0.09619,0.121502 -0.497812,0.850498 c -0.07232,0.1235 -0.153637,0.255511 -0.241313,0.39094 l -0.01012,0.01687 -5.63e-4,5.62e-4 c -3.61e-4,5.67e-4 -7.64e-4,0.0011 -0.0011,0.0017 -1.502713,2.353902 -2.623344,5.056212 -3.180375,7.704 l -0.0023,0.01181 -0.0028,0.01237 c -0.03524,0.154161 -0.06645,0.28849 -0.09506,0.408376 l -0.232312,0.974249 -0.119251,0.01463 c -0.01816,0.02625 -0.03656,0.05287 -0.03656,0.05287 l -0.05119,0.06413 c 0,0 -0.08999,-0.07612 -0.109688,-0.09281 l -0.677843,0.08215 c -0.06945,0.0084 -0.146926,0.01785 -0.230625,0.02756 l -0.0034,5.64e-4 c -0.554231,0.06562 -1.280932,0.147292 -2.051438,0.229499 h -5.62e-4 l -2.531813,0.268312 c -0.158746,0.01686 -0.2576,0.12684 -0.2576,0.286314 v 2.400751 2.40075 c 0,0.159467 0.09912,0.269526 0.257625,0.286312 l 2.527313,0.267751 0.0045,5.62e-4 0.0028,5.63e-4 c 0.754401,0.08207 1.474314,0.16378 2.028375,0.2295 0.08588,0.01018 0.167374,0.0199 0.244688,0.02925 l 1.015874,0.122626 0.218251,0.999562 c 0.01085,0.04968 0.02189,0.10163 0.03375,0.156938 l 0.0011,0.0051 0.0011,0.0045 c 0.554004,2.670659 1.749827,5.628363 3.247312,7.974 l 5.63e-4,0.0011 c 9e-5,1.39e-4 -9.1e-5,4.23e-4 0,5.62e-4 l 0.0011,0.0011 5.62e-4,0.0011 c 0.08943,0.137718 0.173261,0.272108 0.24975,0.399374 l 0.5175,0.860626 -0.628875,0.783 c -0.02159,0.02688 -0.04413,0.05466 -0.0675,0.08381 v 5.62e-4 h -5.62e-4 c -0.329703,0.411029 -0.775086,0.966299 -1.2645,1.586251 -0.0013,0.0017 -0.0021,0.0029 -0.0034,0.0045 -0.0037,0.0046 -0.0059,0.0072 -0.0096,0.01181 l -0.0068,0.0084 -5.63e-4,5.63e-4 -0.0017,0.0023 c -7.81e-4,9.84e-4 -0.0015,0.0024 -0.0023,0.0034 l -0.0051,0.0062 -1.637437,2.055376 c -0.09866,0.123841 -0.09,0.271056 0.02194,0.383062 l 1.656,1.657125 c 0.490942,0.491195 0.962295,0.946038 1.312876,1.272375 0.173658,0.161637 0.328259,0.300842 0.432,0.389813 0.0504,0.04323 0.102187,0.08546 0.129937,0.106312 v 5.62e-4 c 0.01624,0.01221 0.03283,0.02327 0.03994,0.02756 0.0075,0.0045 0.01142,0.0064 0.0135,0.0073 l 0.0022,0.0011 0.0023,5.63e-4 c 0.05096,0.02229 0.0104,5.63e-4 0.0034,5.63e-4 -0.0097,0 -0.04153,0.01778 5.63e-4,0.0011 l 0.0135,-0.0056 c 0.0025,-0.0011 0.0044,-0.0021 0.009,-0.0045 h 5.63e-4 v -5.63e-4 c 0.0083,-0.0044 0.02706,-0.01504 0.04387,-0.02587 l 5.63e-4,-5.62e-4 c 0.03163,-0.02035 0.08944,-0.0607 0.147937,-0.102938 0.119547,-0.08637 0.297572,-0.220358 0.502313,-0.378562 0.410146,-0.316957 0.96814,-0.760153 1.5705,-1.248751 l 0.009,-0.0073 0.0096,-0.0073 c 0.171354,-0.134374 0.340251,-0.267201 0.504563,-0.396 0.426052,-0.333931 0.819634,-0.641971 1.132313,-0.888188 l 0.641812,-0.505125 0.03375,0.03994 -0.03319,-0.0405 0.0079,-0.0067 -0.0028,-0.0034 c 2.74e-4,-2.3e-4 8.62e-4,-3.42e-4 0.0011,-5.63e-4 l 0.0028,0.0034 0.119249,-0.09394 0.847125,0.495 c 0.131028,0.07661 0.268789,0.161275 0.410063,0.253125 l 0.0017,0.0011 0.0022,0.0011 5.63e-4,5.63e-4 c 2.345408,1.498777 5.302569,2.695774 7.972312,3.249563 l 0.02869,0.0056 0.0062,0.0017 c 0.04069,0.0085 0.08084,0.01643 0.117562,0.02419 l 1.007438,0.213187 0.124875,1.0215 c 0.0091,0.07435 0.0183,0.153307 0.02813,0.235687 v 5.63e-4 c 0.06573,0.550766 0.147985,1.272101 0.230062,2.044125 l 0.26775,2.5335 c 0.01703,0.158577 0.127108,0.257636 0.286567,0.257636 z m 20.981812,-15.265125 -0.0073,-0.0051 0.0011,-0.0011 z m 2.067751,1.96875 c 0.104328,-0.08868 0.12996,-0.147312 0.188438,-0.230063 l -1.388249,-0.912375 z m 0.192375,-0.234563 c 0.04031,-0.05742 0.128376,-0.154128 0.132751,-0.162 l -0.975937,-0.641249 z m 4.844814,-12.063375 0.04106,-0.0045 c 5.8e-5,3.48e-4 -5.8e-5,0.0013 0,0.0017 l 0.04219,-0.0067 0.0084,-0.0011 0.0023,-5.62e-4 h 0.0034 v -5.63e-4 h 0.0028 l 0.0034,-5.62e-4 h 0.0023 v -5.63e-4 h -0.0028 l 0.0028,-5.63e-4 0.01744,-0.0028 c -0.0035,-0.03462 -0.01671,-0.162586 -0.01687,-0.16425 -0.009,9.73e-4 -0.01112,7.37e-4 -0.01969,0.0017 -0.0012,1.37e-4 -0.0016,4.26e-4 -0.0028,5.62e-4 l 5.61e-4,0.0028 -0.0051,0.0062 -0.0011,-0.0084 c -0.0031,3.45e-4 -0.0043,2.26e-4 -0.0073,5.62e-4 l 0.0022,0.01519 -0.04838,0.06019 c 0.0015,0.0089 0.01213,0.07165 0.01519,0.09 2.07e-4,0.0012 3.48e-4,0.0049 5.61e-4,0.0062 l 0.02587,-0.0028 -0.02531,0.0034 h -5.62e-4 z m 0.102937,-0.01294 5.61e-4,5.63e-4 -0.0062,5.62e-4 z m 5.61e-4,0.0039 0.0023,-5.62e-4 0.01744,-0.0023 c -1.2e-5,-1.2e-4 1.2e-5,-4.43e-4 0,-5.62e-4 l -0.0045,5.62e-4 h -0.0017 l -0.01125,0.0023 h -0.0023 z m 0.05738,-0.0096 0.08831,-0.01005 v -0.0011 -5.62e-4 l -0.06637,0.0079 -0.0068,0.0011 -0.01744,0.0022 0.01238,-0.0011 z m 1.366308,-0.16586 -0.01575,-0.143437 h -0.0017 z m -49.894875,-6.623436 0.009,-0.02306 c -0.0013,0.0034 -0.0049,0.01117 -0.0062,0.01462 -7.35e-4,0.0019 -0.0019,0.0062 -0.0028,0.0084 z m 0.02137,-0.06244 c 0.0061,-0.01671 -0.0094,0.03895 0.01688,-0.04669 0.0047,-0.01535 0.02025,-0.07371 0.02025,-0.07369 l 0.0034,-0.01294 0.0023,-0.0096 0.0079,-0.03656 0.01575,-0.09056 0.0068,-0.05962 c 0,0 -0.941103,-0.09133 -1.23525,-0.119814 z m -1.268438,-0.390937 c -0.01402,-0.01188 -0.09169,-0.07762 -0.09169,-0.07762 0,0 -0.119082,-0.01149 -0.145688,-0.01406 z m -0.216,-0.182813 c -0.195454,-0.165632 -0.974249,-0.825748 -0.974249,-0.825748 l -0.05119,0.06356 h 5.62e-4 l -0.0675,0.09731 -0.02363,0.03825 -0.0056,0.01013 c 3.8e-5,-6.9e-5 -0.06549,0.129036 -0.0765,0.153 z m -1.230749,-0.376313 c 0.0073,-0.01774 0.02614,-0.07442 0.02981,-0.081 -0.0068,0.01599 -0.0074,0.0173 -0.01012,0.02419 5.8e-5,-1.46e-4 -0.0028,0.0082 -0.0034,0.0096 -1.91e-4,5.04e-4 -9.44e-4,0.0018 -0.0011,0.0022 -0.0031,0.0079 -0.0083,0.02146 -0.01631,0.04444 z m 6.816374,-9.231748 -0.0034,-0.0034 5.62e-4,-5.64e-4 c 0.01971,0.02302 0.02344,0.02761 0.0028,0.0039 z m 14.482693,-8.753062 0.05344,-0.0045 0.04219,-0.0051 c -10e-6,3e-6 0.15864,-0.03094 0.158625,-0.03094 -3e-5,9e-6 0.0599,-0.01674 0.07481,-0.02137 0.127308,-0.03961 0.07301,-0.02443 0.07031,-0.02531 l 0.307245,-0.380139 c 0.01564,0.228883 -0.706625,0.467359 -0.706625,0.467359 z m 0.4545,-0.107438 c 2.41e-4,-1.84e-4 0.0054,-0.0019 0.0062,-0.0022 v -5.65e-4 c -0.002,9.07e-4 -0.0045,0.0021 -0.0062,0.0028 z"
     id="path5656"
     inkscape:connector-curvature="0"
     sodipodi:nodetypes="scccccccccccccccccccscccccccccccccccccccccscsccccccccccccccccccccccccccccccccccccccccccccccccccccccsccccccccccccccccccccccccccccccccccccccccccccccccccsscsccccccsccccccccccccccccccccccccccccccccccccccccccccccccccccccccccccccccccccccccccccccccccccccccccccccccscccccccccccccsssccccccccccccccccccccccccccccccccccccccccccccccccccccccccccccccccccccccccccccccccccccccccccscscccccccccccccccccccccccccccccccccccccccccscccccccccccccccccccccccccccccccccccccsccccccccccccccccccccccccccccccccccccccccccccccccccccccccccccccccccccccccccccccccccccccccccccccccccccccccccccccccccccccccccc" />
  <path
     style="color:#000000;font-style:normal;font-variant:normal;font-weight:normal;font-stretch:normal;font-size:medium;line-height:normal;font-family:sans-serif;font-variant-ligatures:normal;font-variant-position:normal;font-variant-caps:normal;font-variant-numeric:normal;font-variant-alternates:normal;font-feature-settings:normal;text-indent:0;text-align:start;text-decoration:none;text-decoration-line:none;text-decoration-style:solid;text-decoration-color:#000000;letter-spacing:normal;word-spacing:normal;text-transform:none;writing-mode:lr-tb;direction:ltr;text-orientation:mixed;dominant-baseline:auto;baseline-shift:baseline;text-anchor:start;white-space:normal;shape-padding:0;clip-rule:nonzero;display:inline;overflow:visible;visibility:visible;opacity:1;isolation:auto;mix-blend-mode:normal;color-interpolation:sRGB;color-interpolation-filters:linearRGB;solid-color:#000000;solid-opacity:1;vector-effect:none;fill:#ffffff;fill-opacity:1;fill-rule:nonzero;stroke:#000000;stroke-width:1;stroke-linecap:butt;stroke-linejoin:miter;stroke-miterlimit:4;stroke-dasharray:none;stroke-dashoffset:0;stroke-opacity:1;color-rendering:auto;image-rendering:auto;shape-rendering:auto;text-rendering:auto;enable-background:accumulate"
     d="m 46.08,31.68 c -7.935844,0 -14.4,6.464156 -14.4,14.4 0,7.935844 6.464156,14.4 14.4,14.4 7.935844,0 14.4,-6.464156 14.4,-14.4 0,-7.935844 -6.464156,-14.4 -14.4,-14.4 z m 0,2.88 c 6.379377,0 11.52,5.140623 11.52,11.52 0,6.379377 -5.140623,11.52 -11.52,11.52 -6.379377,0 -11.52,-5.140623 -11.52,-11.52 0,-6.379377 5.140623,-11.52 11.52,-11.52 z"
     id="circle5658"
     inkscape:connector-curvature="0" />
</svg>
