<svg width="100" height="100" viewBox="0 0 100 100" fill="none" xmlns="http://www.w3.org/2000/svg">
<path d="M7.14894 3.91489H2.89362L10.8936 13.9574L0 28.5957H3.91489L14.8085 13.9574L7.14894 3.91489Z" transform="translate(0 6.25) scale(3.125)" fill="#FFD596"/>
<path d="M13.4468 3.91489H9.19149L16 12.766L25.7021 0H21.617L16 7.48936L13.4468 3.91489Z" transform="translate(0 6.25) scale(3.125)" fill="#FFD596"/>
<path d="M22.8085 24L16 15.1489L5.61702 28.5957H10.0426L16 20.766L18.7234 24H22.8085Z" transform="translate(0 6.25) scale(3.125)" fill="#FFD596"/>
<path d="M17.0213 13.9574L24.6809 24H28.9362L20.9362 13.9574L32 0H27.5745L17.0213 13.9574Z" transform="translate(0 6.25) scale(3.125)" fill="#FFD596"/>
<path d="M14.9787 0H10.5532L0 13.9574L7.65957 24H11.9149L3.91489 13.9574L14.9787 0Z" transform="translate(53.1914 6.25) scale(3.125)" fill="#998E7A"/>
</svg>
