<?xml version="1.0" encoding="UTF-8" standalone="no"?>
<svg
   xmlns:dc="http://purl.org/dc/elements/1.1/"
   xmlns:cc="http://creativecommons.org/ns#"
   xmlns:rdf="http://www.w3.org/1999/02/22-rdf-syntax-ns#"
   xmlns:svg="http://www.w3.org/2000/svg"
   xmlns="http://www.w3.org/2000/svg"
   id="svg2372"
   version="1.1"
   fill="none"
   viewBox="0 0 139 103"
   height="103"
   width="139">
  <metadata
     id="metadata2378">
    <rdf:RDF>
      <cc:Work
         rdf:about="">
        <dc:format>image/svg+xml</dc:format>
        <dc:type
           rdf:resource="http://purl.org/dc/dcmitype/StillImage" />
        <dc:title></dc:title>
      </cc:Work>
    </rdf:RDF>
  </metadata>
  <defs
     id="defs2376" />
  <path
     id="path2366"
     d="m 105.5,46 c 0,-2.479443 -2.02068,-4.5 -4.5,-4.5 l -97,0 c -2.47922,0 -4.5,2.02054 -4.5,4.5 v 53 c 0,2.47943 2.02077,4.5 4.5,4.5 h 97 c 2.47932,0 4.5,-2.02058 4.5,-4.5 z m -1,0 v 53 c 0,1.93898 -1.5611,3.5 -3.5,3.5 H 4 C 2.06123,102.5 0.5,100.93897 0.5,99 V 46 c 0,-1.939 1.56122,-3.5 3.5,-3.5 l 97,0 c 1.9389,0 3.5,1.560983 3.5,3.5 z m -3,-0.5 H 101 l -90.5,0 v 54 h 91 z m -1,1 v 52 h -89 v -52 z m -94,12 h -2 v 29 h 2 V 87 Z"
     style="color:#000000;font-style:normal;font-variant:normal;font-weight:normal;font-stretch:normal;font-size:medium;line-height:normal;font-family:sans-serif;font-variant-ligatures:normal;font-variant-position:normal;font-variant-caps:normal;font-variant-numeric:normal;font-variant-alternates:normal;font-feature-settings:normal;text-indent:0;text-align:start;text-decoration:none;text-decoration-line:none;text-decoration-style:solid;text-decoration-color:#000000;letter-spacing:normal;word-spacing:normal;text-transform:none;writing-mode:lr-tb;direction:ltr;text-orientation:mixed;dominant-baseline:auto;baseline-shift:baseline;text-anchor:start;white-space:normal;shape-padding:0;clip-rule:evenodd;display:inline;overflow:visible;visibility:visible;opacity:1;isolation:auto;mix-blend-mode:normal;color-interpolation:sRGB;color-interpolation-filters:linearRGB;solid-color:#000000;solid-opacity:1;vector-effect:none;fill-opacity:1;fill-rule:evenodd;stroke:none;stroke-width:1;stroke-linecap:butt;stroke-linejoin:miter;stroke-miterlimit:4;stroke-dasharray:none;stroke-dashoffset:0;stroke-opacity:1;color-rendering:auto;image-rendering:auto;shape-rendering:auto;text-rendering:auto;enable-background:accumulate" />
  <path
     id="path2368"
     d="m 2,37.25 0,-1 v -4 L 2.8007812,31.847656 3,31.25 v -1 l 0,-5 v -1 H 1 v 1 l 0,5 L 0.19921875,30.652344 0,31.25 l 0,5 v 1 z m 0,-22 v -1 l 0,-3 L 2.8007812,10.847656 3,10.25 v -1 L 3,4.058594 3.0449219,3.599609 3.0605469,3.550781 3.3515625,2.59375 1.4375,2.011719 1.1464844,2.96875 1.1015625,3.113281 1.0644531,3.306641 1.0039063,3.902344 1,4 1,9.25 0.19921875,9.652344 0,10.25 l 0,4 0,1 z M 4.25,46 H 6.0839844 L 6.484375,46.800781 7.0839844,47 H 14.25 h 1 1 v -1 h 8.433594 1 v -2 h -1 -8.433594 -1 L 14.449219,44.402344 14.25,45 H 8.0839844 L 7.6816406,44.199219 7.0839844,44 h -1 H 4.25 h -1 v 2 z M 10.533203,2 h 1.091797 1 L 13.425781,1.597656 13.625,1 h 7.908203 1 v -2 h -1 H 12.625 L 11.824219,-0.597656 11.625,0 H 10.533203 9.5332031 v 2 z m 22,0 h 5.591797 1 L 39.925781,1.597656 40.125,1 h 3.408203 1 v -2 h -1 H 39.125 L 38.324219,-0.597656 38.125,0 h -5.591797 -1 v 2 z m 4.050781,44.900391 V 46 h 10.09961 1 v -2 h -1 -10.09961 -1 L 34.78125,44.402344 34.583984,45 v 0.900391 1 z M 54.533203,2 h 3.408203 l 0.460938,0.044922 0.412109,0.125 0.716797,0.298828 0.298828,0.716797 0.125,0.412109 L 60,4.058594 v 1.257812 1 h 2 v -1 V 4 L 61.996094,3.902344 61.935547,3.306641 61.898438,3.113281 61.728516,2.560547 61.697266,2.46875 61.671875,2.408203 62.164062,1.839844 61.972656,0.964844 61.951172,0.9375 61.582031,0.515625 61.484375,0.417969 61.0625,0.048828 60.195312,-0.173828 59.578125,0.322266 59.53125,0.302734 59.439453,0.271484 58.886719,0.101562 58.693359,0.064453 58.097656,0.003906 58,0 h -3.466797 -1 v 2 z m 2.150391,44 h 0.232422 L 61,46 61.800781,45.597656 62,45 V 40.75 L 62.800781,40.347656 63,39.75 v -1.433594 -1 h -2 v 1 V 38.75 L 60.199219,39.152344 60,39.75 v 1 3.25 h -3.083984 -0.232422 -1 v 2 z M 62,28.316406 v -1 V 19.75 L 62.800781,19.347656 63,18.75 v -2.433594 -1 h -2 v 1 V 17.75 L 60.199219,18.152344 60,18.75 v 1 7.566406 1 z"
     style="color:#000000;font-style:normal;font-variant:normal;font-weight:normal;font-stretch:normal;font-size:medium;line-height:normal;font-family:sans-serif;font-variant-ligatures:normal;font-variant-position:normal;font-variant-caps:normal;font-variant-numeric:normal;font-variant-alternates:normal;font-feature-settings:normal;text-indent:0;text-align:start;text-decoration:none;text-decoration-line:none;text-decoration-style:solid;text-decoration-color:#000000;letter-spacing:normal;word-spacing:normal;text-transform:none;writing-mode:lr-tb;direction:ltr;text-orientation:mixed;dominant-baseline:auto;baseline-shift:baseline;text-anchor:start;white-space:normal;shape-padding:0;clip-rule:nonzero;display:inline;overflow:visible;visibility:visible;opacity:1;isolation:auto;mix-blend-mode:normal;color-interpolation:sRGB;color-interpolation-filters:linearRGB;solid-color:#000000;solid-opacity:1;vector-effect:none;fill:#998e7a;fill-opacity:1;fill-rule:nonzero;stroke:none;stroke-width:2;stroke-linecap:square;stroke-linejoin:round;stroke-miterlimit:4;stroke-dasharray:12, 12;stroke-dashoffset:0;stroke-opacity:1;color-rendering:auto;image-rendering:auto;shape-rendering:auto;text-rendering:auto;enable-background:accumulate" />
  <path
     id="path2370"
     d="m 101.00031,8.5 c 17.02682,0 30.83985,13.813026 30.83985,30.839844 0,0.277576 -0.0201,0.550429 -0.0273,0.826172 l 4.95508,-4.955078 2.49414,2.49414 -7.93945,7.939453 -1.1543,1.154297 -1.24023,-1.0625 -9.22852,-7.910156 2.29492,-2.679688 6.27149,5.375 c 0.0168,-0.393614 0.0469,-0.784032 0.0469,-1.18164 0,-15.090086 -12.22241,-27.310547 -27.3125,-27.310547 h -0.5 V 8.5 Z m 0.5,1.0507813 v 1.5292967 c 15.39412,0.273773 27.8125,12.80056 27.8125,28.259766 0,0.764348 -0.0301,1.523719 -0.0898,2.273437 l -0.0781,0.978516 -7.04101,-6.035156 -0.9961,1.162109 8.47071,7.257812 0.53711,0.460938 0.5,-0.5 7.23242,-7.232422 -1.08008,-1.080078 -6.08594,6.085938 0.0899,-1.330079 c 0.0455,-0.674596 0.0684,-1.354727 0.0684,-2.041015 0,-16.31508 -13.09028,-29.515527 -29.33985,-29.7890627 z"
     style="color:#000000;font-style:normal;font-variant:normal;font-weight:normal;font-stretch:normal;font-size:medium;line-height:normal;font-family:sans-serif;font-variant-ligatures:normal;font-variant-position:normal;font-variant-caps:normal;font-variant-numeric:normal;font-variant-alternates:normal;font-feature-settings:normal;text-indent:0;text-align:start;text-decoration:none;text-decoration-line:none;text-decoration-style:solid;text-decoration-color:#000000;letter-spacing:normal;word-spacing:normal;text-transform:none;writing-mode:lr-tb;direction:ltr;text-orientation:mixed;dominant-baseline:auto;baseline-shift:baseline;text-anchor:start;white-space:normal;shape-padding:0;clip-rule:nonzero;display:inline;overflow:visible;visibility:visible;opacity:1;isolation:auto;mix-blend-mode:normal;color-interpolation:sRGB;color-interpolation-filters:linearRGB;solid-color:#000000;solid-opacity:1;vector-effect:none;fill-opacity:1;fill-rule:nonzero;stroke:none;stroke-width:1;stroke-linecap:butt;stroke-linejoin:miter;stroke-miterlimit:4;stroke-dasharray:none;stroke-dashoffset:0;stroke-opacity:1;color-rendering:auto;image-rendering:auto;shape-rendering:auto;text-rendering:auto;enable-background:accumulate" />
</svg>
