<svg width="139" height="103" viewBox="0 0 139 103" fill="none" xmlns="http://www.w3.org/2000/svg">
<path fill-rule="evenodd" clip-rule="evenodd" d="M0 4C0 1.79089 1.79077 0 4 0H57C59.2092 0 61 1.79089 61 4V101C61 103.209 59.2092 105 57 105H4C1.79077 105 0 103.209 0 101V4ZM4 4H57V94H4V4ZM45 99H17V100H45V99Z" transform="translate(105 42) rotate(90)" fill="#998E7A"/>
<path d="M0 14.25V6.08333H1V5.08333V1H5.25H6.25V0H14.75V1H15.75H26.25H27.25V0H35.75V1H36.75H42C42.4086 1 42.7958 1.08114 43.1481 1.22725L44.0718 1.6103L44.4061 0.804275C44.7046 1.0294 44.9706 1.29539 45.1957 1.59393L44.3897 1.92818L44.7728 2.8519C44.9189 3.20424 45 3.59138 45 4V10.625V11.625H46V22.875H45V23.875V37.125V38.125H46V49.375H45V50.375V57C45 57.4086 44.9189 57.7958 44.7728 58.1481L44.3897 59.0718L45.1957 59.4061C44.9706 59.7046 44.7046 59.9706 44.4061 60.1957L44.0718 59.3897L43.1481 59.7728C42.7958 59.9189 42.4086 60 42 60H36.75H35.75V61H27.25V60H26.25H15.75H14.75V61H6.25V60H5.25H1V55.9167V54.9167H0V46.75H1V45.75V35.5833V34.5833H0V26.4167H1V25.4167V15.25V14.25H0Z" transform="translate(1 46) rotate(-90)" stroke="#998E7A" stroke-width="2" stroke-linecap="square" stroke-linejoin="round" stroke-dasharray="12 12"/>
<path d="M37.5551 0C20.7985 0 7.21473 13.5838 7.21473 30.3404C7.21473 31.0379 7.23819 31.7293 7.28448 32.4151L1.78763 26.9182L0 28.7058L7.5851 36.2909L8.41287 37.1187L9.30175 36.357L18.151 28.7719L16.5054 26.8522L9.83137 32.5731C9.77273 31.8367 9.7431 31.0916 9.7431 30.3404C9.7431 14.9801 22.1948 2.52837 37.5551 2.52837V0Z" transform="translate(138.555 9) scale(-1 1)" fill="#998E7A"/>
</svg>
