<?xml version="1.0" encoding="UTF-8" standalone="no"?>
<svg
   xmlns:dc="http://purl.org/dc/elements/1.1/"
   xmlns:cc="http://creativecommons.org/ns#"
   xmlns:rdf="http://www.w3.org/1999/02/22-rdf-syntax-ns#"
   xmlns:svg="http://www.w3.org/2000/svg"
   xmlns="http://www.w3.org/2000/svg"
   id="svg2388"
   version="1.1"
   fill="none"
   viewBox="0 0 28 28"
   height="28"
   width="28">
  <metadata
     id="metadata2394">
    <rdf:RDF>
      <cc:Work
         rdf:about="">
        <dc:format>image/svg+xml</dc:format>
        <dc:type
           rdf:resource="http://purl.org/dc/dcmitype/StillImage" />
        <dc:title></dc:title>
      </cc:Work>
    </rdf:RDF>
  </metadata>
  <defs
     id="defs2392" />
  <path
     id="path2386"
     d="M 8.8535156,5.6771887 V 14.427189 H 6.5 v 2.171875 h 2.3535156 v 0.751953 H 6.5 v 2.197265 h 2.3808594 v 3.919922 h 2.3984376 v -3.919922 h 4.279297 l -0.02734,-0.52539 -0.08594,-1.646484 H 11.21875 v -0.75 h 3.875 l -0.0293,-0.002 c 1.62056,0.09668 3.219121,-0.405217 4.494141,-1.410156 l 0.01563,-0.01172 0.01563,-0.01172 c 0.555898,-0.512495 0.990571,-1.141404 1.27539,-1.841797 0.281673,-0.692387 0.403374,-1.439195 0.367188,-2.185547 0.03149,-0.743716 -0.092,-1.4863795 -0.373047,-2.1757814 C 20.57513,8.2902295 20.141367,7.6628624 19.589844,7.149845 l -0.01172,-0.011719 -0.01172,-0.00977 C 18.296045,6.0923731 16.680844,5.5753374 15.044922,5.6791419 l 0.03125,-0.00195 z m 1,1 h 5.2382814 0.01563 c 1.379286,-0.08752 2.739173,0.3486283 3.8125,1.2187501 0.439156,0.4118387 0.786455,0.9111848 1.013672,1.46875 0.229478,0.5628965 0.333446,1.1702302 0.304687,1.7773432 l -0.002,0.02539 0.002,0.02344 c 0.03256,0.608062 -0.06937,1.217202 -0.298828,1.78125 -0.227246,0.558816 -0.577782,1.058121 -1.019531,1.46875 -1.079549,0.843172 -2.428974,1.267153 -3.796875,1.185546 h -0.01367 -4.890625 v 2.750001 h 4.277344 l 0.0098,0.171874 h -4.226562 v 3.919922 H 9.8808594 V 18.548282 H 7.5 V 18.351017 H 9.8535156 V 15.599064 H 7.5 v -0.171875 h 2.3535156 z m 0.4257814,0.2421875 v 8.5078128 h 0.5 4.322266 l -0.03516,-0.002 c 1.236139,0.09082 2.46331,-0.273622 3.447266,-1.027344 l 0.01758,-0.01563 0.01758,-0.01563 c 0.432574,-0.401911 0.770603,-0.895343 0.990234,-1.44336 0.21679,-0.541205 0.307151,-1.123044 0.275391,-1.705078 0.02275,-0.567068 -0.06635,-1.135433 -0.273437,-1.6640621 -0.211227,-0.539204 -0.53394,-1.0261258 -0.947266,-1.4316407 l -0.0098,-0.011719 -0.01172,-0.00977 C 17.654526,7.3028838 16.467556,6.8804328 15.251953,6.9193762 Z m 1,1 h 3.998047 0.0078 c 0.959031,-0.030724 1.892999,0.3029292 2.619141,0.9296876 0.306882,0.3043942 0.547371,0.6677302 0.705078,1.0703124 0.159771,0.4078428 0.232125,0.8457068 0.210937,1.2832028 l -0.002,0.02734 0.002,0.02539 c 0.02657,0.441996 -0.04431,0.885781 -0.208984,1.296875 -0.161774,0.403653 -0.412516,0.764128 -0.728516,1.0625 -0.78626,0.594689 -1.760388,0.886728 -2.74414,0.814453 l -0.01758,-0.002 h -3.841797 z"
     style="color:#000000;font-style:normal;font-variant:normal;font-weight:normal;font-stretch:normal;font-size:medium;line-height:normal;font-family:sans-serif;font-variant-ligatures:normal;font-variant-position:normal;font-variant-caps:normal;font-variant-numeric:normal;font-variant-alternates:normal;font-feature-settings:normal;text-indent:0;text-align:start;text-decoration:none;text-decoration-line:none;text-decoration-style:solid;text-decoration-color:#000000;letter-spacing:normal;word-spacing:normal;text-transform:none;writing-mode:lr-tb;direction:ltr;text-orientation:mixed;dominant-baseline:auto;baseline-shift:baseline;text-anchor:start;white-space:normal;shape-padding:0;clip-rule:nonzero;display:inline;overflow:visible;visibility:visible;opacity:1;isolation:auto;mix-blend-mode:normal;color-interpolation:sRGB;color-interpolation-filters:linearRGB;solid-color:#000000;solid-opacity:1;vector-effect:none;fill-opacity:1;fill-rule:nonzero;stroke:none;stroke-width:1;stroke-linecap:butt;stroke-linejoin:miter;stroke-miterlimit:4;stroke-dasharray:none;stroke-dashoffset:0;stroke-opacity:1;color-rendering:auto;image-rendering:auto;shape-rendering:auto;text-rendering:auto;enable-background:accumulate" />
</svg>
