<svg width="28" height="28" viewBox="0 0 28 28" fill="none" xmlns="http://www.w3.org/2000/svg">
<path d="M8.0325 12.8833H3.78V16.8033H2.38V12.8833H0V11.6846H2.35375V9.93456H0V8.76206H2.35375V0.012056H8.07625C9.58652 -0.0837754 11.0772 0.394384 12.25 1.35081C12.7483 1.81432 13.1395 2.38089 13.3963 3.01105C13.6532 3.64121 13.7697 4.3198 13.7375 4.99956C13.774 5.6811 13.6596 6.36229 13.4024 6.99452C13.1453 7.62675 12.7518 8.19444 12.25 8.65706C11.0711 9.58624 9.59212 10.0502 8.09375 9.96081H3.71875V11.7108H7.97125L8.0325 12.8833ZM3.78 8.76206H8.1025C9.21658 8.84391 10.3219 8.51386 11.2087 7.83456C11.5872 7.48289 11.8831 7.0518 12.0753 6.57223C12.2674 6.09266 12.351 5.5765 12.32 5.06081C12.3446 4.55284 12.2614 4.04542 12.0759 3.5719C11.8904 3.09837 11.6068 2.66945 11.2438 2.31331C10.4211 1.59783 9.35845 1.21965 8.26875 1.25456H3.78V8.76206Z" transform="translate(7 6.16547)" fill="white"/>
</svg>
