<svg width="100" height="54" viewBox="0 0 100 54" fill="none" xmlns="http://www.w3.org/2000/svg">
<path fill-rule="evenodd" clip-rule="evenodd" d="M13.5 0C12.9478 0 12.5 0.447754 12.5 1V6C12.5 6.55225 12.9478 7 13.5 7C14.0522 7 14.5 6.55225 14.5 6V1C14.5 0.447754 14.0522 0 13.5 0ZM20.25 1.80859C19.7717 1.53247 19.1602 1.69629 18.884 2.17456L16.384 6.50488C16.1079 6.98315 16.2717 7.59473 16.75 7.87085C17.2283 8.14697 17.8398 7.98315 18.116 7.50488L20.616 3.17456C20.8921 2.69629 20.7283 2.08472 20.25 1.80859ZM23.8254 6.38403C24.3037 6.10791 24.9153 6.27173 25.1914 6.75C25.4675 7.22827 25.3037 7.83984 24.8254 8.11597L20.4951 10.616C20.0168 10.8921 19.4053 10.7283 19.1292 10.25C18.853 9.77173 19.0168 9.16016 19.4951 8.88403L23.8254 6.38403ZM27 13.5C27 12.9478 26.5522 12.5 26 12.5H21C20.4478 12.5 20 12.9478 20 13.5C20 14.0522 20.4478 14.5 21 14.5H26C26.5522 14.5 27 14.0522 27 13.5ZM24.8254 18.884C25.3037 19.1602 25.4675 19.7717 25.1914 20.25C24.9153 20.7283 24.3037 20.8921 23.8254 20.616L19.4951 18.116C19.0168 17.8398 18.853 17.2283 19.1292 16.75C19.4053 16.2717 20.0168 16.1079 20.4951 16.384L24.8254 18.884ZM20.25 25.1914C20.7283 24.9153 20.8921 24.3037 20.616 23.8254L18.116 19.4951C17.8398 19.0168 17.2283 18.853 16.75 19.1292C16.2717 19.4053 16.1079 20.0168 16.384 20.4951L18.884 24.8254C19.1602 25.3037 19.7717 25.4675 20.25 25.1914ZM14.5 26C14.5 26.5522 14.0522 27 13.5 27C12.9478 27 12.5 26.5522 12.5 26V21C12.5 20.4478 12.9478 20 13.5 20C14.0522 20 14.5 20.4478 14.5 21V26ZM6.75 25.1914C7.22827 25.4675 7.83984 25.3037 8.11597 24.8254L10.616 20.4951C10.8921 20.0168 10.7283 19.4053 10.25 19.1292C9.77173 18.853 9.16016 19.0168 8.88403 19.4951L6.38403 23.8254C6.10791 24.3037 6.27173 24.9153 6.75 25.1914ZM3.17456 20.616C2.69629 20.8921 2.08472 20.7283 1.80859 20.25C1.53247 19.7717 1.69629 19.1602 2.17456 18.884L6.50488 16.384C6.98315 16.1079 7.59473 16.2717 7.87085 16.75C8.14697 17.2283 7.98315 17.8398 7.50488 18.116L3.17456 20.616ZM0 13.5C0 14.0522 0.447754 14.5 1 14.5H6C6.55225 14.5 7 14.0522 7 13.5C7 12.9478 6.55225 12.5 6 12.5H1C0.447754 12.5 0 12.9478 0 13.5ZM2.17456 8.11597C1.69629 7.83984 1.53247 7.22827 1.80859 6.75C2.08472 6.27173 2.69629 6.10791 3.17456 6.38403L7.50488 8.88403C7.98315 9.16016 8.14697 9.77173 7.87085 10.25C7.59473 10.7283 6.98315 10.8921 6.50488 10.616L2.17456 8.11597ZM6.75 1.80859C6.27173 2.08472 6.10791 2.69629 6.38403 3.17456L8.88403 7.50488C9.16016 7.98315 9.77173 8.14697 10.25 7.87085C10.7283 7.59473 10.8921 6.98315 10.616 6.50488L8.11597 2.17456C7.83984 1.69629 7.22827 1.53247 6.75 1.80859Z" transform="translate(73 27)" fill="url(#paint0_angular)"/>
<path fill-rule="evenodd" clip-rule="evenodd" d="M27 0C25.8955 0 25 0.895508 25 2V13C25 14.1045 25.8955 15 27 15C28.1045 15 29 14.1045 29 13V2C29 0.895508 28.1045 0 27 0ZM40.5 3.61743C39.5435 3.06494 38.3203 3.39282 37.7681 4.34937L32.2681 13.8757C31.7156 14.8323 32.0435 16.0554 33 16.6077C33.9565 17.1599 35.1797 16.8323 35.7319 15.8757L41.2319 6.34937C41.7844 5.39282 41.4565 4.16968 40.5 3.61743ZM47.6506 12.7681C48.6072 12.2156 49.8303 12.5435 50.3826 13.5C50.9351 14.4565 50.6072 15.6797 49.6506 16.2319L40.1243 21.7319C39.1677 22.2844 37.9446 21.9565 37.3923 21C36.8401 20.0435 37.1677 18.8203 38.1243 18.2681L47.6506 12.7681ZM54 27C54 25.8955 53.1045 25 52 25H41C39.8955 25 39 25.8955 39 27C39 28.1045 39.8955 29 41 29H52C53.1045 29 54 28.1045 54 27ZM49.6506 37.7681C50.6072 38.3203 50.9351 39.5435 50.3826 40.5C49.8303 41.4565 48.6072 41.7844 47.6506 41.2319L38.1243 35.7319C37.1677 35.1797 36.8401 33.9565 37.3923 33C37.9446 32.0435 39.1677 31.7156 40.1243 32.2681L49.6506 37.7681ZM40.5 50.3826C41.4565 49.8303 41.7844 48.6072 41.2319 47.6506L35.7319 38.1243C35.1797 37.1677 33.9565 36.8401 33 37.3923C32.0435 37.9446 31.7156 39.1677 32.2681 40.1243L37.7681 49.6506C38.3203 50.6072 39.5435 50.9351 40.5 50.3826ZM29 52C29 53.1045 28.1045 54 27 54C25.8955 54 25 53.1045 25 52V41C25 39.8955 25.8955 39 27 39C28.1045 39 29 39.8955 29 41V52ZM13.5 50.3826C14.4565 50.9351 15.6798 50.6072 16.2321 49.6506L21.7319 40.1243C22.2844 39.1677 21.9565 37.9446 21 37.3923C20.0435 36.8401 18.8203 37.1677 18.2681 38.1243L12.7679 47.6506C12.2157 48.6072 12.5435 49.8303 13.5 50.3826ZM6.34937 41.2319C5.39282 41.7844 4.16956 41.4565 3.61731 40.5C3.06506 39.5435 3.39282 38.3203 4.34937 37.7681L13.8756 32.2681C14.8323 31.7156 16.0554 32.0435 16.6077 33C17.1599 33.9565 16.8323 35.1797 15.8756 35.7319L6.34937 41.2319ZM0 27C0 28.1045 0.895386 29 2 29H13C14.1046 29 15 28.1045 15 27C15 25.8955 14.1046 25 13 25H2C0.895386 25 0 25.8955 0 27ZM4.34937 16.2319C3.39282 15.6797 3.06506 14.4565 3.61731 13.5C4.16956 12.5435 5.39282 12.2156 6.34937 12.7681L15.8756 18.2681C16.8323 18.8203 17.1599 20.0435 16.6077 21C16.0554 21.9565 14.8323 22.2844 13.8756 21.7319L4.34937 16.2319ZM13.5 3.61743C12.5435 4.16968 12.2157 5.39282 12.7679 6.34937L18.2681 15.8757C18.8203 16.8323 20.0435 17.1599 21 16.6077C21.9565 16.0554 22.2844 14.8323 21.7319 13.8757L16.2321 4.34937C15.6798 3.39282 14.4565 3.06494 13.5 3.61743Z" fill="url(#paint1_angular)"/>
<defs>
<radialGradient id="paint0_angular" cx="0.5" cy="0.5" r="0.5" gradientUnits="userSpaceOnUse" gradientTransform="scale(27)">
<stop offset="0.773847" stop-color="#6B727D"/>
<stop offset="0.795969" stop-color="#6B727D" stop-opacity="0.01"/>
</radialGradient>
<radialGradient id="paint1_angular" cx="0.5" cy="0.5" r="0.5" gradientUnits="userSpaceOnUse" gradientTransform="scale(54)">
<stop offset="0.773847" stop-color="#6B727D"/>
<stop offset="0.795969" stop-color="#6B727D" stop-opacity="0.01"/>
</radialGradient>
</defs>
</svg>
