<?xml version="1.0" encoding="UTF-8" standalone="no"?>
<svg
   xmlns:dc="http://purl.org/dc/elements/1.1/"
   xmlns:cc="http://creativecommons.org/ns#"
   xmlns:rdf="http://www.w3.org/1999/02/22-rdf-syntax-ns#"
   xmlns:svg="http://www.w3.org/2000/svg"
   xmlns="http://www.w3.org/2000/svg"
   id="svg2426"
   version="1.1"
   fill="none"
   viewBox="0 0 100 54"
   height="54"
   width="100">
  <metadata
     id="metadata2430">
    <rdf:RDF>
      <cc:Work
         rdf:about="">
        <dc:format>image/svg+xml</dc:format>
        <dc:type
           rdf:resource="http://purl.org/dc/dcmitype/StillImage" />
        <dc:title></dc:title>
      </cc:Work>
    </rdf:RDF>
  </metadata>
  <path
     id="path2410"
     d="M 86.5,26.5 C 85.677515,26.5 85,27.177464 85,28 v 5 c 0,0.822538 0.677517,1.5 1.5,1.5 0.822483,0 1.5,-0.677462 1.5,-1.5 v -5 c 0,-0.822536 -0.677515,-1.5 -1.5,-1.5 z m 0,1 c 0.281915,0 0.5,0.218044 0.5,0.5 v 5 c 0,0.281962 -0.218083,0.5 -0.5,0.5 C 86.218083,33.5 86,33.281962 86,33 v -5 c 0,-0.281956 0.218085,-0.5 0.5,-0.5 z m -5.863281,0.728516 C 80.264915,28.128905 79.856134,28.169393 79.5,28.375 c -0.712303,0.411249 -0.960043,1.336559 -0.548828,2.048828 l 2.5,4.330078 c 0.411249,0.712303 1.336559,0.961996 2.048828,0.550781 0.71235,-0.411235 0.96001,-1.336564 0.548828,-2.048828 l -2.5,-4.332031 c -0.205625,-0.356151 -0.540305,-0.595702 -0.912109,-0.695312 z m 11.726562,0 c -0.371795,0.09961 -0.706457,0.339204 -0.912109,0.695312 l -2.5,4.332031 C 88.53999,33.968123 88.78765,34.893452 89.5,35.304687 c 0.712267,0.411188 1.637525,0.163388 2.048828,-0.548828 l 2.5,-4.332031 C 94.460008,29.711567 94.212337,28.786243 93.5,28.375 93.143867,28.169406 92.735077,28.128908 92.363281,28.228516 Z M 80,29.242187 c 0.244271,-0.141025 0.542583,-0.0626 0.683594,0.181641 l 2.5,4.330078 C 83.324612,33.998183 83.24425,34.296496 83,34.4375 c -0.244271,0.141025 -0.542583,0.06064 -0.683594,-0.183594 l -2.5,-4.330078 C 79.675381,29.679557 79.755763,29.383198 80,29.242187 Z m 13,0 c 0.244263,0.141017 0.324613,0.437362 0.183594,0.681641 l -2.5,4.330078 C 90.542497,34.49823 90.244333,34.578552 90,34.4375 89.75575,34.296496 89.675388,33.998183 89.816406,33.753906 l 2.5,-4.330078 C 92.457503,29.179504 92.755667,29.101135 93,29.242187 Z m -17.712891,3.5625 C 74.915305,32.904298 74.580625,33.143848 74.375,33.5 c -0.411215,0.712269 -0.163475,1.637579 0.548828,2.048828 l 4.332031,2.5 c 0.712264,0.411182 1.637593,0.163522 2.048828,-0.548828 0.411215,-0.712269 0.161522,-1.637579 -0.550781,-2.048828 l -4.330078,-2.5 c -0.356134,-0.205608 -0.764914,-0.246095 -1.136719,-0.146485 z m 22.425782,0 c -0.371812,-0.09961 -0.780573,-0.05912 -1.136719,0.146485 l -4.332031,2.5 c -0.712338,0.411243 -0.960154,1.336573 -0.548829,2.048828 0.411195,0.712329 1.33657,0.959982 2.048829,0.548828 l 4.332031,-2.5 C 98.788509,35.137585 99.03618,34.212261 98.625,33.5 98.419387,33.14383 98.084702,32.904299 97.712891,32.804687 Z m -21.789063,1.011719 4.332031,2.5 C 80.500096,36.457417 80.578525,36.755729 80.4375,37 c -0.141004,0.24425 -0.439317,0.324612 -0.683594,0.183594 l -4.330078,-2.5 C 75.179591,34.542583 75.101162,34.244271 75.242187,34 c 0.141011,-0.244237 0.43737,-0.324619 0.681641,-0.183594 z m 21.152344,0 C 97.320479,33.675369 97.616839,33.7558 97.757812,34 c 0.14102,0.244279 0.06262,0.542577 -0.18164,0.683594 l -4.330078,2.5 C 93.001753,37.32464 92.703506,37.244271 92.5625,37 92.421426,36.755715 92.499878,36.457423 92.744141,36.316406 Z M 74,39 c -0.822536,0 -1.5,0.677515 -1.5,1.5 0,0.822485 0.677464,1.5 1.5,1.5 h 5 c 0.822538,0 1.5,-0.677517 1.5,-1.5 C 80.5,39.677517 79.822538,39 79,39 Z m 20,0 c -0.822513,0 -1.5,0.677487 -1.5,1.5 0,0.822513 0.677487,1.5 1.5,1.5 h 5 c 0.822513,0 1.5,-0.677487 1.5,-1.5 0,-0.822513 -0.677487,-1.5 -1.5,-1.5 z m -20,1 h 5 c 0.281962,0 0.5,0.218083 0.5,0.5 0,0.281917 -0.218038,0.5 -0.5,0.5 h -5 c -0.281956,0 -0.5,-0.218085 -0.5,-0.5 0,-0.281915 0.218044,-0.5 0.5,-0.5 z m 20,0 h 5 c 0.281887,0 0.5,0.218113 0.5,0.5 0,0.281887 -0.218113,0.5 -0.5,0.5 h -5 c -0.281887,0 -0.5,-0.218113 -0.5,-0.5 0,-0.281887 0.218113,-0.5 0.5,-0.5 z m -13.607422,2.804688 c -0.371806,-0.09962 -0.780587,-0.05911 -1.136719,0.146484 l -4.332031,2.5 C 74.211612,45.862475 73.963812,46.787733 74.375,47.5 c 0.411243,0.712337 1.336567,0.960008 2.048828,0.548828 l 4.332031,-2.5 C 81.468075,45.137525 81.715875,44.212267 81.304687,43.5 81.09907,43.143825 80.764384,42.904302 80.392578,42.804688 Z m 12.214844,0 c -0.371793,0.09962 -0.706512,0.339147 -0.91211,0.695312 -0.411299,0.712253 -0.163422,1.637531 0.548829,2.048828 l 4.332031,2.5 C 97.288457,48.459997 98.21378,48.212375 98.625,47.5 c 0.411153,-0.712259 0.163422,-1.637531 -0.548828,-2.048828 l -4.332031,-2.5 c -0.35613,-0.205577 -0.764926,-0.246103 -1.136719,-0.146484 z M 79.753906,43.816406 C 79.998183,43.675388 80.296496,43.75575 80.4375,44 c 0.141052,0.244333 0.06073,0.542497 -0.183594,0.683594 l -4.330078,2.5 C 75.679549,47.324613 75.383204,47.244263 75.242187,47 c -0.141052,-0.244333 -0.06268,-0.542497 0.181641,-0.683594 z m 13.490235,0 4.332031,2.5 c 0.24435,0.141103 0.322687,0.439253 0.18164,0.683594 -0.140979,0.244225 -0.437325,0.324625 -0.68164,0.183594 l -4.330078,-2.5 C 92.501744,44.542491 92.421399,44.244347 92.5625,44 c 0.14063,-0.24362 0.437669,-0.323091 0.681641,-0.183594 z m -10.88086,1.732422 c -0.371822,0.0996 -0.706487,0.339144 -0.912109,0.695313 l -2.5,4.332031 C 78.539969,51.288465 78.78766,52.213774 79.5,52.625 c 0.712261,0.41118 1.637585,0.163509 2.048828,-0.548828 l 2.5,-4.332031 C 84.459982,47.031882 84.212329,46.106507 83.5,45.695312 83.143872,45.48965 82.735103,45.44923 82.363281,45.548828 Z m 8.273438,0 c -0.371813,-0.0996 -0.780592,-0.05917 -1.136719,0.146484 -0.712329,0.411195 -0.959982,1.33657 -0.548828,2.048829 l 2.5,4.332031 c 0.411297,0.71225 1.336569,0.959981 2.048828,0.548828 0.712375,-0.41122 0.959997,-1.336543 0.548828,-2.048828 l -2.5,-4.332031 C 91.343179,45.888015 91.008532,45.648423 90.636719,45.548828 Z M 86.5,46.5 C 85.677487,46.5 85,47.177487 85,48 v 5 c 0,0.822513 0.677487,1.5 1.5,1.5 0.822513,0 1.5,-0.677487 1.5,-1.5 v -5 c 0,-0.822513 -0.677487,-1.5 -1.5,-1.5 z M 83,46.5625 c 0.244271,0.141006 0.32464,0.439253 0.183594,0.683594 l -2.5,4.330078 C 80.542577,51.820434 80.244279,51.898832 80,51.757812 79.7558,51.616839 79.675369,51.320479 79.816406,51.076172 l 2.5,-4.332031 C 82.457423,46.499878 82.755715,46.421426 83,46.5625 Z m 7,0 c 0.244347,-0.141101 0.542491,-0.06076 0.683594,0.183594 l 2.5,4.330078 c 0.141031,0.244315 0.06063,0.540661 -0.183594,0.68164 -0.244341,0.141047 -0.542491,0.06271 -0.683594,-0.18164 l -2.5,-4.330078 v -0.002 C 89.676909,47.000169 89.75638,46.70313 90,46.5625 Z M 86.5,47.5 c 0.281887,0 0.5,0.218113 0.5,0.5 v 5 c 0,0.281887 -0.218113,0.5 -0.5,0.5 C 86.218113,53.5 86,53.281887 86,53 v -5 c 0,-0.281887 0.218113,-0.5 0.5,-0.5 z"
     style="color:#000000;font-style:normal;font-variant:normal;font-weight:normal;font-stretch:normal;font-size:medium;line-height:normal;font-family:sans-serif;font-variant-ligatures:normal;font-variant-position:normal;font-variant-caps:normal;font-variant-numeric:normal;font-variant-alternates:normal;font-feature-settings:normal;text-indent:0;text-align:start;text-decoration:none;text-decoration-line:none;text-decoration-style:solid;text-decoration-color:#000000;letter-spacing:normal;word-spacing:normal;text-transform:none;writing-mode:lr-tb;direction:ltr;text-orientation:mixed;dominant-baseline:auto;baseline-shift:baseline;text-anchor:start;white-space:normal;shape-padding:0;clip-rule:evenodd;display:inline;overflow:visible;visibility:visible;opacity:1;isolation:auto;mix-blend-mode:normal;color-interpolation:sRGB;color-interpolation-filters:linearRGB;solid-color:#000000;solid-opacity:1;vector-effect:none;fill-opacity:1;fill-rule:evenodd;stroke:none;stroke-width:1;stroke-linecap:butt;stroke-linejoin:miter;stroke-miterlimit:4;stroke-dasharray:none;stroke-dashoffset:0;stroke-opacity:1;color-rendering:auto;image-rendering:auto;shape-rendering:auto;text-rendering:auto;enable-background:accumulate" />
  <path
     id="path2412"
     d="m 27,-0.5 c -1.37476,0 -2.5,1.12524801 -2.5,2.5 v 11 c 0,1.374758 1.125242,2.5 2.5,2.5 1.374758,0 2.5,-1.125242 2.5,-2.5 V 2 c 0,-1.37475199 -1.12524,-2.5 -2.5,-2.5 z m 0,1 c 0.83424,0 1.5,0.665768 1.5,1.5 v 11 c 0,0.834242 -0.665758,1.5 -1.5,1.5 -0.834242,0 -1.5,-0.665758 -1.5,-1.5 V 2 C 25.5,1.165768 26.16576,0.5 27,0.5 Z M 15.146484,2.9375 C 14.527436,2.7716368 13.845288,2.8397457 13.25,3.1835938 12.059483,3.870957 11.646681,5.4090256 12.333984,6.5996094 L 17.835938,16.125 c 0.68732,1.190675 2.223554,1.603311 3.414062,0.916016 1.190475,-0.687402 1.601731,-2.225385 0.914062,-3.416016 L 16.666016,4.0996094 C 16.322305,3.5043234 15.765533,3.1033632 15.146484,2.9375 Z m 23.707032,0 c -0.61902,0.1658686 -1.173925,0.5668149 -1.517578,1.1621094 l -5.5,9.5253906 c -0.687669,1.190631 -0.276413,2.728614 0.914062,3.416016 1.190508,0.687295 2.726742,0.274659 3.414062,-0.916016 l 5.5,-9.5253906 C 42.351748,5.4090115 41.940504,3.8709494 40.75,3.1835938 40.154719,2.8397495 39.472535,2.7716314 38.853516,2.9375 Z M 14.888672,3.8964844 c 0.369802,0.099092 0.701567,0.341861 0.910156,0.703125 l 5.5,9.5253906 C 21.71616,14.847569 21.472525,15.756629 20.75,16.173828 20.027508,16.590932 19.118252,16.347525 18.701172,15.625 l -5.5,-9.5253906 C 12.784076,5.3770932 13.027517,4.467918 13.75,4.0507812 14.111212,3.8421393 14.51887,3.7973926 14.888672,3.8964844 Z m 24.222656,0 c 0.369756,-0.099086 0.777453,-0.054349 1.138672,0.1542968 0.722496,0.4171444 0.966143,1.3263261 0.548828,2.0488282 l -5.5,9.5253906 C 34.881748,16.347525 33.972492,16.590932 33.25,16.173828 32.527475,15.756629 32.28384,14.847569 32.701172,14.125 l 5.5,-9.5253906 c 0.208547,-0.3612556 0.5404,-0.6040386 0.910156,-0.703125 z M 4.703125,12.087891 C 4.0840857,12.253751 3.5272794,12.654735 3.1835938,13.25 c -0.6873781,1.190543 -0.274589,2.726747 0.9160156,3.414062 l 9.5253906,5.5 c 1.190708,0.687642 2.728614,0.276413 3.416016,-0.914062 0.687295,-1.190508 0.274757,-2.726757 -0.916016,-3.414062 l -9.5253906,-5.5 C 6.0043026,11.99209 5.3221643,11.92203 4.703125,12.087891 Z m 44.59375,0 c -0.619013,-0.165862 -1.301169,-0.09579 -1.896484,0.248047 l -9.525391,5.5 c -1.190675,0.68732 -1.603311,2.223554 -0.916016,3.414062 0.687402,1.190475 2.225385,1.601731 3.416016,0.914062 l 9.525391,-5.5 C 51.091026,15.976765 51.50411,14.440567 50.816406,13.25 50.472706,12.654763 49.915888,12.253752 49.296875,12.087891 Z M 4.9609375,13.048828 c 0.3697907,-0.09909 0.7774287,-0.05631 1.1386719,0.152344 l 9.5253906,5.5 c 0.722627,0.417095 0.965932,1.326336 0.548828,2.048828 -0.417199,0.722525 -1.326136,0.966187 -2.048828,0.548828 l -9.5253906,-5.5 C 3.877114,15.381744 3.6336593,14.472457 4.0507812,13.75 4.2593456,13.388765 4.5911468,13.147917 4.9609375,13.048828 Z m 44.0781245,0 c 0.369762,0.09909 0.701557,0.339909 0.910157,0.701172 0.417296,0.722433 0.173736,1.631726 -0.548828,2.048828 l -9.525391,5.5 C 39.152431,21.71616 38.243371,21.472525 37.826172,20.75 37.409068,20.027508 37.652475,19.118252 38.375,18.701172 l 9.525391,-5.5 c 0.361284,-0.208666 0.76891,-0.251432 1.138671,-0.152344 z M 2,24.5 c -1.37484414,0 -2.5,1.125276 -2.5,2.5 0,1.374724 1.12515586,2.5 2.5,2.5 h 11 c 1.374834,0 2.5,-1.125272 2.5,-2.5 0,-1.374728 -1.125166,-2.5 -2.5,-2.5 z m 39,0 c -1.374758,0 -2.5,1.125242 -2.5,2.5 0,1.374758 1.125242,2.5 2.5,2.5 h 11 c 1.374758,0 2.5,-1.125242 2.5,-2.5 0,-1.374758 -1.125242,-2.5 -2.5,-2.5 z m -39,1 h 11 c 0.834366,0 1.5,0.665728 1.5,1.5 0,0.834272 -0.665634,1.5 -1.5,1.5 H 2 C 1.1656161,28.5 0.5,27.834276 0.5,27 0.5,26.165724 1.1656161,25.5 2,25.5 Z m 39,0 h 11 c 0.834242,0 1.5,0.665758 1.5,1.5 0,0.834242 -0.665758,1.5 -1.5,1.5 H 41 c -0.834242,0 -1.5,-0.665758 -1.5,-1.5 0,-0.834242 0.665758,-1.5 1.5,-1.5 z M 15.521484,31.587891 C 14.90246,31.422029 14.220354,31.492117 13.625,31.835938 l -9.5253906,5.5 C 2.9090048,38.023253 2.4962157,39.559457 3.1835938,40.75 c 0.6873713,1.190531 2.225402,1.601757 3.4160156,0.914062 l 9.5253906,-5.5 C 17.315773,35.476757 17.728311,33.940508 17.041016,32.75 16.697315,32.154763 16.140508,31.753752 15.521484,31.587891 Z m 22.957032,0 c -0.619014,0.165861 -1.175831,0.566872 -1.519532,1.162109 -0.687295,1.190508 -0.274659,2.726742 0.916016,3.414062 l 9.525391,5.5 c 1.190631,0.687669 2.728614,0.276413 3.416015,-0.914062 0.687704,-1.190567 0.27462,-2.726765 -0.916015,-3.414062 l -9.525391,-5.5 c -0.595316,-0.343835 -1.277471,-0.413909 -1.896484,-0.248047 z m -23.212891,0.960937 c 0.369776,0.09909 0.699604,0.339909 0.908203,0.701172 0.417104,0.722492 0.173799,1.631733 -0.548828,2.048828 l -9.5253906,5.5 C 5.3771229,41.216134 4.4679099,40.972469 4.0507812,40.25 3.6336593,39.527543 3.877114,38.618256 4.5996094,38.201172 l 9.5253906,-5.5 c 0.361346,-0.208679 0.770849,-0.251433 1.140625,-0.152344 z m 23.46875,0 c 0.369762,-0.09909 0.779341,-0.05632 1.140625,0.152344 l 9.525391,5.5 c 0.722564,0.417102 0.966124,1.326395 0.548828,2.048828 -0.417199,0.722525 -1.32626,0.96616 -2.048828,0.548828 l -9.525391,-5.5 C 37.652475,34.881748 37.409068,33.972492 37.826172,33.25 c 0.208599,-0.361263 0.538441,-0.602084 0.908203,-0.701172 z m -19.380859,4.164063 c -0.619002,0.16584 -1.173918,0.566772 -1.517578,1.162109 l -5.501954,9.525391 c -0.687287,1.190617 -0.274472,2.728606 0.916016,3.416015 1.19058,0.687711 2.728603,0.274603 3.416016,-0.916015 L 22.164062,40.375 C 22.851731,39.184369 22.440475,37.646386 21.25,36.958984 20.654746,36.615336 19.972517,36.54705 19.353516,36.712891 Z m 15.292968,0 C 34.027483,36.54705 33.345254,36.615336 32.75,36.958984 31.559525,37.646386 31.148269,39.184369 31.835938,40.375 l 5.5,9.525391 c 0.687297,1.190635 2.223495,1.603719 3.414062,0.916015 1.190475,-0.687401 1.601731,-2.225384 0.914062,-3.416015 l -5.5,-9.525391 c -0.34366,-0.595337 -0.898576,-0.996269 -1.517578,-1.162109 z m -15.035156,0.958984 c 0.369774,-0.09906 0.777426,-0.05425 1.138672,0.154297 0.722525,0.417199 0.96616,1.326259 0.548828,2.048828 l -5.5,9.525391 C 15.38164,50.122972 14.47242,50.366508 13.75,49.949219 13.027488,49.532028 12.784059,48.622973 13.201172,47.900391 l 5.5,-9.525391 c 0.20854,-0.361263 0.540382,-0.604065 0.910156,-0.703125 z m 14.777344,0 c 0.369774,0.09906 0.701616,0.341862 0.910156,0.703125 l 5.5,9.525391 c 0.417332,0.722568 0.173697,1.631629 -0.548828,2.048828 -0.722433,0.417296 -1.631726,0.173736 -2.048828,-0.548828 l -5.5,-9.525391 C 32.28384,39.152431 32.527475,38.243371 33.25,37.826172 33.611246,37.61762 34.018898,37.572815 34.388672,37.671875 Z M 27,38.5 c -1.374758,0 -2.5,1.125242 -2.5,2.5 v 11 c 0,1.374758 1.125242,2.5 2.5,2.5 1.374758,0 2.5,-1.125242 2.5,-2.5 V 41 c 0,-1.374758 -1.125242,-2.5 -2.5,-2.5 z m 0,1 c 0.834242,0 1.5,0.665758 1.5,1.5 v 11 c 0,0.834242 -0.665758,1.5 -1.5,1.5 -0.834242,0 -1.5,-0.665758 -1.5,-1.5 V 41 c 0,-0.834242 0.665758,-1.5 1.5,-1.5 z"
     style="color:#000000;font-style:normal;font-variant:normal;font-weight:normal;font-stretch:normal;font-size:medium;line-height:normal;font-family:sans-serif;font-variant-ligatures:normal;font-variant-position:normal;font-variant-caps:normal;font-variant-numeric:normal;font-variant-alternates:normal;font-feature-settings:normal;text-indent:0;text-align:start;text-decoration:none;text-decoration-line:none;text-decoration-style:solid;text-decoration-color:#000000;letter-spacing:normal;word-spacing:normal;text-transform:none;writing-mode:lr-tb;direction:ltr;text-orientation:mixed;dominant-baseline:auto;baseline-shift:baseline;text-anchor:start;white-space:normal;shape-padding:0;clip-rule:evenodd;display:inline;overflow:visible;visibility:visible;opacity:1;isolation:auto;mix-blend-mode:normal;color-interpolation:sRGB;color-interpolation-filters:linearRGB;solid-color:#000000;solid-opacity:1;vector-effect:none;fill-opacity:1;fill-rule:evenodd;stroke:none;stroke-width:1;stroke-linecap:butt;stroke-linejoin:miter;stroke-miterlimit:4;stroke-dasharray:none;stroke-dashoffset:0;stroke-opacity:1;color-rendering:auto;image-rendering:auto;shape-rendering:auto;text-rendering:auto;enable-background:accumulate" />
  <defs
     id="defs2424">
    <radialGradient
       gradientTransform="scale(27)"
       gradientUnits="userSpaceOnUse"
       r="0.5"
       cy="0.5"
       cx="0.5"
       id="paint0_angular">
      <stop
         id="stop2414"
         stop-color="#6B727D"
         offset="0.773847" />
      <stop
         id="stop2416"
         stop-opacity="0.01"
         stop-color="#6B727D"
         offset="0.795969" />
    </radialGradient>
    <radialGradient
       gradientTransform="scale(54)"
       gradientUnits="userSpaceOnUse"
       r="0.5"
       cy="0.5"
       cx="0.5"
       id="paint1_angular">
      <stop
         id="stop2419"
         stop-color="#6B727D"
         offset="0.773847" />
      <stop
         id="stop2421"
         stop-opacity="0.01"
         stop-color="#6B727D"
         offset="0.795969" />
    </radialGradient>
  </defs>
</svg>
