<!-- Generated by IcoMoon.io -->
<svg version="1.1" xmlns="http://www.w3.org/2000/svg" width="31" height="32" viewBox="0 0 31 32">
<title>Backspace</title>
<path fill="#fff" opacity="0.15" d="M0 3.721c0-2.055 1.666-3.721 3.721-3.721h23.814c2.055 0 3.721 1.666 3.721 3.721v23.814c0 2.055-1.666 3.721-3.721 3.721h-23.814c-2.055 0-3.721-1.666-3.721-3.721v-23.814z"></path>
<path fill="none" stroke="#fff" stroke-width="0.7442" stroke-miterlimit="4" stroke-linecap="butt" stroke-linejoin="miter" d="M23.442 20.043c0 0.656-0.512 1.166-1.115 1.166h-8.777l-5.581-5.581 5.581-5.581h8.777c0.604 0 1.115 0.513 1.115 1.166v8.83z"></path>
<path fill="#fff" d="M17.488 15.102l-2.368-2.368-0.526 0.526 2.368 2.368-2.368 2.368 0.526 0.526 2.368-2.368 2.368 2.368 0.526-0.526-2.368-2.368 2.368-2.368-0.526-0.526-2.368 2.368z"></path>
</svg>
