<!-- Generated by IcoMoon.io -->
<svg version="1.1" xmlns="http://www.w3.org/2000/svg" width="43" height="32" viewBox="0 0 43 32">
<title>Delete</title>
<path fill="#fff" d="M7.978 23.97l-0.364-0.355-3.667-3.672c-0.052-0.052-0.095-0.095-0.184-0.186-0.087-0.088-0.122-0.123-0.169-0.17s-0.079-0.079-0.155-0.156l-0.133-0.136c-0.309-0.306-0.603-0.629-0.88-0.965-0.253-0.274-0.459-0.588-0.61-0.93l-0.045-0.119c-0.268-0.832-0.268-1.728 0-2.561l0.042-0.112c0.149-0.343 0.356-0.658 0.613-0.93 0.266-0.332 0.551-0.647 0.855-0.944 0.086-0.095 0.163-0.174 0.313-0.324 0.042-0.041 0.078-0.078 0.166-0.167l3.832-3.829c0.114-0.119 0.216-0.221 0.377-0.377l0.151-0.149c0.061-0.060 0.112-0.11 0.164-0.16l4.088-4.081c0.179-0.185 0.342-0.346 0.604-0.601 0.17-0.174 0.346-0.346 0.543-0.532 0.155-0.166 0.188-0.2 0.207-0.218 0.551-0.55 1.185-1.011 1.882-1.367 0.692-0.352 1.435-0.596 2.194-0.723 0.707-0.122 1.423-0.186 2.115-0.19l0.361-0.009c0.211-0.005 0.389-0.007 0.563-0.007h11.531c0.263 0 0.47 0.004 0.896 0.016 0.719 0.004 1.436 0.068 2.138 0.189 0.765 0.128 1.507 0.372 2.196 0.724 0.697 0.354 1.333 0.815 1.885 1.368 0.55 0.55 1.011 1.183 1.372 1.886 0.345 0.69 0.588 1.427 0.721 2.199 0.114 0.701 0.176 1.409 0.185 2.098 0.006 0.199 0.008 0.352 0.012 0.695l0.003 0.236v13.177c0 0.29-0.005 0.59-0.015 0.91-0.009 0.71-0.071 1.418-0.187 2.131-0.132 0.761-0.374 1.498-0.727 2.202-0.356 0.688-0.815 1.318-1.364 1.871-0.552 0.553-1.188 1.015-1.883 1.367-0.691 0.353-1.433 0.597-2.199 0.725-0.704 0.117-1.416 0.18-2.11 0.188-0.453 0.013-0.66 0.017-0.923 0.017h-11.528c-0.174 0-0.352-0.003-0.563-0.007l-0.343-0.009c-0.712-0.009-1.423-0.072-2.126-0.189-0.766-0.128-1.508-0.372-2.203-0.725-0.694-0.355-1.328-0.815-1.854-1.341-0.044-0.041-0.068-0.066-0.163-0.167l-0.073-0.077c-0.229-0.219-0.381-0.368-0.518-0.509-0.259-0.253-0.44-0.432-0.613-0.609l-3.979-3.977-0.136-0.129-0.293-0.29zM31.316 30.769l0-1.231h1.054c0.233 0 0.424-0.004 0.874-0.016 0.588-0.007 1.176-0.059 1.755-0.156 0.517-0.086 1.018-0.252 1.487-0.491 0.465-0.236 0.889-0.544 1.255-0.91 0.37-0.373 0.681-0.799 0.914-1.251 0.238-0.475 0.405-0.982 0.493-1.493 0.095-0.58 0.146-1.167 0.154-1.775 0.009-0.318 0.014-0.595 0.014-0.858v-13.16l-0.003-0.224c-0.004-0.328-0.006-0.471-0.012-0.672-0.007-0.588-0.059-1.174-0.151-1.742-0.090-0.523-0.257-1.030-0.49-1.494-0.238-0.465-0.547-0.889-0.917-1.259-0.368-0.369-0.793-0.677-1.26-0.914-0.467-0.238-0.968-0.403-1.491-0.491-0.575-0.099-1.157-0.151-1.768-0.155-0.431-0.012-0.622-0.016-0.854-0.016h-11.531c-0.152 0-0.312 0.002-0.506 0.007l-0.377 0.010c-0.582 0.004-1.163 0.055-1.744 0.156-0.519 0.087-1.022 0.252-1.489 0.489-0.465 0.238-0.891 0.547-1.285 0.94-0.131 0.14-0.183 0.195-0.228 0.238-0.178 0.168-0.331 0.317-0.496 0.486-0.269 0.262-0.419 0.411-0.591 0.588l-4.152 4.153c-0.067 0.055-0.094 0.082-0.123 0.111l-0.097 0.096c-0.208 0.203-0.292 0.287-0.4 0.399l-3.84 3.838c-0.088 0.090-0.133 0.135-0.181 0.182-0.131 0.131-0.185 0.187-0.244 0.253-0.315 0.309-0.551 0.571-0.77 0.847l-0.090 0.102c-0.053 0.054-0.098 0.116-0.133 0.183-0.084 0.301-0.084 0.619-0.001 0.92 0.040 0.077 0.091 0.148 0.151 0.211 0.291 0.35 0.536 0.62 0.806 0.888l0.144 0.147 0.137 0.138c0.052 0.052 0.095 0.095 0.184 0.186 0.086 0.088 0.122 0.123 0.17 0.171l3.66 3.665 0.358 0.35 0.239 0.237c0.043 0.035 0.084 0.073 0.122 0.114l4.072 4.071c0.167 0.171 0.335 0.338 0.602 0.599 0.134 0.137 0.27 0.27 0.457 0.449 0.052 0.047 0.063 0.059 0.183 0.186 0.041 0.043 0.072 0.075 0.088 0.091 0.37 0.369 0.795 0.678 1.258 0.915 0.469 0.238 0.972 0.404 1.491 0.49 0.579 0.096 1.165 0.148 1.771 0.156l0.351 0.009c0.193 0.004 0.354 0.007 0.506 0.007h10.471l0.003 1.231z"></path>
</svg>
