<!-- Generated by IcoMoon.io -->
<svg version="1.1" xmlns="http://www.w3.org/2000/svg" width="32" height="32" viewBox="0 0 32 32">
<title>dollar</title>
<path fill="#ffd596" d="M19.627 21.52c0.016-0.444-0.061-0.886-0.224-1.299s-0.411-0.788-0.726-1.101c-0.984-0.81-2.125-1.409-3.35-1.76-1.556-0.381-2.993-1.144-4.18-2.22-0.822-0.909-1.254-2.105-1.2-3.33-0.026-0.639 0.077-1.277 0.304-1.875s0.572-1.144 1.016-1.605c0.969-0.932 2.247-1.476 3.59-1.53v-2.66h1.35v2.66c0.686 0.028 1.358 0.197 1.976 0.496s1.167 0.723 1.614 1.244c0.903 1.185 1.354 2.653 1.27 4.14h-1.57c0.062-1.193-0.323-2.366-1.080-3.29-0.369-0.406-0.823-0.724-1.329-0.934s-1.053-0.304-1.601-0.276c-1.067-0.062-2.115 0.297-2.92 1-0.352 0.336-0.628 0.744-0.809 1.196s-0.263 0.937-0.241 1.424c-0.021 0.461 0.058 0.921 0.23 1.349s0.435 0.814 0.77 1.131c0.973 0.766 2.088 1.334 3.28 1.67 1.178 0.362 2.307 0.869 3.36 1.51 0.655 0.429 1.194 1.013 1.57 1.7 0.366 0.728 0.544 1.536 0.52 2.35 0.021 0.646-0.091 1.29-0.33 1.89s-0.6 1.145-1.060 1.6c-1.018 0.928-2.333 1.463-3.71 1.51v2.49h-1.29v-2.5c-1.533-0.011-3.004-0.609-4.11-1.67-0.5-0.552-0.885-1.198-1.134-1.9s-0.356-1.446-0.316-2.19h1.56c-0.040 0.596 0.045 1.195 0.25 1.756s0.525 1.074 0.94 1.504c0.453 0.408 0.982 0.721 1.557 0.922s1.185 0.285 1.793 0.248c1.104 0.047 2.188-0.308 3.050-1 0.386-0.322 0.693-0.729 0.898-1.188s0.301-0.96 0.282-1.462z"></path>
</svg>
