<!-- Generated by IcoMoon.io -->
<svg version="1.1" xmlns="http://www.w3.org/2000/svg" width="32" height="32" viewBox="0 0 32 32">
<title>euro</title>
<path fill="#fff" d="M18.477 18.84h-5.52v0.22c-0.105 1.623 0.406 3.226 1.43 4.49 0.513 0.538 1.135 0.959 1.826 1.233s1.432 0.396 2.174 0.357c0.981 0.007 1.957-0.145 2.89-0.45l0.13 1.42c-0.979 0.262-1.987 0.396-3 0.4-0.947 0.053-1.894-0.091-2.783-0.423s-1.698-0.845-2.377-1.507c-1.328-1.468-2.018-3.403-1.92-5.38v-0.36h-2.47v-1.19h2.53v-2.16h-2.53v-1.18h2.53c-0.123-2.022 0.552-4.011 1.88-5.54 0.673-0.678 1.481-1.206 2.372-1.551s1.844-0.498 2.798-0.449c1.032 0.023 2.058 0.16 3.060 0.41l-0.13 1.42c-0.945-0.297-1.929-0.452-2.92-0.46-0.741-0.044-1.482 0.073-2.173 0.344s-1.314 0.689-1.827 1.226c-1.033 1.294-1.54 2.929-1.42 4.58h5.52v1.18h-5.59v2.16h5.52v1.21z"></path>
</svg>
