<!-- Generated by IcoMoon.io -->
<svg version="1.1" xmlns="http://www.w3.org/2000/svg" width="32" height="32" viewBox="0 0 32 32">
<title>ic_edit</title>
<path fill="#fff" d="M14.267 21.71l-1.355-1.354 14.69-14.677 1.355 1.354-14.69 14.677zM11.607 19.050l-1.355-1.354 14.688-14.677 1.355 1.354-14.688 14.677zM9.143 23.2l1.113-5.508 4.016 4.014-5.129 1.493zM31.249 1.923l-1.358-1.357c-0.753-0.754-1.955-0.753-2.696-0.011l-1.343 1.342 4.065 4.063 1.344-1.342c0.746-0.748 0.735-1.949-0.012-2.696zM27.595 30.481h-26.061v-25.811h19.688l1.519-1.518h-22.741v28.848h29.129v-22.724l-1.534 1.533v19.672z"></path>
</svg>
