<!-- Generated by IcoMoon.io -->
<svg version="1.1" xmlns="http://www.w3.org/2000/svg" width="32" height="32" viewBox="0 0 32 32">
<title>ic_notice</title>
<path fill="#fff" d="M29.913 16c0-7.684-6.229-13.913-13.913-13.913s-13.913 6.229-13.913 13.913c0 7.684 6.229 13.913 13.913 13.913s13.913-6.229 13.913-13.913zM31.304 16c0 8.452-6.852 15.304-15.304 15.304s-15.304-6.852-15.304-15.304c0-8.452 6.852-15.304 15.304-15.304s15.304 6.852 15.304 15.304zM15.304 15.304h-7.652v1.391h7.652v6.957h1.391v-6.957h7.652v-1.391h-7.652v-8.348h-1.391v8.348z"></path>
</svg>
