<!-- Generated by IcoMoon.io -->
<svg version="1.1" xmlns="http://www.w3.org/2000/svg" width="32" height="32" viewBox="0 0 32 32">
<title>ic_refresh</title>
<path fill="#fff" d="M10.061 22.241l-0.382 3.051c-0.034 0.274-0.284 0.468-0.558 0.434s-0.468-0.284-0.434-0.558l0.585-4.669 5.067 0.243c0.276 0.013 0.489 0.248 0.476 0.523s-0.248 0.489-0.523 0.476l-3.473-0.167-0.757 0.668z"></path>
<path fill="#fff" d="M21.028 8.862l-0.42-3.046c-0.038-0.274 0.153-0.526 0.427-0.564s0.526 0.153 0.564 0.427l0.643 4.661-4.957 1.077c-0.27 0.059-0.536-0.113-0.595-0.383s0.113-0.536 0.383-0.595l3.398-0.738 0.558-0.841z"></path>
</svg>
