<!-- Generated by IcoMoon.io -->
<svg version="1.1" xmlns="http://www.w3.org/2000/svg" width="32" height="32" viewBox="0 0 32 32">
<title>ic_settings</title>
<path fill="none" stroke="#fff" stroke-width="3.2" stroke-miterlimit="4" stroke-linecap="butt" stroke-linejoin="miter" d="M17.528 7.035l-0.001-0.009-0.136-0.987c-0.041-0.294-0.29-0.514-0.587-0.518l-1.658-0.021c-0.31-0.004-0.572 0.229-0.604 0.537l-0.093 0.877c-0 0-0 0-0 0.001-0.028 0.261-0.057 0.51-0.079 0.7-0.004 0.031-0.007 0.060-0.011 0.088-0.039 0.009-0.085 0.020-0.138 0.032-1.051 0.229-1.97 0.62-2.974 1.259l-1.285-1.036c-0.239-0.192-0.584-0.174-0.801 0.043v0l-1.173 1.173c-0.216 0.216-0.235 0.559-0.045 0.798l0.57 0.715c0 0 0 0.001 0.001 0.001 0.035 0.045 0.070 0.089 0.105 0.133 0.138 0.175 0.265 0.336 0.365 0.462-0.023 0.039-0.048 0.080-0.075 0.122l-0.001 0.002-0.001 0.002c-0.554 0.868-0.965 1.858-1.172 2.842-0.012 0.053-0.023 0.098-0.032 0.137-0.025 0.003-0.051 0.006-0.078 0.009-0.19 0.023-0.442 0.051-0.708 0.079l-0.879 0.093c-0.305 0.032-0.537 0.29-0.537 0.597v1.667c0 0.307 0.232 0.564 0.537 0.597l0.878 0.093c0 0 0.001 0 0.001 0 0.26 0.028 0.509 0.057 0.699 0.079 0.029 0.003 0.058 0.007 0.084 0.010 0.004 0.016 0.007 0.034 0.011 0.053 0.206 0.994 0.639 2.065 1.196 2.937l0.001 0.002 0.001 0.002c0.028 0.043 0.054 0.085 0.078 0.125-0.008 0.010-0.016 0.020-0.024 0.030-0.116 0.145-0.274 0.341-0.448 0.563-0 0-0.001 0.001-0.001 0.001l-0.57 0.715c-0.19 0.239-0.171 0.582 0.045 0.798l0.575 0.575c0.174 0.174 0.341 0.336 0.469 0.454 0.063 0.059 0.12 0.11 0.165 0.149 0.021 0.018 0.046 0.039 0.070 0.057 0.011 0.008 0.031 0.023 0.055 0.038 0.012 0.007 0.034 0.020 0.064 0.033l0.001 0c0.018 0.008 0.096 0.042 0.202 0.042 0.096 0 0.169-0.029 0.184-0.035 0.001-0 0.001-0 0.001-0 0.026-0.010 0.046-0.020 0.057-0.026 0.022-0.012 0.041-0.024 0.052-0.031 0.024-0.015 0.050-0.034 0.074-0.051 0.049-0.036 0.114-0.084 0.187-0.141 0.147-0.114 0.343-0.269 0.555-0.441 0.059-0.047 0.118-0.093 0.175-0.137 0.148-0.116 0.285-0.223 0.394-0.309 0.039 0.023 0.081 0.048 0.123 0.076l0.003 0.002c0.872 0.557 1.943 0.991 2.937 1.197l0 0c0.018 0.004 0.035 0.007 0.051 0.011 0.003 0.025 0.006 0.052 0.010 0.081 0.023 0.189 0.051 0.438 0.079 0.703l0.093 0.88c0.032 0.305 0.29 0.537 0.597 0.537h1.666c0.307 0 0.564-0.232 0.597-0.537l0.093-0.878c0-0 0-0 0-0.001 0.028-0.261 0.057-0.51 0.079-0.7 0.004-0.030 0.007-0.058 0.010-0.084 0.016-0.004 0.034-0.007 0.052-0.011 0.993-0.206 2.064-0.64 2.935-1.197l0.002-0.001 0.002-0.001c0.044-0.029 0.087-0.055 0.127-0.079 0.021 0.017 0.043 0.035 0.066 0.053l0.023 0.018c0.139 0.113 0.313 0.254 0.5 0.402 0 0 0.001 0 0.001 0.001l0.715 0.57c0.239 0.19 0.583 0.171 0.799-0.045v0l1.172-1.173c0.217-0.217 0.235-0.562 0.043-0.8l-1.035-1.286c0.649-1.017 1.020-1.918 1.258-2.987 0.006-0.025 0.011-0.049 0.016-0.072 0.005-0.020 0.009-0.039 0.013-0.058 0.058-0.008 0.121-0.015 0.183-0.023 0.245-0.031 0.491-0.061 0.519-0.064 0.001-0 0.002-0 0.002-0M17.528 7.035l5.311 0.989 0.575 0.575c0.174 0.175 0.335 0.341 0.452 0.466 0.058 0.062 0.108 0.116 0.144 0.156 0.017 0.019 0.035 0.039 0.049 0.056 0.006 0.008 0.017 0.021 0.029 0.036 0.005 0.007 0.017 0.023 0.029 0.044 0.006 0.010 0.018 0.031 0.030 0.059l0 0.001c0.007 0.017 0.040 0.093 0.040 0.197 0 0.095-0.028 0.167-0.034 0.181l-0 0.001c-0.010 0.025-0.020 0.045-0.025 0.055-0.011 0.022-0.023 0.040-0.030 0.052-0.015 0.024-0.033 0.050-0.050 0.075-0.035 0.050-0.084 0.116-0.14 0.191-0.113 0.15-0.266 0.347-0.433 0.554-0.166 0.212-0.323 0.409-0.442 0.557-0.005 0.006-0.010 0.012-0.015 0.018 0.023 0.037 0.048 0.077 0.074 0.119l0.001 0.002 0.001 0.002c0.557 0.872 0.99 1.943 1.196 2.937 0.004 0.019 0.008 0.036 0.011 0.053 0.026 0.003 0.054 0.007 0.084 0.010 0.19 0.023 0.439 0.051 0.7 0.079 0 0 0 0 0.001 0l0.877 0.093c0.308 0.033 0.541 0.294 0.537 0.604l-0.010 0.833v0l-0.010 0.824c-0.004 0.303-0.233 0.556-0.534 0.589l-0.944 0.104M17.528 7.035l0.001 0.009M17.528 7.035l0.001 0.009M25 17.545c0 0 0 0 0-0M25 17.545l0-0M25 17.545c0 0 0 0 0 0l-0.053-0.436M25 17.545l-0.052-0.435M24.947 17.109v-0M24.947 17.109l0 0.001M24.947 17.109v-0M24.948 17.11l0.048 0.436h-0l-0.048-0.437M24.948 17.11l-0-0.001M17.529 7.045c0.027 0.268 0.056 0.512 0.080 0.694 0.020 0.005 0.041 0.009 0.063 0.014 0.023 0.005 0.047 0.011 0.071 0.016 1.005 0.218 1.98 0.629 2.855 1.169l0.005 0.003M17.529 7.045l3.075 1.896M20.604 8.941l0.005 0.003M20.604 8.941l0.005 0.003M20.609 8.945c0.042 0.027 0.083 0.052 0.122 0.075 0.126-0.1 0.288-0.228 0.463-0.367 0.043-0.034 0.087-0.068 0.131-0.103 0-0 0-0 0.001-0.001l0.715-0.57 0.312 0.391M20.609 8.945l1.743-0.574M22.352 8.37l-0.312-0.391c0.239-0.19 0.583-0.171 0.799 0.045l-0.487 0.346zM22.84 21.003c0-0 0-0 0-0.001l-0 0.001zM11.506 22.825c-0.002 0.001-0.003 0.003-0.005 0.005 0.002-0.002 0.004-0.003 0.005-0.004l0.001-0.001zM9.154 20.519c0.001-0.001 0.002-0.002 0.003-0.003l-0.003 0.003zM7.655 14.564c0-0 0-0.001 0-0.001-0.001 0.002-0.001 0.003-0 0.001zM9.174 11.521c-0.001-0.001-0.003-0.003-0.004-0.005 0.001 0.002 0.003 0.003 0.003 0.004l0.001 0.001zM14.543 7.655c0.003-0.001 0.002-0.001-0.001 0.001 0.001-0 0.001-0 0.001-0.001zM20.493 9.21c0.002-0.001 0.003-0.003 0.005-0.004-0.002 0.002-0.003 0.003-0.004 0.004l-0.001 0.001zM22.81 11.551c-0.008 0.009-0.016 0.018-0.023 0.025 0.008-0.008 0.016-0.016 0.023-0.025z"></path>
</svg>
