<!-- Generated by IcoMoon.io -->
<svg version="1.1" xmlns="http://www.w3.org/2000/svg" width="32" height="32" viewBox="0 0 32 32">
<title>Logo</title>
<path fill="#ffd596" d="M7.149 5.915h-4.255l8 10.043-10.894 14.638h3.915l10.894-14.638-7.66-10.043z"></path>
<path fill="#ffd596" d="M13.447 5.915h-4.255l6.808 8.851 9.702-12.766h-4.085l-5.617 7.489-2.553-3.574z"></path>
<path fill="#ffd596" d="M22.808 26l-6.809-8.851-10.383 13.447h4.426l5.957-7.83 2.723 3.234h4.085z"></path>
<path fill="#ffd596" d="M17.021 15.957l7.66 10.043h4.255l-8-10.043 11.064-13.957h-4.425l-10.553 13.957z"></path>
<path fill="#998e7a" d="M32 2h-4.425l-10.553 13.957 7.66 10.043h4.255l-8-10.043 11.064-13.957z"></path>
</svg>
