<!-- Generated by IcoMoon.io -->
<svg version="1.1" xmlns="http://www.w3.org/2000/svg" width="43" height="32" viewBox="0 0 43 32">
<title>pic</title>
<path fill="#998e7a" d="M31.379 13.049h-30.136c-0.686 0-1.243 0.556-1.243 1.243v16.466c0 0.686 0.556 1.243 1.243 1.243h30.136c0.686 0 1.243-0.556 1.243-1.243v-16.466c0-0.686-0.556-1.243-1.243-1.243zM31.379 14.291v16.466h-27.961v-16.466h27.961zM1.864 27.029h-0.311v-8.699h0.311v8.699z"></path>
<path fill="none" stroke="#998e7a" stroke-width="0.6214" stroke-miterlimit="4" stroke-linecap="square" stroke-linejoin="round" d="M4.738 14.291h-2.537v-0.311h-1.579v-1.631h-0.311v-2.641h0.311v-3.883h-0.311v-2.641h0.311v-1.942c0-0.127 0.025-0.247 0.071-0.357l0.119-0.287-0.25-0.104c0.070-0.093 0.153-0.175 0.245-0.245l0.104 0.25 0.287-0.119c0.109-0.045 0.23-0.071 0.357-0.071h2.369v-0.311h3.495v0.311h4.738v-0.311h3.495v0.311h2.369c0.127 0 0.247 0.025 0.357 0.071l0.287 0.119 0.104-0.25c0.093 0.070 0.175 0.153 0.245 0.245l-0.25 0.104 0.119 0.287c0.045 0.109 0.071 0.23 0.071 0.357v1.942h0.311v2.641h-0.311v3.883h0.311v2.641h-0.311v1.631h-1.579v0.311h-2.537v-0.311h-3.78v0.311h-2.537v-0.311h-3.78v0.311z"></path>
<path fill="#998e7a" d="M31.379 2.796c5.206 0 9.426 4.22 9.426 9.426 0 0.217-0.007 0.431-0.022 0.645l1.708-1.708 0.555 0.555-2.614 2.614-3.025-2.593 0.511-0.596 2.074 1.777c0.018-0.229 0.027-0.46 0.027-0.694 0-4.772-3.868-8.641-8.641-8.641v-0.785z"></path>
</svg>
