<!-- Generated by IcoMoon.io -->
<svg version="1.1" xmlns="http://www.w3.org/2000/svg" width="32" height="32" viewBox="0 0 32 32">
<title>rouble</title>
<path fill="#fff" d="M17.18 21.77h-4.86v4.48h-1.6v-4.48h-2.72v-1.37h2.69v-2h-2.69v-1.34h2.69v-10h6.54c1.726-0.11 3.43 0.437 4.77 1.53 0.57 0.53 1.017 1.177 1.31 1.897s0.427 1.496 0.39 2.273c0.042 0.779-0.089 1.557-0.383 2.28s-0.744 1.371-1.317 1.9c-1.347 1.062-3.038 1.592-4.75 1.49h-5v2h4.86l0.070 1.34zM12.32 17.060h4.94c1.273 0.094 2.536-0.284 3.55-1.060 0.433-0.402 0.771-0.895 0.99-1.443s0.315-1.138 0.28-1.727c0.028-0.581-0.067-1.16-0.279-1.702s-0.536-1.031-0.951-1.438c-0.94-0.818-2.155-1.25-3.4-1.21h-5.13v8.58z"></path>
</svg>
