<!-- Generated by IcoMoon.io -->
<svg version="1.1" xmlns="http://www.w3.org/2000/svg" width="59" height="32" viewBox="0 0 59 32">
<title>Spinner</title>
<path d="M51.259 16c-0.327 0-0.593 0.265-0.593 0.593v2.963c0 0.327 0.265 0.593 0.593 0.593s0.593-0.265 0.593-0.593v-2.963c0-0.327-0.265-0.593-0.593-0.593zM55.259 17.072c-0.283-0.164-0.646-0.067-0.809 0.217l-1.481 2.566c-0.164 0.283-0.067 0.646 0.217 0.809s0.646 0.067 0.809-0.217l1.481-2.566c0.164-0.283 0.067-0.646-0.217-0.809zM57.378 19.783c0.283-0.164 0.646-0.067 0.809 0.217s0.067 0.646-0.217 0.809l-2.566 1.482c-0.283 0.164-0.646 0.067-0.809-0.217s-0.067-0.646 0.217-0.809l2.566-1.481zM59.259 24c0-0.327-0.265-0.593-0.593-0.593h-2.963c-0.327 0-0.593 0.265-0.593 0.593s0.265 0.593 0.593 0.593h2.963c0.327 0 0.593-0.265 0.593-0.593zM57.971 27.191c0.283 0.164 0.38 0.526 0.217 0.809s-0.526 0.381-0.809 0.217l-2.566-1.481c-0.283-0.164-0.38-0.526-0.217-0.809s0.526-0.381 0.809-0.217l2.566 1.481zM55.259 30.928c0.283-0.164 0.38-0.526 0.217-0.809l-1.481-2.566c-0.164-0.283-0.526-0.381-0.809-0.217s-0.38 0.526-0.217 0.809l1.481 2.566c0.164 0.283 0.526 0.381 0.809 0.217zM51.852 31.407c0 0.327-0.265 0.593-0.593 0.593s-0.593-0.265-0.593-0.593v-2.963c0-0.327 0.265-0.593 0.593-0.593s0.593 0.265 0.593 0.593v2.963zM47.259 30.928c0.283 0.164 0.646 0.067 0.809-0.217l1.481-2.566c0.164-0.283 0.067-0.646-0.217-0.809s-0.646-0.067-0.809 0.217l-1.481 2.566c-0.164 0.283-0.067 0.646 0.217 0.809zM45.14 28.217c-0.283 0.164-0.646 0.067-0.809-0.217s-0.067-0.646 0.217-0.809l2.566-1.481c0.283-0.164 0.646-0.067 0.809 0.217s0.067 0.646-0.217 0.809l-2.566 1.481zM43.259 24c0 0.327 0.265 0.593 0.593 0.593h2.963c0.327 0 0.593-0.265 0.593-0.593s-0.265-0.593-0.593-0.593h-2.963c-0.327 0-0.593 0.265-0.593 0.593zM44.548 20.809c-0.283-0.164-0.38-0.526-0.217-0.809s0.526-0.381 0.809-0.217l2.566 1.481c0.283 0.164 0.38 0.526 0.217 0.809s-0.526 0.381-0.809 0.217l-2.566-1.482zM47.259 17.072c-0.283 0.164-0.38 0.526-0.217 0.809l1.481 2.566c0.164 0.283 0.526 0.381 0.809 0.217s0.38-0.526 0.217-0.809l-1.481-2.566c-0.164-0.283-0.526-0.381-0.809-0.217z"></path>
<path d="M16 0c-0.655 0-1.185 0.531-1.185 1.185v6.519c0 0.655 0.531 1.185 1.185 1.185s1.185-0.531 1.185-1.185v-6.519c0-0.654-0.531-1.185-1.185-1.185zM24 2.144c-0.567-0.327-1.292-0.133-1.619 0.434l-3.259 5.645c-0.327 0.567-0.133 1.292 0.434 1.619s1.292 0.133 1.619-0.434l3.259-5.645c0.327-0.567 0.133-1.292-0.434-1.619zM28.237 7.566c0.567-0.327 1.292-0.133 1.619 0.434s0.133 1.292-0.434 1.619l-5.645 3.259c-0.567 0.327-1.292 0.133-1.619-0.434s-0.133-1.292 0.434-1.619l5.645-3.259zM32 16c0-0.655-0.531-1.185-1.185-1.185h-6.519c-0.655 0-1.185 0.531-1.185 1.185s0.531 1.185 1.185 1.185h6.519c0.655 0 1.185-0.531 1.185-1.185zM29.423 22.381c0.567 0.327 0.761 1.052 0.434 1.619s-1.052 0.761-1.619 0.434l-5.645-3.259c-0.567-0.327-0.761-1.052-0.434-1.619s1.052-0.761 1.619-0.434l5.645 3.259zM24 29.856c0.567-0.327 0.761-1.052 0.434-1.619l-3.259-5.645c-0.327-0.567-1.052-0.761-1.619-0.434s-0.761 1.052-0.434 1.619l3.259 5.645c0.327 0.567 1.052 0.761 1.619 0.434zM17.185 30.815c0 0.655-0.531 1.185-1.185 1.185s-1.185-0.531-1.185-1.185v-6.519c0-0.655 0.531-1.185 1.185-1.185s1.185 0.531 1.185 1.185v6.519zM8 29.856c0.567 0.327 1.292 0.133 1.619-0.434l3.259-5.645c0.327-0.567 0.133-1.292-0.434-1.619s-1.292-0.133-1.619 0.434l-3.259 5.645c-0.327 0.567-0.133 1.292 0.434 1.619zM3.763 24.434c-0.567 0.327-1.292 0.133-1.619-0.434s-0.133-1.292 0.434-1.619l5.645-3.259c0.567-0.327 1.292-0.133 1.619 0.434s0.133 1.292-0.434 1.619l-5.645 3.259zM0 16c0 0.655 0.531 1.185 1.185 1.185h6.519c0.655 0 1.185-0.531 1.185-1.185s-0.531-1.185-1.185-1.185h-6.519c-0.655 0-1.185 0.531-1.185 1.185zM2.577 9.619c-0.567-0.327-0.761-1.052-0.434-1.619s1.052-0.761 1.619-0.434l5.645 3.259c0.567 0.327 0.761 1.052 0.434 1.619s-1.052 0.761-1.619 0.434l-5.645-3.259zM8 2.144c-0.567 0.327-0.761 1.052-0.434 1.619l3.259 5.645c0.327 0.567 1.052 0.761 1.619 0.434s0.761-1.052 0.434-1.619l-3.259-5.645c-0.327-0.567-1.052-0.761-1.619-0.434z"></path>
</svg>
